<?xml version="1.0" encoding="UTF-8" standalone="no" ?>
<!DOCTYPE svg PUBLIC "-//W3C//DTD SVG 1.1//EN" "http://www.w3.org/Graphics/SVG/1.1/DTD/svg11.dtd">
<svg xmlns="http://www.w3.org/2000/svg" xmlns:xlink="http://www.w3.org/1999/xlink" version="1.1" width="1080" height="1080" viewBox="0 0 1080 1080" xml:space="preserve">
<desc>Created with Fabric.js 5.2.4</desc>
<defs>
</defs>
<g transform="matrix(1 0 0 1 540 540)" id="a96ba7b6-b945-41e8-baf7-5d2744b83828"  >
<rect style="stroke: none; stroke-width: 1; stroke-dasharray: none; stroke-linecap: butt; stroke-dashoffset: 0; stroke-linejoin: miter; stroke-miterlimit: 4; fill: rgb(255,255,255); fill-rule: nonzero; opacity: 1; visibility: hidden;" vector-effect="non-scaling-stroke"  x="-540" y="-540" rx="0" ry="0" width="1080" height="1080" />
</g>
<g transform="matrix(1 0 0 1 540 540)" id="64707895-b8b6-48a0-bb10-52ffab716da6"  >
</g>
<g transform="matrix(1 0 0 1 540 540)"  >
<g style="" vector-effect="non-scaling-stroke"   >
		<g transform="matrix(1.33 0 0 1.33 -83.9 0)" clip-path="url(#CLIPPATH_3)"  >
<clipPath id="CLIPPATH_3" >
	<path transform="matrix(1 0 0 1 0.03 0.05) translate(-11.93, -21.63)" id="a" d="M 0 9.7 L 23.867 9.7 L 23.867 33.566 L 0 33.566 Z M 0 9.7" stroke-linecap="round" />
</clipPath>
<path style="stroke: none; stroke-width: 1; stroke-dasharray: none; stroke-linecap: butt; stroke-dashoffset: 0; stroke-linejoin: miter; stroke-miterlimit: 4; fill: rgb(3,96,255); fill-rule: nonzero; opacity: 1;" vector-effect="non-scaling-stroke"  transform=" translate(-11.91, -21.58)" d="M 12.242 13.738 C 12.160069715603262 13.654064849939736 12.047282656322508 13.607431738890963 11.930000000000001 13.609 C 11.812223229471988 13.607417777969113 11.699000224438814 13.654443307216118 11.617 13.739 C 8.547 16.762 5.488000000000001 19.801000000000002 2.4450000000000003 22.855 C 2.310795069462701 22.98652705932497 2.2360379503243544 23.167099810866873 2.2380000000000004 23.355 L 2.2380000000000004 32.488 C 2.253075431273857 32.75916007466714 2.3771433465710903 33.01270584342864 2.582 33.191 C 2.7821515593015427 33.37503186275555 3.0486112365846747 33.469628658755795 3.3200000000000003 33.453 L 9.082 33.453 L 9.082 26.637000000000004 C 9.080102971869985 26.44793874618095 9.15476607307699 26.26615032585085 9.289000000000001 26.133000000000003 C 9.423250323609114 25.997957489059008 9.606600303222004 25.923245981618322 9.797 25.926000000000002 L 13.973 25.926000000000002 C 14.168000000000001 25.926000000000002 14.336 25.996000000000002 14.473 26.136000000000003 C 14.613000000000001 26.273000000000003 14.683000000000002 26.441000000000003 14.683000000000002 26.636000000000003 L 14.683000000000002 33.453 L 20.441000000000003 33.453 C 20.713745160866853 33.470738768191524 20.981865045442014 33.37606570921755 21.183000000000003 33.191 C 21.28523236048723 33.1022617541755 21.36797116779203 32.993305300111565 21.426000000000002 32.871 C 21.484 32.75 21.520000000000003 32.621 21.527 32.484 L 21.527 23.312 C 21.531491639094398 23.12478697180979 21.45624227545941 22.944479317882475 21.32 22.816000000000003 Z M 11.882000000000001 22.836 C 11.625000000000002 22.836 11.375000000000002 22.785999999999998 11.141000000000002 22.688 C 10.662486808190305 22.492820174885843 10.28336070953515 22.112251160536474 10.090000000000002 21.633 C 9.993272531038697 21.3976295243791 9.94399587248496 21.145468968193768 9.945000000000002 20.891 C 9.952638522339319 20.374837818795978 10.164842391889993 19.882812575498825 10.535000000000002 19.523 C 10.719000000000001 19.343 10.930000000000001 19.207 11.168000000000003 19.108999999999998 C 11.406000000000002 19.011999999999997 11.656000000000002 18.961 11.914000000000003 18.961 C 12.168000000000003 18.965 12.418000000000003 19.016 12.652000000000003 19.116999999999997 C 13.127131403685926 19.313467019866547 13.502356564773335 19.694104082315793 13.692000000000004 20.171999999999997 C 13.789000000000003 20.409999999999997 13.836000000000004 20.656 13.836000000000004 20.913999999999998 C 13.833205486898613 21.1691750487278 13.780197414229196 21.421303189245155 13.680000000000003 21.656 C 13.581546713541584 21.88991891097692 13.438174510308732 22.102259259366807 13.258000000000003 22.281 C 12.890508344199313 22.639655257650002 12.396492316402561 22.83905809068796 11.883000000000003 22.836 Z M 23.773000000000003 20.543 C 23.76957317022734 20.823097287020776 23.659416544921886 21.09133582266717 23.465000000000003 21.293 C 23.270000000000003 21.503 23.027000000000005 21.621 22.738000000000003 21.648 C 22.517520384571355 21.62355338503926 22.31628106875924 21.511032477273343 22.180000000000003 21.336 C 21.582000000000004 20.676 17.695000000000004 16.941 12.191000000000003 11.684 C 12.13330045037543 11.624613121770565 12.058476217687044 11.584753483796378 11.977000000000002 11.569999999999999 C 11.913693563528508 11.559030888783179 11.848581815121683 11.565957670528585 11.789000000000001 11.589999999999998 C 11.728415433531078 11.609642187999208 11.672569831266665 11.641651252711737 11.625000000000002 11.683999999999997 C 6.121000000000002 16.940999999999995 2.230000000000002 20.676 1.6370000000000022 21.336 C 1.500484314848437 21.51126659094522 1.2988390560449 21.623812781905333 1.078000000000002 21.648 C 0.799642019219258 21.626365401397788 0.5400069342193574 21.49940885157001 0.3520000000000023 21.293 C 0.15721787430158427 21.091492215685545 0.04669601017081382 20.82323526391183 0.04300000000000215 20.543 C 0.06616289523043088 20.318811396242605 0.17205528471889142 20.111305097649055 0.340000000000002 19.961 C 3.855000000000002 16.660999999999998 7.363000000000001 13.354999999999999 10.871000000000002 10.054999999999998 C 11.137000000000002 9.839999999999998 11.437000000000003 9.722999999999997 11.781000000000002 9.702999999999998 C 11.797000000000002 9.702999999999998 11.859000000000002 9.698999999999998 11.937000000000003 9.702999999999998 C 12.313000000000002 9.714999999999998 12.648000000000003 9.831999999999997 12.945000000000004 10.058999999999997 C 16.453000000000003 13.362999999999998 19.965000000000003 16.663999999999998 23.473000000000006 19.964999999999996 C 23.642908155046296 20.112471417342046 23.750195024056787 20.319177451635593 23.773000000000007 20.542999999999996 Z M 23.773000000000003 20.543" stroke-linecap="round" />
</g>
		<g transform="matrix(1.33 0 0 1.33 -52.29 2.06)"  >
<path style="stroke: none; stroke-width: 1; stroke-dasharray: none; stroke-linecap: butt; stroke-dashoffset: 0; stroke-linejoin: miter; stroke-miterlimit: 4; fill: rgb(0,0,0); fill-rule: nonzero; opacity: 1;" vector-effect="non-scaling-stroke"  transform=" translate(-7.07, 6.68)" d="M 2.734 0.52 C 2.375 0.52 2.07 0.395 1.82 0.145 C 1.575368378450708 -0.09566209444922152 1.4414083549750392 -0.4269416119633753 1.4500000000000002 -0.7699999999999998 L 1.4500000000000002 -12.562 C 1.4500000000000002 -12.918 1.5700000000000003 -13.227 1.8160000000000003 -13.479999999999999 C 2.0660000000000003 -13.738 2.3710000000000004 -13.870999999999999 2.7340000000000004 -13.870999999999999 L 7.13 -13.870999999999999 C 8.419 -13.870999999999999 9.481 -13.647999999999998 10.314 -13.203 C 11.161 -12.75 11.774000000000001 -12.164 12.146 -11.445 C 12.513000000000002 -10.742 12.696000000000002 -9.985 12.696000000000002 -9.172 C 12.696000000000002 -8.359 12.513000000000002 -7.598000000000001 12.146 -6.8950000000000005 C 11.774000000000001 -6.175000000000001 11.161000000000001 -5.590000000000001 10.314 -5.1370000000000005 C 9.481 -4.695 8.419 -4.473000000000001 7.13 -4.473000000000001 L 3.62 -4.473000000000001 L 3.62 -4.8950000000000005 L 4.042 -4.8950000000000005 L 4.042 -0.77 C 4.042 -0.406 3.913 -0.10199999999999998 3.655 0.14800000000000002 C 3.409965753331463 0.39059073625360896 3.077776315996484 0.5246194463280254 2.7329999999999997 0.5199999999999999 Z M 2.734 -0.32399999999999995 C 2.859068798338301 -0.3227654438322448 2.9796597205548467 -0.3704993505429608 3.07 -0.457 C 3.1552707259664197 -0.5385127788671605 3.2024314875132727 -0.6520613816684304 3.1999999999999997 -0.77 L 3.1999999999999997 -5.316000000000001 L 7.129 -5.316000000000001 C 8.277 -5.316000000000001 9.206999999999999 -5.5040000000000004 9.918 -5.883000000000001 C 10.609 -6.253000000000001 11.104999999999999 -6.719000000000001 11.398 -7.285000000000001 C 11.699 -7.867000000000001 11.852 -8.496 11.852 -9.172 C 11.852 -9.848 11.699 -10.477 11.398 -11.059000000000001 C 11.105 -11.621 10.609 -12.089 9.918 -12.461 C 9.206999999999999 -12.84 8.277999999999999 -13.027000000000001 7.127999999999999 -13.027000000000001 L 2.735 -13.027000000000001 C 2.617007118382652 -13.029130658245009 2.5036365279566914 -12.98116617768018 2.423 -12.895000000000001 C 2.3366474634792342 -12.80618452337514 2.288849533704515 -12.686869390403661 2.29 -12.563 L 2.29 -0.77 C 2.29 -0.645 2.333 -0.535 2.419 -0.453 C 2.5020259798094076 -0.36824652309178335 2.616380736197388 -0.3215637269713736 2.735 -0.3239999999999999 Z M 6.957 -6.973 C 8.152 -6.973 8.98 -7.183 9.43 -7.609 C 9.875 -8.027 10.097999999999999 -8.547 10.097999999999999 -9.172 C 10.097999999999999 -9.793000000000001 9.874999999999998 -10.316 9.43 -10.734 C 8.98 -11.156 8.152 -11.371 6.957 -11.371 L 3.621 -11.371 L 3.621 -11.793000000000001 L 4.043 -11.793000000000001 L 4.043 -6.551000000000001 L 3.621 -6.551000000000001 L 3.621 -6.973000000000001 Z M 6.957 -6.129 L 3.199 -6.129 L 3.199 -12.215 L 6.957 -12.215 C 8.375 -12.215 9.395 -11.925 10.007 -11.347999999999999 C 10.629 -10.761999999999999 10.940999999999999 -10.039 10.940999999999999 -9.171999999999999 C 10.940999999999999 -8.305 10.629 -7.5779999999999985 10.008 -6.995999999999999 C 9.395 -6.417999999999998 8.375 -6.128999999999999 6.956999999999999 -6.128999999999999 Z M 6.957 -6.129" stroke-linecap="round" />
</g>
		<g transform="matrix(1.33 0 0 1.33 -38.82 4.34)"  >
<path style="stroke: none; stroke-width: 1; stroke-dasharray: none; stroke-linecap: butt; stroke-dashoffset: 0; stroke-linejoin: miter; stroke-miterlimit: 4; fill: rgb(0,0,0); fill-rule: nonzero; opacity: 1;" vector-effect="non-scaling-stroke"  transform=" translate(-4.38, 4.96)" d="M 2.39 0.52 C 2.027 0.52 1.723 0.395 1.473 0.14500000000000002 C 1.2296104013296667 -0.09656555982998524 1.095573102907667 -0.42714272440176293 1.102 -0.7699999999999989 L 1.102 -9.035 C 1.102 -9.395 1.222 -9.699 1.469 -9.953 C 1.719 -10.215 2.027 -10.343 2.391 -10.343 C 2.75 -10.343 3.059 -10.215 3.3120000000000003 -9.961 C 3.5700000000000003 -9.703 3.6950000000000003 -9.398 3.6950000000000003 -9.035 L 3.6950000000000003 -8.207 L 3.277 -8.207 L 2.9370000000000003 -8.461 C 3.922 -9.781 5.043 -10.441 6.301 -10.441 L 6.398000000000001 -10.441 C 6.7620000000000005 -10.441 7.063000000000001 -10.312000000000001 7.308000000000001 -10.062000000000001 C 7.547000000000001 -9.812000000000001 7.664000000000001 -9.508000000000001 7.664000000000001 -9.152000000000001 C 7.664000000000001 -8.785 7.539000000000001 -8.484000000000002 7.281000000000001 -8.246 C 7.031000000000001 -8.016 6.727 -7.902 6.359000000000001 -7.902 L 6.2620000000000005 -7.902 C 5.722 -7.902 5.227 -7.7700000000000005 4.782 -7.508 C 4.3163135730120565 -7.231750615527238 3.9215129840858065 -6.850646491091058 3.6290000000000004 -6.395 L 3.277 -6.629 L 3.6950000000000003 -6.629 L 3.6950000000000003 -0.7689999999999992 C 3.6950000000000003 -0.40599999999999925 3.5660000000000003 -0.1019999999999992 3.309 0.1480000000000008 C 3.064824638355127 0.3900358673049115 2.7337828770967674 0.5240375378033983 2.3899999999999997 0.5199999999999999 Z M 2.39 -0.32399999999999995 C 2.514214523239491 -0.3225847810333809 2.633937825286633 -0.37040219596512225 2.7230000000000003 -0.457 C 2.8085957814907303 -0.5384486503014076 2.856421640380829 -0.6518539066089895 2.8550000000000004 -0.77 L 2.8550000000000004 -6.754 L 2.9220000000000006 -6.859 C 3.3050000000000006 -7.441 3.7820000000000005 -7.899 4.352 -8.234 C 4.930854924714215 -8.573763413019064 5.590814217428671 -8.750673966877597 6.2620000000000005 -8.746 L 6.359000000000001 -8.746 C 6.485639605298083 -8.739459630506007 6.610033556383058 -8.781281734750094 6.707000000000001 -8.863000000000001 C 6.786824682336553 -8.937705440299432 6.82963483141539 -9.043816066221337 6.824000000000001 -9.153 C 6.826808245028445 -9.273278764981798 6.781864150919663 -9.389773856911763 6.699000000000001 -9.477 C 6.620536766569386 -9.557725327276513 6.511490843019764 -9.601343696696361 6.399000000000001 -9.597 L 6.3 -9.597 C 5.3229999999999995 -9.597 4.429 -9.051 3.6119999999999997 -7.957 L 2.8539999999999996 -6.936999999999999 L 2.8539999999999996 -9.035 C 2.855779086442979 -9.158398502920507 2.8065756352283313 -9.277065649967598 2.7179999999999995 -9.363 C 2.6323748304125583 -9.45214534246036 2.5135939760393984 -9.501758077366224 2.3899999999999992 -9.5 C 2.2720733904110766 -9.50344482833889 2.1582542678384877 -9.456535349706739 2.0769999999999995 -9.371 C 1.9889852408033322 -9.28163842059675 1.9409916861960235 -9.160391545799339 1.9439999999999995 -9.035 L 1.9439999999999995 -0.77 C 1.9406532923173454 -0.6509842234905939 1.986461544229478 -0.5358418014477759 2.070651672838627 -0.45165167283862717 C 2.1548418014477755 -0.3674615442294784 2.2699842234905936 -0.321653292317346 2.3889999999999993 -0.32500000000000007 Z M 2.39 -0.32399999999999995" stroke-linecap="round" />
</g>
		<g transform="matrix(1.33 0 0 1.33 -31.62 1.78)"  >
<path style="stroke: none; stroke-width: 1; stroke-dasharray: none; stroke-linecap: butt; stroke-dashoffset: 0; stroke-linejoin: miter; stroke-miterlimit: 4; fill: rgb(0,0,0); fill-rule: nonzero; opacity: 1;" vector-effect="non-scaling-stroke"  transform=" translate(-2.41, 6.89)" d="M 2.352 -11.41 C 1.9649999999999999 -11.41 1.632 -11.547 1.359 -11.82 C 1.0894261995079662 -12.078961675023178 0.9394878260481351 -12.43823429935205 0.9450000000000002 -12.812000000000001 L 0.9450000000000001 -12.891000000000002 C 0.9450000000000001 -13.277000000000001 1.082 -13.605000000000002 1.359 -13.883000000000003 C 1.633 -14.156000000000002 1.9649999999999999 -14.293000000000003 2.352 -14.293000000000003 L 2.465 -14.293000000000003 C 2.852 -14.293000000000003 3.1839999999999997 -14.156000000000002 3.457 -13.883000000000003 C 3.734 -13.605000000000002 3.871 -13.277000000000003 3.871 -12.891000000000002 L 3.871 -12.812000000000001 C 3.871 -12.426000000000002 3.734 -12.098 3.457 -11.82 C 3.1839999999999997 -11.547 2.852 -11.41 2.465 -11.41 Z M 2.352 -12.25 L 2.465 -12.25 C 2.614957600948493 -12.24972054251871 2.758599217687501 -12.3103531847603 2.863 -12.418 C 2.9697005890676773 -12.52148381462864 3.029026980731756 -12.664373599429316 3.027 -12.812999999999999 L 3.027 -12.890999999999998 C 3.028750951022318 -13.03928050183418 2.969446439215729 -13.18175597532074 2.863 -13.284999999999998 C 2.7581903612017715 -13.391567183832972 2.614460401647972 -13.450792594302378 2.465 -13.448999999999998 L 2.352 -13.448999999999998 C 2.2021939519825335 -13.451066261218836 2.05805098655389 -13.391819528561449 1.9529999999999998 -13.284999999999998 C 1.8465535607842707 -13.18175597532074 1.787249048977682 -13.03928050183418 1.789 -12.890999999999998 L 1.789 -12.811999999999998 C 1.787249048977682 -12.663719498165817 1.846553560784271 -12.521244024679255 1.953 -12.417999999999997 C 2.066 -12.307999999999998 2.195 -12.249999999999998 2.352 -12.249999999999998 Z M 2.39 0.52 C 2.0260000000000002 0.52 1.722 0.395 1.472 0.14500000000000002 C 1.2286104013296666 -0.09656555982998524 1.0945731029076669 -0.42714272440176293 1.101 -0.7699999999999989 L 1.101 -9.035 C 1.101 -9.395 1.221 -9.699 1.468 -9.953 C 1.718 -10.215 2.026 -10.343 2.39 -10.343 C 2.7600000000000002 -10.343 3.0730000000000004 -10.219 3.3230000000000004 -9.969 C 3.5690000000000004 -9.722999999999999 3.6940000000000004 -9.41 3.6940000000000004 -9.035 L 3.6940000000000004 -0.77 C 3.6940000000000004 -0.406 3.5650000000000004 -0.10199999999999998 3.3080000000000003 0.14800000000000002 C 3.0640690633954395 0.3897875754762748 2.733437517212935 0.5237689863476165 2.39 0.5200000000000001 Z M 2.39 -0.32399999999999995 C 2.51386939040366 -0.3228495337045154 2.633184523375139 -0.3706474634792345 2.722 -0.457 C 2.80759578149073 -0.5384486503014076 2.8554216403808286 -0.6518539066089895 2.854 -0.77 L 2.854 -9.035 C 2.8597900012930397 -9.16109510428981 2.8135089302163543 -9.284029199337256 2.726 -9.375 C 2.635329796948045 -9.460095870068866 2.5142414423078834 -9.505143621051069 2.39 -9.5 C 2.272073390411077 -9.50344482833889 2.158254267838488 -9.456535349706739 2.077 -9.371 C 1.9889852408033326 -9.28163842059675 1.940991686196024 -9.160391545799339 1.944 -9.035 L 1.944 -0.77 C 1.9406532923173458 -0.6509842234905939 1.9864615442294784 -0.5358418014477759 2.0706516728386273 -0.45165167283862717 C 2.154841801447776 -0.3674615442294784 2.269984223490594 -0.321653292317346 2.389 -0.32500000000000007 Z M 2.39 -0.32399999999999995" stroke-linecap="round" />
</g>
		<g transform="matrix(1.33 0 0 1.33 -21.62 4.41)"  >
<path style="stroke: none; stroke-width: 1; stroke-dasharray: none; stroke-linecap: butt; stroke-dashoffset: 0; stroke-linejoin: miter; stroke-miterlimit: 4; fill: rgb(0,0,0); fill-rule: nonzero; opacity: 1;" vector-effect="non-scaling-stroke"  transform=" translate(-5.11, 4.91)" d="M 5.008 0.52 C 4.691 0.52 4.398 0.42600000000000005 4.133 0.23800000000000004 C 3.881521898470114 0.06787874466781083 3.6837863925402607 -0.1704445756371175 3.5629999999999997 -0.44900000000000023 L 0.207 -8.47 C 0.12723287200328912 -8.648359501442785 0.0833976978939453 -8.840690575441922 0.07800000000000043 -9.036000000000001 C 0.07799999999999999 -9.396 0.20299999999999999 -9.700000000000001 0.44899999999999995 -9.954 C 0.699 -10.216000000000001 1.004 -10.344000000000001 1.367 -10.344000000000001 C 1.617 -10.344000000000001 1.8519999999999999 -10.274000000000001 2.07 -10.134 C 2.2849999999999997 -9.989 2.445 -9.814 2.5429999999999997 -9.599 L 2.5469999999999997 -9.587 L 5.497 -2.1029999999999998 L 5.1049999999999995 -1.9459999999999997 L 4.715 -2.1029999999999998 L 7.665 -9.587 L 7.672 -9.599 C 7.77 -9.813 7.926 -9.989 8.141 -10.134 C 8.359 -10.274000000000001 8.594 -10.344000000000001 8.844 -10.344000000000001 C 9.206999999999999 -10.344000000000001 9.516 -10.216000000000001 9.766 -9.954 C 10.008 -9.700000000000001 10.133 -9.396 10.133 -9.036000000000001 C 10.133 -8.864 10.09 -8.676000000000002 10.002999999999998 -8.47 L 6.654 -0.453 C 6.530297495484765 -0.17369183474477667 6.3311770392955555 0.06559900912782196 6.079 0.23799999999999982 C 5.8246947091474155 0.4225622614335496 5.518217481623601 0.5213354936183672 5.204 0.52 Z M 5.008 -0.32399999999999995 L 5.203 -0.32399999999999995 C 5.345122140164124 -0.3243422151561481 5.483453877421599 -0.36986911602569683 5.598000000000001 -0.45399999999999974 C 5.718062594953111 -0.5332918780559395 5.812820373141897 -0.6454045606749059 5.871 -0.7769999999999998 L 9.227 -8.793 C 9.2627688898869 -8.869025630317251 9.283806700103368 -8.951140954065407 9.289 -9.035 C 9.292008313803976 -9.160391545799339 9.244014759196666 -9.28163842059675 9.155999999999999 -9.371 C 9.007727485314787 -9.51921238791256 8.775478325867388 -9.54222807038032 8.600999999999999 -9.426 C 8.530995731474016 -9.38231259211021 8.474551106601737 -9.31998110452119 8.437999999999999 -9.246 L 8.055 -9.422 L 8.445 -9.266 L 5.105 -0.7959999999999994 L 1.7650000000000006 -9.266 L 2.1560000000000006 -9.422 L 1.7730000000000006 -9.246 C 1.7361763169986941 -9.320111183435511 1.6793731570222843 -9.382456115116936 1.6090000000000007 -9.426 C 1.5375821270043104 -9.474382368884855 1.4532631943406502 -9.500165844162174 1.3670000000000004 -9.5 C 1.249557582286762 -9.502410057903726 1.1364489223642869 -9.455643977358857 1.0550000000000002 -9.371 C 0.9669852408033333 -9.28163842059675 0.9189916861960247 -9.160391545799339 0.9220000000000006 -9.035 C 0.9220000000000006 -8.977 0.9450000000000006 -8.895 0.9840000000000007 -8.793 L 4.336 -0.785 C 4.3956682699660306 -0.649536933711257 4.493259578526464 -0.5342333235971497 4.617 -0.45300000000000007 C 4.7296375021184724 -0.36897243337927166 4.866473292484673 -0.32371136425814395 5.007 -0.3240000000000001 Z M 5.008 -0.32399999999999995" stroke-linecap="round" />
</g>
		<g transform="matrix(1.33 0 0 1.33 -8.11 4.4)"  >
<path style="stroke: none; stroke-width: 1; stroke-dasharray: none; stroke-linecap: butt; stroke-dashoffset: 0; stroke-linejoin: miter; stroke-miterlimit: 4; fill: rgb(0,0,0); fill-rule: nonzero; opacity: 1;" vector-effect="non-scaling-stroke"  transform=" translate(-5.14, 4.91)" d="M 4.027 0.613 C 3.420690947817164 0.6183919849184587 2.821031027127486 0.4864257766024868 2.2730000000000006 0.22700000000000076 C 1.7321976770544958 -0.029002812456715016 1.2746513584486805 -0.4324754752272988 0.9530000000000007 -0.9370000000000004 C 0.6242642783976953 -1.4655477181576009 0.45483537304176613 -2.0776443577938757 0.4649999999999995 -2.6999999999999975 C 0.465 -3.79 0.898 -4.6610000000000005 1.762 -5.3100000000000005 C 2.586 -5.930000000000001 3.773 -6.24 5.316 -6.24 L 7.648 -6.24 L 7.648 -5.821000000000001 L 7.226999999999999 -5.821000000000001 L 7.226999999999999 -5.974 C 7.226999999999999 -6.696 7.066999999999999 -7.2 6.741999999999999 -7.489 C 6.405999999999999 -7.79 5.847999999999999 -7.942 5.065999999999999 -7.942 C 4.608999999999999 -7.942 4.202999999999999 -7.907 3.851999999999999 -7.833 C 3.487999999999999 -7.759 3.085999999999999 -7.649 2.6369999999999987 -7.501 L 2.6049999999999986 -7.493 C 2.4689999999999985 -7.458 2.3519999999999985 -7.4430000000000005 2.2539999999999987 -7.4430000000000005 C 1.9449999999999987 -7.4430000000000005 1.6799999999999988 -7.5520000000000005 1.4569999999999985 -7.774000000000001 C 1.2358124594136906 -7.988695240946112 1.11406038979282 -8.285828267997045 1.1209999999999987 -8.594000000000001 C 1.1209999999999984 -8.853000000000002 1.1879999999999984 -9.083000000000002 1.3209999999999984 -9.274000000000001 C 1.4489999999999985 -9.466000000000001 1.6369999999999985 -9.610000000000001 1.8789999999999984 -9.716000000000001 C 2.9832424789205705 -10.191940636990347 4.172560203472317 -10.438921377271974 5.374999999999996 -10.442 C 6.339999999999998 -10.442 7.155999999999998 -10.243 7.834999999999998 -9.845 C 8.514999999999999 -9.442 9.019999999999998 -8.919 9.343999999999998 -8.275 C 9.663999999999998 -7.642 9.823999999999998 -6.958 9.823999999999998 -6.224 L 9.823999999999998 -0.77 C 9.823999999999998 -0.406 9.694999999999999 -0.10199999999999998 9.433999999999997 0.14800000000000002 C 9.19089630887425 0.3910390909075329 8.859714869906908 0.5252433341492009 8.515999999999998 0.5200000000000001 C 8.155999999999999 0.52 7.8519999999999985 0.395 7.6019999999999985 0.14500000000000002 C 7.355939091019747 -0.09508192458916953 7.22019956184862 -0.4262863757667198 7.2269999999999985 -0.7700000000000001 L 7.2269999999999985 -1.2730000000000001 L 7.647999999999999 -1.2730000000000001 L 7.948999999999999 -0.9770000000000001 C 6.918 0.082 5.61 0.613 4.027 0.613 Z M 4.027 -0.22999999999999998 C 5.371 -0.22999999999999998 6.48 -0.6759999999999999 7.3469999999999995 -1.566 L 8.07 -2.309 L 8.07 -0.7690000000000001 C 8.07 -0.6450000000000001 8.113 -0.5350000000000001 8.200000000000001 -0.4530000000000001 C 8.282179365583882 -0.36699498247115436 8.397109616761341 -0.3200772533512426 8.516000000000002 -0.3240000000000001 C 8.641068798338303 -0.32276544383224487 8.76165972055485 -0.3704993505429609 8.852000000000002 -0.4570000000000002 C 8.93653506464251 -0.5388596133111271 8.982951790975884 -0.6523630144232058 8.980000000000002 -0.7699999999999999 L 8.980000000000002 -6.223000000000001 C 8.985396867119485 -6.801739682487732 8.853090738938747 -7.3734666819837775 8.594000000000003 -7.891 C 8.340000000000003 -8.391000000000002 7.945000000000003 -8.797 7.406000000000003 -9.117 C 6.863000000000003 -9.437000000000001 6.184000000000003 -9.597000000000001 5.3750000000000036 -9.597000000000001 C 4.28514470687457 -9.594347420738726 3.2072444018882216 -9.369784857199903 2.207000000000002 -8.937000000000001 C 2.131275935228159 -8.909519982092943 2.0649992920076867 -8.860940243606734 2.0160000000000036 -8.797 C 1.9771683998940255 -8.736625495732017 1.9579574730265756 -8.665719711112157 1.9610000000000036 -8.594000000000001 C 1.9610000000000036 -8.504000000000001 1.9920000000000035 -8.430000000000001 2.0510000000000037 -8.371 C 2.1090000000000035 -8.312000000000001 2.1800000000000037 -8.281 2.2540000000000036 -8.281 C 2.2850000000000037 -8.281 2.3320000000000034 -8.293000000000001 2.4020000000000037 -8.309000000000001 L 2.5040000000000036 -7.899000000000001 L 2.37 -8.3 C 2.85 -8.456000000000001 3.2840000000000003 -8.577 3.683 -8.66 C 4.138437723598212 -8.746896639754011 4.601367716672582 -8.788433050131161 5.065 -8.783999999999999 C 6.061999999999999 -8.784 6.803999999999999 -8.561 7.303999999999999 -8.116000000000001 C 7.8149999999999995 -7.659000000000002 8.068999999999999 -6.944000000000002 8.068999999999999 -5.972000000000001 L 8.068999999999999 -5.397000000000001 L 5.316 -5.397000000000001 C 3.961 -5.397000000000001 2.941 -5.144000000000001 2.266 -4.6320000000000014 C 1.629 -4.152000000000001 1.3090000000000002 -3.5070000000000014 1.3090000000000002 -2.6980000000000013 C 1.3090000000000002 -2.2020000000000013 1.4260000000000002 -1.7650000000000012 1.6640000000000001 -1.3900000000000012 C 1.9060000000000001 -1.0150000000000012 2.23 -0.7300000000000012 2.641 -0.5340000000000013 C 3.062 -0.33100000000000124 3.527 -0.22900000000000126 4.027 -0.22900000000000126 Z M 4.684 -1.77 C 5.18 -1.77 5.66 -1.8900000000000001 6.125 -2.137 C 6.582287152050019 -2.369548819773676 6.991741831913909 -2.686053555741373 7.332000000000001 -3.070000000000001 L 7.648 -2.793 L 7.226999999999999 -2.793 L 7.226999999999999 -4.414 L 7.648 -4.414 L 7.648 -3.9919999999999995 L 5.551 -3.9919999999999995 C 3.891 -3.9919999999999995 3.0620000000000003 -3.6249999999999996 3.0620000000000003 -2.8909999999999996 C 3.0620000000000003 -2.5549999999999997 3.172 -2.2849999999999997 3.3950000000000005 -2.0859999999999994 C 3.6290000000000004 -1.8749999999999993 4.059 -1.7699999999999994 4.684 -1.7699999999999994 Z M 4.684 -0.926 C 3.8440000000000003 -0.926 3.2270000000000003 -1.106 2.8280000000000003 -1.457 C 2.422 -1.824 2.2180000000000004 -2.301 2.2180000000000004 -2.891 C 2.2180000000000004 -3.227 2.3010000000000006 -3.523 2.4650000000000003 -3.781 C 2.6290000000000004 -4.035 2.8630000000000004 -4.242 3.172 -4.406000000000001 C 3.7190000000000003 -4.691000000000001 4.5120000000000005 -4.832000000000001 5.551 -4.832000000000001 L 8.071 -4.832000000000001 L 8.071 -2.637000000000001 L 7.965 -2.516000000000001 C 7.57 -2.0660000000000007 7.09 -1.691000000000001 6.515 -1.391000000000001 C 5.925 -1.082000000000001 5.316 -0.9260000000000008 4.683999999999999 -0.9260000000000008 Z M 4.684 -0.926" stroke-linecap="round" />
</g>
		<g transform="matrix(1.33 0 0 1.33 4.04 3.25)"  >
<path style="stroke: none; stroke-width: 1; stroke-dasharray: none; stroke-linecap: butt; stroke-dashoffset: 0; stroke-linejoin: miter; stroke-miterlimit: 4; fill: rgb(0,0,0); fill-rule: nonzero; opacity: 1;" vector-effect="non-scaling-stroke"  transform=" translate(-3.66, 5.78)" d="M 4.914 0.613 C 3.867 0.613 3.07 0.367 2.52 -0.129 C 1.96 -0.637 1.6800000000000002 -1.379 1.6800000000000002 -2.352 L 1.6800000000000002 -8.324 L 2.1020000000000003 -8.324 L 2.1020000000000003 -7.902 L 0.73 -7.902 C 0.521146133691283 -7.897028300673106 0.3199214372007063 -7.980569239649338 0.17599999999999993 -8.132 C 0.023313905079121733 -8.27755301542066 -0.0603050700505077 -8.481147041823236 -0.05399999999999994 -8.692 C -0.054000000000000076 -8.957 0.054999999999999924 -9.176 0.2809999999999999 -9.352 L 0.5389999999999999 -9.016 L 0.24599999999999994 -9.316 L 2.863 -11.883000000000001 C 3.063 -12.078000000000001 3.27 -12.176 3.488 -12.176 C 3.715 -12.176 3.902 -12.09 4.058 -11.922 C 4.199098661295714 -11.771989110296026 4.276216741564896 -11.572916856577905 4.273 -11.367 L 4.273 -9.828000000000001 L 3.852 -9.828000000000001 L 3.852 -10.246 L 6.032 -10.246 C 6.367 -10.246 6.645 -10.136000000000001 6.867 -9.914 C 7.09 -9.687999999999999 7.203 -9.41 7.203 -9.074 C 7.203 -8.758 7.093 -8.484 6.875 -8.254 C 6.656121579050258 -8.022565898786418 6.349458403710632 -7.894668460730081 6.031 -7.901999999999999 L 3.8509999999999995 -7.901999999999999 L 3.8509999999999995 -8.324 L 4.273 -8.324 L 4.273 -2.5039999999999996 C 4.273 -2.3039999999999994 4.297 -2.1479999999999997 4.335999999999999 -2.0389999999999997 C 4.358999999999999 -1.9769999999999996 4.385999999999999 -1.9339999999999997 4.417999999999999 -1.9179999999999997 C 4.589999999999999 -1.8199999999999996 4.819999999999999 -1.7699999999999998 5.1049999999999995 -1.7699999999999998 C 5.319999999999999 -1.7699999999999998 5.539 -1.8049999999999997 5.754 -1.8669999999999998 L 5.765999999999999 -1.8709999999999998 L 5.772999999999999 -1.8749999999999998 C 5.8279999999999985 -1.8869999999999998 5.886999999999999 -1.9019999999999997 5.948999999999999 -1.9149999999999998 C 6.034999999999999 -1.9339999999999997 6.140999999999999 -1.9449999999999998 6.261999999999999 -1.9449999999999998 C 6.554999999999999 -1.9449999999999998 6.8119999999999985 -1.8349999999999997 7.034999999999998 -1.6249999999999998 C 7.261999999999999 -1.4059999999999997 7.374999999999998 -1.1409999999999998 7.374999999999998 -0.8279999999999997 C 7.374999999999998 -0.5979999999999998 7.315999999999998 -0.39099999999999974 7.1949999999999985 -0.20699999999999974 C 7.071685813604774 -0.02538656925073124 6.903602817067471 0.12134162034945628 6.706999999999999 0.2190000000000003 L 6.698999999999999 0.22300000000000025 L 6.687999999999999 0.23000000000000026 C 6.131442443893497 0.4848164338330416 5.526112288207109 0.6155049623718731 4.913999999999998 0.6130000000000007 Z M 4.914 -0.22999999999999998 C 5.417999999999999 -0.22999999999999998 5.891 -0.33199999999999996 6.335999999999999 -0.5349999999999999 L 6.512 -0.1519999999999999 L 6.316 -0.5269999999999999 C 6.385052157619313 -0.559323140916963 6.445390962526751 -0.6076627516666724 6.492 -0.6679999999999999 C 6.5212713054643645 -0.7161529152585971 6.536189065617175 -0.7716608600132392 6.535 -0.8280000000000001 C 6.53634053490408 -0.8996162215506728 6.506400148611894 -0.9682600340254431 6.453 -1.016 C 6.402499779028424 -1.0677890525336504 6.334251359044461 -1.0985187076049638 6.2620000000000005 -1.102 C 6.218332141384562 -1.1035637122511284 6.174643737194131 -1.099530936479704 6.132000000000001 -1.09 C 6.0811406020679195 -1.0791867398534853 6.030466762107561 -1.0675184214415603 5.979999999999997 -1.054999999999999 L 5.875 -1.465 L 5.996 -1.062 C 5.703 -0.9720000000000001 5.402 -0.926 5.106000000000001 -0.926 C 4.672000000000001 -0.926 4.305000000000001 -1.012 4.000000000000001 -1.1840000000000002 C 3.621000000000001 -1.3980000000000001 3.434000000000001 -1.8400000000000003 3.434000000000001 -2.5040000000000004 L 3.434000000000001 -8.746 L 6.03 -8.746 C 6.117676241391728 -8.740515209516447 6.203417114281391 -8.773352139559297 6.265000000000001 -8.836 C 6.326415542623037 -8.899809823241077 6.359882371968767 -8.98545611769574 6.3580000000000005 -9.074 C 6.363419248066516 -9.16300294907437 6.3323691758238185 -9.250376408175914 6.272 -9.315999999999999 C 6.206904259620104 -9.377621629130918 6.119542025793141 -9.410111716091357 6.03 -9.405999999999999 L 3.434 -9.405999999999999 L 3.434 -11.366999999999999 C 3.434 -11.359 3.434 -11.354999999999999 3.4370000000000003 -11.351999999999999 C 3.4490000000000003 -11.339999999999998 3.4650000000000003 -11.331999999999999 3.4880000000000004 -11.331999999999999 C 3.5040000000000004 -11.331999999999999 3.5200000000000005 -11.331999999999999 3.5280000000000005 -11.335999999999999 C 3.499574152268499 -11.321128801820429 3.4741459610614465 -11.301125291404215 3.4530000000000003 -11.277 L 0.816 -8.7 L 0.7959999999999999 -8.684999999999999 C 0.7889999999999999 -8.681 0.7859999999999999 -8.672999999999998 0.7809999999999999 -8.668999999999999 L 0.7809999999999999 -8.672999999999998 C 0.7860506504860387 -8.678446406472249 0.7889012251986823 -8.685572843253858 0.7889999999999999 -8.692999999999998 C 0.7889999999999999 -8.703999999999997 0.7809999999999999 -8.715999999999998 0.7689999999999999 -8.727999999999998 C 0.7579999999999999 -8.738999999999997 0.7459999999999999 -8.747999999999998 0.7299999999999999 -8.747999999999998 L 2.5229999999999997 -8.747999999999998 L 2.5229999999999997 -2.352999999999998 C 2.5229999999999997 -1.6299999999999981 2.711 -1.098999999999998 3.0859999999999994 -0.7549999999999979 C 3.4759999999999995 -0.4069999999999979 4.081999999999999 -0.23099999999999787 4.914 -0.23099999999999787 Z M 4.914 -0.22999999999999998" stroke-linecap="round" />
</g>
		<g transform="matrix(1.33 0 0 1.33 16.15 4.4)"  >
<path style="stroke: none; stroke-width: 1; stroke-dasharray: none; stroke-linecap: butt; stroke-dashoffset: 0; stroke-linejoin: miter; stroke-miterlimit: 4; fill: rgb(0,0,0); fill-rule: nonzero; opacity: 1;" vector-effect="non-scaling-stroke"  transform=" translate(-5.52, 4.91)" d="M 5.914 0.613 C 4.23 0.613 2.906 0.125 1.945 -0.852 C 0.985 -1.824 0.504 -3.18 0.504 -4.914 C 0.504 -5.883 0.6839999999999999 -6.781 1.0390000000000001 -7.6049999999999995 C 1.3941162708267636 -8.435733890585096 1.9812338349747436 -9.146455152448441 2.73 -9.652 C 3.496 -10.18 4.43 -10.442 5.531000000000001 -10.442 C 6.563000000000001 -10.442 7.461 -10.195 8.223 -9.711 C 8.970261853051936 -9.237269437394426 9.569637684814387 -8.563404701684618 9.953000000000001 -7.766000000000001 C 10.343000000000002 -6.969 10.535000000000002 -6.102 10.535000000000002 -5.164 C 10.535000000000002 -4.803999999999999 10.418000000000001 -4.504 10.180000000000001 -4.254 C 9.934000000000001 -3.9999999999999996 9.617 -3.8749999999999996 9.230000000000002 -3.8749999999999996 L 2.7 -3.8749999999999996 L 2.7 -4.297 L 3.117 -4.343999999999999 C 3.207 -3.5509999999999993 3.497 -2.9409999999999994 3.98 -2.5119999999999996 C 4.465 -2.0819999999999994 5.16 -1.8669999999999995 6.07 -1.8669999999999995 C 6.574 -1.8669999999999995 7.0120000000000005 -1.9139999999999995 7.383 -2.0069999999999997 C 7.758 -2.102 8.125 -2.2379999999999995 8.48 -2.4179999999999997 C 8.646527776322625 -2.5003115350977456 8.830261171390575 -2.5417886634619657 9.016 -2.5389999999999997 C 9.332 -2.5389999999999997 9.606 -2.4339999999999997 9.84 -2.219 C 10.086 -1.9919999999999998 10.209999999999999 -1.7109999999999999 10.209999999999999 -1.367 C 10.209999999999999 -0.9219999999999999 9.972999999999999 -0.563 9.495999999999999 -0.2889999999999999 C 8.964999999999998 0.011000000000000065 8.440999999999999 0.2340000000000001 7.921999999999999 0.3870000000000001 C 7.394999999999999 0.5390000000000001 6.7269999999999985 0.6130000000000001 5.913999999999999 0.6130000000000001 Z M 5.914 -0.22999999999999998 C 6.644 -0.22999999999999998 7.234 -0.293 7.688 -0.426 C 8.172177489226884 -0.5676225629158679 8.63753022049066 -0.767059447743199 9.074000000000002 -1.0200000000000002 C 9.27 -1.133 9.366999999999999 -1.246 9.366999999999999 -1.367 C 9.369987058012077 -1.4535792028274173 9.335772231024066 -1.5372963326917022 9.273 -1.597 C 9.161302581527899 -1.7011131625257254 8.997834254366206 -1.7275681816557578 8.859 -1.6639999999999997 C 8.453365702023012 -1.4623704592947282 8.027704368791474 -1.3038367501462889 7.5889999999999995 -1.1909999999999992 C 7.091660621571303 -1.0718347964077246 6.581359934322272 -1.0153960107211966 6.069999999999999 -1.0230000000000006 C 4.95 -1.023 4.066000000000001 -1.309 3.418 -1.883 C 2.773 -2.453 2.3950000000000005 -3.2430000000000003 2.2780000000000005 -4.25 L 2.2270000000000003 -4.719 L 9.23 -4.719 C 9.379 -4.719 9.492 -4.758 9.57 -4.839 C 9.653785693554978 -4.926046148671574 9.698861549199032 -5.043243373346115 9.695 -5.164000000000001 C 9.695 -5.973000000000001 9.527000000000001 -6.714 9.195 -7.398000000000001 C 8.871 -8.066 8.395 -8.598 7.7700000000000005 -9 C 7.1450000000000005 -9.398 6.398000000000001 -9.598 5.531000000000001 -9.598 C 4.601000000000001 -9.598 3.8280000000000003 -9.383000000000001 3.2070000000000007 -8.957 C 2.5894340731276886 -8.540793227929726 2.1053390159314826 -7.95494791839601 1.8130000000000006 -7.27 C 1.5 -6.55 1.3479999999999999 -5.766 1.3479999999999999 -4.914 C 1.3479999999999999 -3.4099999999999997 1.746 -2.2539999999999996 2.543 -1.4409999999999998 C 3.343 -0.6329999999999998 4.465 -0.23099999999999987 5.914 -0.23099999999999987 Z M 7.961 -5.695 C 7.926 -6.25 7.785 -6.703 7.543 -7.066000000000001 C 7.3191363933567475 -7.405908896111481 7.007450681987083 -7.678893055736796 6.640999999999998 -7.856000000000002 C 6.2945518317392395 -8.022680222016886 5.915450449769741 -8.110454145590005 5.530999999999999 -8.113000000000001 C 5.156 -8.113000000000001 4.785 -8.027000000000001 4.417999999999999 -7.855000000000001 C 4.056412984723221 -7.67891721292222 3.749730532268854 -7.40750151373769 3.530999999999999 -7.07 C 3.2889999999999993 -6.707000000000001 3.1519999999999992 -6.250000000000001 3.116999999999999 -5.695000000000001 L 2.7 -5.723 L 2.7 -6.145 L 8.384 -6.145 L 8.384 -5.723 Z M 8.828 -5.301 L 2.25 -5.301 L 2.277 -5.75 C 2.3200000000000003 -6.453 2.504 -7.05 2.8280000000000003 -7.535 C 3.130480400881126 -8.002102763258524 3.5561419525714557 -8.37654650222514 4.058 -8.617 C 4.539 -8.844000000000001 5.031 -8.957 5.531 -8.957 C 6.026999999999999 -8.957 6.52 -8.844000000000001 7 -8.617 C 7.492 -8.387 7.906 -8.027000000000001 8.238 -7.539000000000001 C 8.57 -7.051 8.758 -6.453 8.801 -5.750000000000001 Z M 8.828 -5.301" stroke-linecap="round" />
</g>
		<g transform="matrix(1.33 0 0 1.33 32.74 1.99)"  >
<path style="stroke: none; stroke-width: 1; stroke-dasharray: none; stroke-linecap: butt; stroke-dashoffset: 0; stroke-linejoin: miter; stroke-miterlimit: 4; fill: rgb(0,0,0); fill-rule: nonzero; opacity: 1;" vector-effect="non-scaling-stroke"  transform=" translate(-7.27, 6.72)" d="M 2.734 0.52 C 2.375 0.52 2.07 0.395 1.82 0.145 C 1.575368378450708 -0.09566209444922152 1.4414083549750392 -0.4269416119633753 1.4500000000000002 -0.7699999999999998 L 1.4500000000000002 -12.66 C 1.4500000000000002 -13.016 1.5700000000000003 -13.32 1.8160000000000003 -13.578 C 2.0660000000000003 -13.835999999999999 2.3710000000000004 -13.965 2.7340000000000004 -13.965 C 3.0980000000000003 -13.965 3.4060000000000006 -13.84 3.6600000000000006 -13.582 C 3.9140000000000006 -13.328000000000001 4.043000000000001 -13.020000000000001 4.043000000000001 -12.66 L 4.043000000000001 -7.535 L 3.621000000000001 -7.535 L 3.621000000000001 -7.953 L 10.926 -7.953 L 10.926 -7.535 L 10.504 -7.535 L 10.504 -12.66 C 10.504 -13.016 10.625 -13.32 10.870999999999999 -13.578 C 11.120999999999999 -13.835999999999999 11.429999999999998 -13.965 11.793 -13.965 C 12.152999999999999 -13.965 12.460999999999999 -13.84 12.715 -13.582 C 12.972999999999999 -13.328000000000001 13.097999999999999 -13.020000000000001 13.097999999999999 -12.66 L 13.097999999999999 -0.77 C 13.097999999999999 -0.406 12.967999999999998 -0.10199999999999998 12.710999999999999 0.14800000000000002 C 12.467069063395439 0.38978757547627463 12.136437517212933 0.5237689863476164 11.793 0.5200000000000001 C 11.43 0.52 11.125 0.395 10.875 0.14500000000000002 C 10.631610401329667 -0.09656555982998558 10.497573102907666 -0.4271427244017637 10.504 -0.7700000000000005 L 10.504 -5.895 L 10.926 -5.895 L 10.926 -5.473 L 3.62 -5.473 L 3.62 -5.895 L 4.042 -5.895 L 4.042 -0.77 C 4.042 -0.406 3.913 -0.10199999999999998 3.655 0.14800000000000002 C 3.409965753331463 0.39059073625360896 3.077776315996484 0.5246194463280254 2.7329999999999997 0.5199999999999999 Z M 2.734 -0.32399999999999995 C 2.859068798338301 -0.3227654438322448 2.9796597205548467 -0.3704993505429608 3.07 -0.457 C 3.1552707259664197 -0.5385127788671605 3.2024314875132727 -0.6520613816684304 3.1999999999999997 -0.77 L 3.1999999999999997 -6.316000000000001 L 11.347999999999999 -6.316000000000001 L 11.347999999999999 -0.77 C 11.344653292317345 -0.6509842234905938 11.390461544229478 -0.5358418014477757 11.474651672838625 -0.45165167283862695 C 11.558841801447775 -0.36746154422947813 11.673984223490594 -0.3216532923173459 11.793 -0.32500000000000007 C 11.916727802318606 -0.3235821012804287 12.036023564268977 -0.37101294639322585 12.125 -0.45700000000000013 C 12.210964271050859 -0.5382751299177294 12.259162106497369 -0.6517031186001161 12.258 -0.7699999999999999 L 12.258 -12.66 C 12.25801589508675 -12.783251257666928 12.208676974438058 -12.901376556738251 12.120999999999999 -12.988 C 12.03437655673825 -13.075676974438059 11.916251257666927 -13.12501589508675 11.793 -13.125 C 11.67455680632064 -13.12690514147872 11.560841803587678 -13.078585347985161 11.479999999999999 -12.992 C 11.392474154940793 -12.904025157403268 11.344775668889634 -12.784056237941261 11.347999999999999 -12.66 L 11.347999999999999 -7.113 L 3.199 -7.113 L 3.199 -12.66 C 3.2010188387213403 -12.783444322875274 3.1517774667960596 -12.902202925753892 3.0629999999999997 -12.988 C 2.9792400329401607 -13.074841521033871 2.863993107950164 -13.124227308765933 2.7433423101395307 -13.124980199859916 C 2.622691512328897 -13.125733090953897 2.506837227300034 -13.077789432457521 2.4219999999999993 -12.991999999999999 C 2.335647463479234 -12.903184523375138 2.287849533704515 -12.783869390403659 2.2889999999999997 -12.659999999999998 L 2.2889999999999997 -0.77 C 2.2889999999999997 -0.645 2.332 -0.535 2.4179999999999997 -0.453 C 2.501025979809407 -0.36824652309178335 2.6153807361973875 -0.3215637269713736 2.7339999999999995 -0.3239999999999999 Z M 2.734 -0.32399999999999995" stroke-linecap="round" />
</g>
		<g transform="matrix(1.33 0 0 1.33 49.89 4.41)"  >
<path style="stroke: none; stroke-width: 1; stroke-dasharray: none; stroke-linecap: butt; stroke-dashoffset: 0; stroke-linejoin: miter; stroke-miterlimit: 4; fill: rgb(0,0,0); fill-rule: nonzero; opacity: 1;" vector-effect="non-scaling-stroke"  transform=" translate(-5.86, 4.91)" d="M 5.855 0.613 C 4.793 0.613 3.8550000000000004 0.383 3.0470000000000006 -0.07799999999999996 C 2.237296969474049 -0.5362831141238611 1.5800818542761546 -1.2223600571320339 1.1570000000000014 -2.0509999999999997 C 0.722 -2.887 0.503 -3.844 0.503 -4.914 C 0.503 -5.984 0.722 -6.938 1.155 -7.776999999999999 C 1.5791432172954731 -8.60488488370327 2.2360969194407865 -9.290688933614753 3.044999999999999 -9.75 C 3.855 -10.21 4.792 -10.441 5.855 -10.441 C 6.905 -10.441 7.835000000000001 -10.211 8.647 -9.75 C 9.458510512995531 -9.291142854718455 10.118485084342568 -8.605450474903972 10.546 -7.776999999999999 C 10.987 -6.941 11.209999999999999 -5.984 11.209999999999999 -4.914 C 11.209999999999999 -3.84 10.986999999999998 -2.8869999999999996 10.546 -2.0469999999999997 C 10.117508265876577 -1.2206074384886723 9.45810625245323 -0.5365386479562353 8.648 -0.07799999999999985 C 7.835999999999999 0.382 6.906 0.613 5.8549999999999995 0.613 Z M 5.855 -0.22999999999999998 C 6.758000000000001 -0.22999999999999998 7.551 -0.422 8.23 -0.8089999999999999 C 8.900180970079354 -1.1892281415295367 9.44558131426295 -1.7558191997228139 9.8 -2.4400000000000004 C 10.180000000000001 -3.155 10.367 -3.98 10.367 -4.913 C 10.367 -5.843 10.180000000000001 -6.667 9.801 -7.382 C 9.447988428267415 -8.067701693734982 8.902289900025318 -8.635297678842843 8.231 -9.015 C 7.551 -9.401 6.758 -9.597000000000001 5.855 -9.597000000000001 C 4.941000000000001 -9.597000000000001 4.1450000000000005 -9.401000000000002 3.4650000000000003 -9.015 C 2.7968662242866733 -8.636133817374057 2.2547548059097395 -8.069333553131337 1.9059999999999997 -7.385 C 1.5310000000000004 -6.671000000000001 1.3480000000000003 -5.847 1.3480000000000003 -4.913 C 1.3480000000000003 -3.979 1.5310000000000004 -3.1550000000000002 1.9060000000000004 -2.4370000000000003 C 2.2547548059097404 -1.7526664468686635 2.796866224286673 -1.1858661826259433 3.465 -0.8070000000000004 C 4.1450000000000005 -0.4210000000000004 4.941000000000001 -0.22900000000000043 5.855 -0.22900000000000043 Z M 5.855 -1.828 C 6.316000000000001 -1.828 6.758000000000001 -1.9340000000000002 7.180000000000001 -2.148 C 7.590000000000001 -2.355 7.930000000000001 -2.688 8.203000000000001 -3.145 C 8.477 -3.605 8.613000000000001 -4.199 8.613000000000001 -4.934 C 8.613000000000001 -5.652 8.477000000000002 -6.242 8.203000000000001 -6.699 C 7.9300000000000015 -7.156 7.590000000000002 -7.484 7.183000000000002 -7.684 C 6.342658995338185 -8.107430700944812 5.3513410046618155 -8.107430700944812 4.510999999999999 -7.683999999999999 C 4.105000000000001 -7.484 3.770000000000001 -7.156000000000001 3.5040000000000013 -6.704000000000001 C 3.2340000000000013 -6.242000000000001 3.102000000000001 -5.652000000000001 3.102000000000001 -4.934000000000001 C 3.102000000000001 -4.199000000000001 3.2340000000000013 -3.602000000000001 3.5040000000000013 -3.141000000000001 C 3.7700000000000014 -2.6870000000000007 4.109000000000002 -2.355000000000001 4.516000000000002 -2.148000000000001 C 4.937000000000002 -1.934000000000001 5.386000000000002 -1.828000000000001 5.856000000000002 -1.828000000000001 Z M 5.855 -0.9840000000000001 C 5.25 -0.9840000000000001 4.675000000000001 -1.121 4.1370000000000005 -1.3980000000000001 C 3.5780000000000003 -1.6800000000000002 3.1250000000000004 -2.1180000000000003 2.777 -2.715 C 2.43 -3.3089999999999997 2.257 -4.047 2.257 -4.933999999999999 C 2.257 -5.803999999999999 2.43 -6.539 2.777 -7.129 C 3.129 -7.7299999999999995 3.5820000000000003 -8.168 4.141 -8.440999999999999 C 4.673705653312631 -8.704993433281581 5.260470495776191 -8.841585715745385 5.855000000000001 -8.84 C 6.449000000000001 -8.84 7.015000000000001 -8.707 7.555000000000001 -8.440999999999999 C 8.113000000000001 -8.168 8.57 -7.730999999999999 8.925 -7.132999999999999 C 9.281 -6.538999999999999 9.457 -5.804999999999999 9.457 -4.932999999999999 C 9.457 -4.046999999999999 9.281 -3.304999999999999 8.926 -2.710999999999999 C 8.57 -2.116999999999999 8.113 -1.675999999999999 7.559 -1.397999999999999 C 7.019 -1.120999999999999 6.449 -0.9839999999999991 5.855 -0.9839999999999991 Z M 5.855 -0.9840000000000001" stroke-linecap="round" />
</g>
		<g transform="matrix(1.33 0 0 1.33 65.45 4.47)"  >
<path style="stroke: none; stroke-width: 1; stroke-dasharray: none; stroke-linecap: butt; stroke-dashoffset: 0; stroke-linejoin: miter; stroke-miterlimit: 4; fill: rgb(0,0,0); fill-rule: nonzero; opacity: 1;" vector-effect="non-scaling-stroke"  transform=" translate(-5.82, 4.87)" d="M 4.875 0.613 C 4.085 0.613 3.395 0.426 2.809 0.04700000000000004 C 2.221009949131688 -0.32772336937547175 1.7528327736844767 -0.8632292120107925 1.4600000000000004 -1.4960000000000004 C 1.1515467188767767 -2.1477137586159163 0.9952762581122223 -2.861018312565279 1.0029999999999992 -3.5820000000000003 L 1.003 -9.055 C 1.003 -9.418 1.132 -9.727 1.3929999999999998 -9.977 C 1.6469999999999998 -10.223 1.9529999999999998 -10.344000000000001 2.312 -10.344000000000001 C 2.671 -10.344000000000001 2.976 -10.219000000000001 3.226 -9.969000000000001 C 3.476 -9.723 3.601 -9.414000000000001 3.601 -9.055000000000001 L 3.601 -3.777000000000002 C 3.601 -3.102000000000002 3.741 -2.605000000000002 4.022 -2.297000000000002 C 4.292 -1.9970000000000019 4.718 -1.847000000000002 5.296 -1.847000000000002 C 5.854 -1.847000000000002 6.354 -1.992000000000002 6.792 -2.277000000000002 C 7.261 -2.590000000000002 7.7059999999999995 -3.007000000000002 8.128 -3.539000000000002 L 8.456 -3.277000000000002 L 8.033999999999999 -3.277000000000002 L 8.033999999999999 -9.055000000000001 C 8.033999999999999 -9.418000000000001 8.166999999999998 -9.727000000000002 8.424 -9.977000000000002 C 8.679 -10.223000000000003 8.987 -10.344000000000001 9.343 -10.344000000000001 C 9.703 -10.344000000000001 10.011 -10.219000000000001 10.257 -9.969000000000001 C 10.507 -9.723 10.632 -9.414000000000001 10.632 -9.055000000000001 L 10.632 -0.7890000000000015 C 10.632 -0.4340000000000015 10.511 -0.12500000000000144 10.265 0.12899999999999856 C 10.026132260738049 0.38279602407855373 9.691484718172859 0.5243497568338944 9.343 0.5189999999999987 C 8.983 0.5189999999999986 8.675 0.39099999999999857 8.421 0.13299999999999856 C 8.169135644852295 -0.10696336078240393 8.028859431689616 -0.4411614706945185 8.033999999999999 -0.7890000000000011 L 8.033999999999999 -1.5790000000000015 L 8.456 -1.5790000000000015 L 8.769 -1.2970000000000015 C 8.286172010976944 -0.7505409339141083 7.717766981204614 -0.2861577396556676 7.086000000000001 0.07800000000000029 C 6.457000000000001 0.434 5.719 0.613 4.875 0.613 Z M 4.875 -0.22999999999999998 C 5.57 -0.22999999999999998 6.168 -0.371 6.672 -0.6559999999999999 C 7.224918451719247 -0.9762066388869421 7.72235299862243 -1.3838125439189481 8.145 -1.863000000000001 L 8.879 -2.676 L 8.879 -0.7890000000000001 C 8.879 -0.6640000000000001 8.926 -0.5550000000000002 9.016 -0.46100000000000013 C 9.109 -0.3710000000000001 9.219 -0.3240000000000001 9.344 -0.3240000000000001 C 9.469 -0.3240000000000001 9.574 -0.3670000000000001 9.655999999999999 -0.45700000000000013 C 9.743892173839411 -0.5448071494718041 9.79196042874513 -0.6647970790108939 9.788999999999998 -0.7890000000000001 L 9.788999999999998 -9.055 C 9.791847292796854 -9.174098533150943 9.746821067439292 -9.289365670066303 9.663999999999998 -9.375 C 9.578365670066301 -9.457821067439294 9.46309853315094 -9.502847292796856 9.343999999999998 -9.5 C 9.219797079010892 -9.502960428745133 9.0998071494718 -9.454892173839413 9.011999999999997 -9.367 C 8.924157395893372 -9.287465429439504 8.875554297026447 -9.1734491373607 8.878999999999998 -9.055000000000001 L 8.878999999999998 -3.1290000000000013 L 8.788999999999998 -3.0120000000000013 C 8.312999999999999 -2.4140000000000015 7.800999999999998 -1.9340000000000013 7.253999999999998 -1.5740000000000014 C 6.6759999999999975 -1.1950000000000014 6.023999999999997 -1.0040000000000013 5.296999999999998 -1.0040000000000013 C 4.468999999999998 -1.0040000000000013 3.831999999999998 -1.2460000000000013 3.394999999999998 -1.7300000000000013 C 2.9689999999999976 -2.203000000000001 2.757999999999998 -2.8870000000000013 2.757999999999998 -3.7770000000000015 L 2.757999999999998 -9.055000000000001 C 2.7613598104302497 -9.17419455575643 2.7154166599518836 -9.289498997869405 2.631005326217528 -9.37372106852364 C 2.546593992483173 -9.457943139177873 2.431186713821102 -9.503627353942687 2.3119999999999976 -9.500000000000002 C 2.186952630324036 -9.502735913841208 2.0661180385277675 -9.45476277739672 1.9769999999999974 -9.367 C 1.8913593226737722 -9.286157189533371 1.8440999802022149 -9.172734767601634 1.8469999999999978 -9.055000000000001 L 1.8469999999999978 -3.5820000000000016 C 1.8469999999999978 -2.9530000000000016 1.9729999999999976 -2.3790000000000013 2.2189999999999976 -1.8590000000000015 C 2.4609999999999976 -1.3520000000000016 2.8089999999999975 -0.9530000000000015 3.261999999999998 -0.6640000000000015 C 3.7149999999999976 -0.3750000000000015 4.249999999999998 -0.23000000000000148 4.874999999999998 -0.23000000000000148 Z M 4.875 -0.22999999999999998" stroke-linecap="round" />
</g>
		<g transform="matrix(1.33 0 0 1.33 79.53 4.41)"  >
<path style="stroke: none; stroke-width: 1; stroke-dasharray: none; stroke-linecap: butt; stroke-dashoffset: 0; stroke-linejoin: miter; stroke-miterlimit: 4; fill: rgb(0,0,0); fill-rule: nonzero; opacity: 1;" vector-effect="non-scaling-stroke"  transform=" translate(-4.64, 4.91)" d="M 4.703 0.613 C 3.343 0.613 2.11 0.31 0.993 -0.305 L 0.953 -0.328 C 0.6253753145296512 -0.5446461353785976 0.4331880900701697 -0.9154010172098812 0.44500000000000006 -1.308 C 0.44499999999999995 -1.625 0.5549999999999999 -1.8980000000000001 0.77 -2.133 C 0.992 -2.379 1.2770000000000001 -2.503 1.617 -2.503 C 1.793 -2.503 1.9649999999999999 -2.4650000000000003 2.137 -2.391 C 2.512811484207453 -2.223753565450154 2.9022283368737263 -2.0889296894840816 3.3009999999999966 -1.9880000000000004 C 3.68 -1.895 4.105 -1.8479999999999999 4.586 -1.8479999999999999 C 5.215 -1.8479999999999999 5.676 -1.938 5.961 -2.121 C 6.187 -2.27 6.301 -2.492 6.301 -2.793 C 6.303193562293258 -2.8440180461305204 6.28919233074263 -2.894422479712782 6.261 -2.9370000000000003 C 6.204265575179161 -3.001365051962986 6.133890773027112 -3.0522672146846133 6.055 -3.0860000000000003 C 5.75 -3.2300000000000004 5.2379999999999995 -3.3950000000000005 4.52 -3.5820000000000003 C 3.865472896094547 -3.7267747670153697 3.2218963578698476 -3.9172413437485347 2.5939999999999994 -4.151999999999999 C 2.044765387209806 -4.364100095704504 1.553417291804507 -4.702972666385007 1.1599999999999997 -5.141 C 0.734 -5.613 0.523 -6.223 0.523 -6.977 C 0.523 -8 0.895 -8.84 1.641 -9.488 C 2.367 -10.125 3.387 -10.440999999999999 4.702999999999999 -10.440999999999999 C 5.742999999999999 -10.440999999999999 6.718999999999999 -10.27 7.641 -9.934 L 7.496 -9.539 L 7.609000000000001 -9.940999999999999 C 7.8870000000000005 -9.863 8.105 -9.710999999999999 8.258000000000001 -9.483999999999998 C 8.58844715893641 -9.017365065509978 8.53749554066938 -8.38110146880352 8.137 -7.972999999999998 C 7.907 -7.733999999999998 7.621 -7.612999999999998 7.281000000000001 -7.612999999999998 C 7.184 -7.612999999999998 7.066000000000001 -7.628999999999998 6.930000000000001 -7.663999999999998 L 6.906000000000001 -7.671999999999998 C 6.236539669912729 -7.88531017658238 5.538610528171211 -7.995899914983936 4.836000000000001 -8 C 4.223000000000001 -8 3.758 -7.895 3.434 -7.687 C 3.172 -7.5200000000000005 3.043 -7.317 3.043 -7.07 C 3.043 -6.96 3.0660000000000003 -6.867 3.109 -6.797000000000001 C 3.16 -6.723000000000001 3.239 -6.657000000000001 3.348 -6.602 C 3.6759999999999997 -6.437 4.202999999999999 -6.273000000000001 4.926 -6.113 L 4.941 -6.113 C 5.715 -5.914000000000001 6.348 -5.719 6.84 -5.527 C 7.379 -5.317 7.843999999999999 -4.984 8.23 -4.531000000000001 C 8.637 -4.055000000000001 8.84 -3.4300000000000006 8.84 -2.6610000000000005 C 8.84 -1.7030000000000005 8.465 -0.9180000000000004 7.715 -0.2930000000000006 C 6.9879999999999995 0.3119999999999994 5.984999999999999 0.6129999999999994 4.702999999999999 0.6129999999999994 Z M 4.703 -0.22999999999999998 C 5.781000000000001 -0.22999999999999998 6.605 -0.46499999999999997 7.176 -0.941 C 7.723 -1.395 8 -1.97 8 -2.661 C 8 -3.223 7.8629999999999995 -3.6639999999999997 7.59 -3.984 C 7.305118166563668 -4.320357244920302 6.941254113783142 -4.580800070234409 6.531000000000001 -4.741999999999999 C 5.942801296538603 -4.962211983402193 5.341677831652591 -5.146222555153411 4.731000000000007 -5.292999999999998 L 4.836 -5.703 L 4.746 -5.293 C 3.9530000000000003 -5.465 3.3630000000000004 -5.6530000000000005 2.9730000000000008 -5.848 C 2.7395249307986353 -5.957552484052715 2.540623970605156 -6.129126181889177 2.3980000000000006 -6.343999999999999 C 2.2660000000000005 -6.553999999999999 2.1990000000000007 -6.797 2.1990000000000007 -7.069999999999999 C 2.1990000000000007 -7.624999999999999 2.4610000000000007 -8.065999999999999 2.980000000000001 -8.398 C 3.4410000000000007 -8.695 4.059000000000001 -8.84 4.836000000000001 -8.84 C 5.598000000000001 -8.84 6.371000000000001 -8.719 7.156000000000001 -8.477 L 7.031000000000001 -8.074 L 7.133000000000001 -8.48 C 7.1815283933371745 -8.467834480611632 7.231068325075644 -8.46013570743606 7.281000000000001 -8.457 C 7.374170644650561 -8.45225226925833 7.464525278832644 -8.489716385870414 7.527000000000001 -8.559000000000001 C 7.654005623610604 -8.678253216109114 7.669179997693043 -8.874652972090384 7.562000000000001 -9.012 C 7.516314693654124 -9.071532103969123 7.451808720565482 -9.113831102715773 7.379000000000001 -9.132 L 7.348000000000002 -9.141 C 6.500590035851783 -9.449656069866217 5.604848648485916 -9.604421216946067 4.702999999999998 -9.597999999999999 C 3.598000000000001 -9.598 2.7620000000000013 -9.348 2.195000000000001 -8.852 C 1.6410000000000011 -8.372 1.3670000000000013 -7.746 1.3670000000000013 -6.977 C 1.3670000000000013 -6.441000000000001 1.5070000000000014 -6.016 1.7850000000000013 -5.707000000000001 C 2.094000000000001 -5.363 2.465000000000001 -5.109000000000001 2.8980000000000015 -4.941000000000001 C 3.3750000000000013 -4.7540000000000004 3.9840000000000018 -4.574000000000001 4.730000000000001 -4.3950000000000005 C 5.500000000000002 -4.195 6.062000000000001 -4.015000000000001 6.4140000000000015 -3.8480000000000003 C 6.641000000000002 -3.7420000000000004 6.816000000000002 -3.6020000000000003 6.941000000000002 -3.434 C 7.078000000000001 -3.246 7.145000000000001 -3.031 7.145000000000001 -2.793 C 7.145000000000001 -2.1830000000000003 6.902000000000001 -1.723 6.418000000000001 -1.4140000000000001 C 5.992000000000001 -1.141 5.378000000000001 -1.0040000000000002 4.586000000000001 -1.0040000000000002 C 4.084942099679589 -0.9978730674105933 3.585078488114144 -1.0543092816195945 3.0980000000000008 -1.1719999999999995 C 2.651766651839727 -1.2850848202249021 2.2153579355784583 -1.4338985204059482 1.7930000000000015 -1.6170000000000004 C 1.7382049560385657 -1.644089692193722 1.6781133229705691 -1.65877117072738 1.6170000000000009 -1.6600000000000001 C 1.5316088089652 -1.6628727758728206 1.4491664008550154 -1.6285825707296464 1.3910000000000011 -1.5659999999999998 C 1.3241453721380922 -1.4973262722772307 1.2874343378241995 -1.4048288622902656 1.2890000000000013 -1.309 C 1.2890000000000013 -1.1880000000000002 1.3390000000000013 -1.0890000000000002 1.4380000000000013 -1.0190000000000001 L 1.1950000000000012 -0.6760000000000002 L 1.3980000000000012 -1.0430000000000001 C 2.3870000000000013 -0.5000000000000001 3.4880000000000013 -0.2300000000000002 4.703000000000001 -0.2300000000000002 Z M 4.703 -0.22999999999999998" stroke-linecap="round" />
</g>
		<g transform="matrix(1.33 0 0 1.33 93.03 4.4)"  >
<path style="stroke: none; stroke-width: 1; stroke-dasharray: none; stroke-linecap: butt; stroke-dashoffset: 0; stroke-linejoin: miter; stroke-miterlimit: 4; fill: rgb(0,0,0); fill-rule: nonzero; opacity: 1;" vector-effect="non-scaling-stroke"  transform=" translate(-5.52, 4.91)" d="M 5.914 0.613 C 4.23 0.613 2.906 0.125 1.945 -0.852 C 0.985 -1.824 0.504 -3.18 0.504 -4.914 C 0.504 -5.883 0.6839999999999999 -6.781 1.0390000000000001 -7.6049999999999995 C 1.3941162708267636 -8.435733890585096 1.9812338349747436 -9.146455152448441 2.73 -9.652 C 3.496 -10.18 4.43 -10.442 5.531000000000001 -10.442 C 6.563000000000001 -10.442 7.461 -10.195 8.223 -9.711 C 8.970261853051936 -9.237269437394426 9.569637684814387 -8.563404701684618 9.953000000000001 -7.766000000000001 C 10.343000000000002 -6.969 10.535000000000002 -6.102 10.535000000000002 -5.164 C 10.535000000000002 -4.803999999999999 10.418000000000001 -4.504 10.180000000000001 -4.254 C 9.934000000000001 -3.9999999999999996 9.617 -3.8749999999999996 9.230000000000002 -3.8749999999999996 L 2.7 -3.8749999999999996 L 2.7 -4.297 L 3.117 -4.343999999999999 C 3.207 -3.5509999999999993 3.497 -2.9409999999999994 3.98 -2.5119999999999996 C 4.465 -2.0819999999999994 5.16 -1.8669999999999995 6.07 -1.8669999999999995 C 6.574 -1.8669999999999995 7.0120000000000005 -1.9139999999999995 7.383 -2.0069999999999997 C 7.758 -2.102 8.125 -2.2379999999999995 8.48 -2.4179999999999997 C 8.646527776322625 -2.5003115350977456 8.830261171390575 -2.5417886634619657 9.016 -2.5389999999999997 C 9.332 -2.5389999999999997 9.606 -2.4339999999999997 9.84 -2.219 C 10.086 -1.9919999999999998 10.209999999999999 -1.7109999999999999 10.209999999999999 -1.367 C 10.209999999999999 -0.9219999999999999 9.972999999999999 -0.563 9.495999999999999 -0.2889999999999999 C 8.964999999999998 0.011000000000000065 8.440999999999999 0.2340000000000001 7.921999999999999 0.3870000000000001 C 7.394999999999999 0.5390000000000001 6.7269999999999985 0.6130000000000001 5.913999999999999 0.6130000000000001 Z M 5.914 -0.22999999999999998 C 6.644 -0.22999999999999998 7.234 -0.293 7.688 -0.426 C 8.172177489226884 -0.5676225629158679 8.63753022049066 -0.767059447743199 9.074000000000002 -1.0200000000000002 C 9.27 -1.133 9.366999999999999 -1.246 9.366999999999999 -1.367 C 9.369987058012077 -1.4535792028274173 9.335772231024066 -1.5372963326917022 9.273 -1.597 C 9.161302581527899 -1.7011131625257254 8.997834254366206 -1.7275681816557578 8.859 -1.6639999999999997 C 8.453365702023012 -1.4623704592947282 8.027704368791474 -1.3038367501462889 7.5889999999999995 -1.1909999999999992 C 7.091660621571303 -1.0718347964077246 6.581359934322272 -1.0153960107211966 6.069999999999999 -1.0230000000000006 C 4.95 -1.023 4.066000000000001 -1.309 3.418 -1.883 C 2.773 -2.453 2.3950000000000005 -3.2430000000000003 2.2780000000000005 -4.25 L 2.2270000000000003 -4.719 L 9.23 -4.719 C 9.379 -4.719 9.492 -4.758 9.57 -4.839 C 9.653785693554978 -4.926046148671574 9.698861549199032 -5.043243373346115 9.695 -5.164000000000001 C 9.695 -5.973000000000001 9.527000000000001 -6.714 9.195 -7.398000000000001 C 8.871 -8.066 8.395 -8.598 7.7700000000000005 -9 C 7.1450000000000005 -9.398 6.398000000000001 -9.598 5.531000000000001 -9.598 C 4.601000000000001 -9.598 3.8280000000000003 -9.383000000000001 3.2070000000000007 -8.957 C 2.5894340731276886 -8.540793227929726 2.1053390159314826 -7.95494791839601 1.8130000000000006 -7.27 C 1.5 -6.55 1.3479999999999999 -5.766 1.3479999999999999 -4.914 C 1.3479999999999999 -3.4099999999999997 1.746 -2.2539999999999996 2.543 -1.4409999999999998 C 3.343 -0.6329999999999998 4.465 -0.23099999999999987 5.914 -0.23099999999999987 Z M 7.961 -5.695 C 7.926 -6.25 7.785 -6.703 7.543 -7.066000000000001 C 7.3191363933567475 -7.405908896111481 7.007450681987083 -7.678893055736796 6.640999999999998 -7.856000000000002 C 6.2945518317392395 -8.022680222016886 5.915450449769741 -8.110454145590005 5.530999999999999 -8.113000000000001 C 5.156 -8.113000000000001 4.785 -8.027000000000001 4.417999999999999 -7.855000000000001 C 4.056412984723221 -7.67891721292222 3.749730532268854 -7.40750151373769 3.530999999999999 -7.07 C 3.2889999999999993 -6.707000000000001 3.1519999999999992 -6.250000000000001 3.116999999999999 -5.695000000000001 L 2.7 -5.723 L 2.7 -6.145 L 8.384 -6.145 L 8.384 -5.723 Z M 8.828 -5.301 L 2.25 -5.301 L 2.277 -5.75 C 2.3200000000000003 -6.453 2.504 -7.05 2.8280000000000003 -7.535 C 3.130480400881126 -8.002102763258524 3.5561419525714557 -8.37654650222514 4.058 -8.617 C 4.539 -8.844000000000001 5.031 -8.957 5.531 -8.957 C 6.026999999999999 -8.957 6.52 -8.844000000000001 7 -8.617 C 7.492 -8.387 7.906 -8.027000000000001 8.238 -7.539000000000001 C 8.57 -7.051 8.758 -6.453 8.801 -5.750000000000001 Z M 8.828 -5.301" stroke-linecap="round" />
</g>
		<g transform="matrix(1.33 0 0 1.33 -52.29 2.05)"  >
<path style="stroke: none; stroke-width: 1; stroke-dasharray: none; stroke-linecap: butt; stroke-dashoffset: 0; stroke-linejoin: miter; stroke-miterlimit: 4; fill: rgb(0,0,0); fill-rule: nonzero; opacity: 1;" vector-effect="non-scaling-stroke"  transform=" translate(-7.07, 6.68)" d="M 2.734 0.094 C 2.50524017408272 0.09805672032871242 2.2849283598868055 0.007616730921522624 2.125 -0.1560000000000001 C 1.9595840059950924 -0.31512352488159806 1.8688331416129038 -0.536555633974138 1.875 -0.7659999999999998 L 1.875 -12.562 C 1.875 -12.801 1.957 -13.008 2.125 -13.187999999999999 C 2.2803985884099203 -13.36045288537864 2.502896983622541 -13.457112024282484 2.7349999999999994 -13.453 L 7.125 -13.453 C 8.344 -13.453 9.335 -13.242999999999999 10.109 -12.828 C 10.879 -12.421999999999999 11.429 -11.895 11.766 -11.25 C 12.098 -10.602 12.266 -9.91 12.266 -9.172 C 12.266 -8.422 12.098 -7.722 11.766 -7.078000000000001 C 11.43 -6.441000000000001 10.879 -5.9140000000000015 10.109 -5.500000000000001 C 9.336 -5.094000000000001 8.344 -4.890000000000001 7.125 -4.890000000000001 L 3.625 -4.890000000000001 L 3.625 -0.7660000000000009 C 3.625 -0.5230000000000009 3.535 -0.3200000000000009 3.359 -0.15600000000000092 C 3.193288910790817 0.008792704689104425 2.967647826454309 0.09904913842370766 2.734 0.09399999999999908 Z M 6.954 -6.545999999999999 C 8.266 -6.545999999999999 9.187999999999999 -6.795999999999999 9.719 -7.295999999999999 C 10.25 -7.795999999999999 10.516 -8.421999999999999 10.516 -9.171999999999999 C 10.516 -9.909999999999998 10.25 -10.531999999999998 9.719 -11.031999999999998 C 9.187999999999999 -11.538999999999998 8.266 -11.796999999999999 6.952999999999999 -11.796999999999999 L 3.625 -11.796999999999999 L 3.625 -6.546999999999999 Z M 6.954 -6.545999999999999" stroke-linecap="round" />
</g>
		<g transform="matrix(1.33 0 0 1.33 -38.82 4.34)"  >
<path style="stroke: none; stroke-width: 1; stroke-dasharray: none; stroke-linecap: butt; stroke-dashoffset: 0; stroke-linejoin: miter; stroke-miterlimit: 4; fill: rgb(0,0,0); fill-rule: nonzero; opacity: 1;" vector-effect="non-scaling-stroke"  transform=" translate(-4.38, 4.96)" d="M 2.39 0.094 C 2.1565696836641983 0.099475578916089 1.931077117308203 0.009134005856796024 1.7659999999999998 -0.1560000000000001 C 1.6005840059950924 -0.31512352488159806 1.5098331416129038 -0.536555633974138 1.516 -0.7659999999999998 L 1.516 -9.03 C 1.516 -9.28 1.598 -9.487 1.766 -9.655 C 1.9263209740732248 -9.829513358547702 2.1540864700259883 -9.926450353625198 2.3909999999999996 -9.921 C 2.629 -9.921 2.836 -9.831 3.016 -9.655 C 3.189388202607997 -9.493967525359965 3.285798899622634 -9.266583805985821 3.281 -9.03 L 3.281 -8.202 C 4.176 -9.409 5.18 -10.015 6.297000000000001 -10.015 L 6.391000000000001 -10.015 C 6.641000000000001 -10.015 6.844000000000001 -9.929 7.000000000000001 -9.765 C 7.164000000000001 -9.597000000000001 7.250000000000001 -9.394 7.250000000000001 -9.155000000000001 C 7.250000000000001 -8.905000000000001 7.164000000000001 -8.702000000000002 7.000000000000001 -8.545000000000002 C 6.832000000000001 -8.397000000000002 6.617000000000001 -8.327000000000002 6.360000000000001 -8.327000000000002 L 6.266000000000001 -8.327000000000002 C 5.648000000000001 -8.327000000000002 5.082000000000001 -8.175000000000002 4.562000000000001 -7.874000000000001 C 4.043623707836703 -7.562942247457228 3.605262072764557 -7.134854713207085 3.282 -6.6240000000000006 L 3.282000000000001 -0.7640000000000011 C 3.282000000000001 -0.5220000000000011 3.192000000000001 -0.3190000000000011 3.016000000000001 -0.15500000000000114 C 2.847846771781408 0.006039554689193649 2.623827892633599 0.09564710634831725 2.391000000000001 0.09499999999999886 Z M 2.39 0.094" stroke-linecap="round" />
</g>
		<g transform="matrix(1.33 0 0 1.33 -31.61 1.77)"  >
<path style="stroke: none; stroke-width: 1; stroke-dasharray: none; stroke-linecap: butt; stroke-dashoffset: 0; stroke-linejoin: miter; stroke-miterlimit: 4; fill: rgb(0,0,0); fill-rule: nonzero; opacity: 1;" vector-effect="non-scaling-stroke"  transform=" translate(-2.41, 6.89)" d="M 2.344 -11.828 C 2.0863062254986247 -11.82583776377724 1.838496993980189 -11.92705054583637 1.656 -12.109 C 1.471696439707277 -12.296476346238855 1.3704464615237753 -12.550141772008198 1.375 -12.813 L 1.375 -12.891 C 1.375 -13.161 1.469 -13.391 1.6560000000000001 -13.578 C 1.8347426617292444 -13.76738512936362 2.0835856586780204 -13.874807178918541 2.3440000000000003 -13.875 L 2.4690000000000003 -13.875 C 2.7390000000000003 -13.875 2.9690000000000003 -13.773 3.1560000000000006 -13.578 C 3.34767527166357 -13.40128855466134 3.4555799818320287 -13.15169079073632 3.4530000000000007 -12.891 L 3.4530000000000007 -12.812 C 3.4550398831114277 -12.54676449431634 3.34759051656651 -12.292431481922142 3.1560000000000006 -12.109 C 2.975274281698607 -11.925125486755462 2.726769320149935 -11.823842532994723 2.4690000000000003 -11.829 Z M 2.39 0.094 C 2.156225359481015 0.09975120710458195 1.93031873478645 0.00938855722675605 1.7650000000000001 -0.1559999999999999 C 1.5995840059950925 -0.31512352488159806 1.508833141612904 -0.536555633974138 1.5150000000000001 -0.7659999999999998 L 1.5150000000000001 -9.03 C 1.5150000000000001 -9.28 1.5970000000000002 -9.487 1.7650000000000001 -9.655 C 1.9253209740732249 -9.829513358547702 2.1530864700259884 -9.926450353625198 2.3899999999999997 -9.921 C 2.6470000000000002 -9.921 2.862 -9.834999999999999 3.0300000000000002 -9.671 C 3.1940000000000004 -9.503 3.2800000000000002 -9.288 3.2800000000000002 -9.030999999999999 L 3.2800000000000002 -0.7649999999999988 C 3.2800000000000002 -0.5219999999999988 3.1900000000000004 -0.3189999999999988 3.015 -0.1549999999999988 C 2.846846771781407 0.006039554689195981 2.622827892633598 0.09564710634831958 2.3899999999999997 0.0950000000000012 Z M 2.39 0.094" stroke-linecap="round" />
</g>
		<g transform="matrix(1.33 0 0 1.33 -21.63 4.4)"  >
<path style="stroke: none; stroke-width: 1; stroke-dasharray: none; stroke-linecap: butt; stroke-dashoffset: 0; stroke-linejoin: miter; stroke-miterlimit: 4; fill: rgb(0,0,0); fill-rule: nonzero; opacity: 1;" vector-effect="non-scaling-stroke"  transform=" translate(-5.1, 4.91)" d="M 5.016 0.094 C 4.551621276222135 0.09683791824955813 4.131601865155543 -0.18133109905136433 3.9529999999999994 -0.6100000000000002 L 0.593 -8.625 C 0.5367049655989656 -8.753267799376292 0.505151561228381 -8.891017070069381 0.4999999999999998 -9.031 C 0.5 -9.281 0.582 -9.488000000000001 0.75 -9.656 C 0.9103209740732247 -9.830513358547703 1.1380864700259883 -9.927450353625199 1.3749999999999996 -9.922 C 1.539 -9.922 1.695 -9.875 1.8439999999999999 -9.782 C 1.9879999999999998 -9.687 2.094 -9.566 2.1559999999999997 -9.422 L 5.11 -1.953 L 8.048 -9.422 C 8.12106199282632 -9.570621958245901 8.234801483973254 -9.695457985114487 8.376 -9.782 C 8.520999999999999 -9.875 8.676 -9.922 8.844999999999999 -9.922 C 9.082999999999998 -9.922 9.286 -9.832 9.454999999999998 -9.656 C 9.619792704689104 -9.490288910790817 9.710049138423706 -9.26464782645431 9.704999999999998 -9.031 C 9.704999999999998 -8.914 9.672999999999998 -8.781 9.609999999999998 -8.625 L 6.266 -0.609 C 6.172 -0.41 6.023 -0.242 5.828 -0.10899999999999999 C 5.646241916700405 0.022794557695844153 5.427512315958289 0.09383793201688337 5.203 0.09399999999999997 Z M 5.016 0.094" stroke-linecap="round" />
</g>
		<g transform="matrix(1.33 0 0 1.33 -8.11 4.41)"  >
<path style="stroke: none; stroke-width: 1; stroke-dasharray: none; stroke-linecap: butt; stroke-dashoffset: 0; stroke-linejoin: miter; stroke-miterlimit: 4; fill: rgb(0,0,0); fill-rule: nonzero; opacity: 1;" vector-effect="non-scaling-stroke"  transform=" translate(-5.15, 4.91)" d="M 4.031 0.188 C 3.4858591371559506 0.1931156511182955 2.946548919619138 0.07554739076806541 2.4529999999999994 -0.15599999999999986 C 1.9852729811912888 -0.37358505799931596 1.5896676583203722 -0.7206072710439797 1.3129999999999993 -1.1560000000000006 C 1.03 -1.602 0.89 -2.117 0.89 -2.703 C 0.89 -3.6479999999999997 1.2650000000000001 -4.406 2.015 -4.968999999999999 C 2.765 -5.531 3.862 -5.811999999999999 5.311 -5.811999999999999 L 7.654999999999999 -5.811999999999999 L 7.654999999999999 -5.968999999999999 C 7.654999999999999 -6.819999999999999 7.4399999999999995 -7.428999999999999 7.015 -7.797 C 6.5969999999999995 -8.172 5.944999999999999 -8.359 5.061 -8.359 C 4.569 -8.359 4.14 -8.316 3.7649999999999997 -8.234 C 3.3899999999999997 -8.16 2.9679999999999995 -8.051 2.4989999999999997 -7.906 C 2.418206396972667 -7.878981035219116 2.3340897524683064 -7.8631671060522965 2.2489999999999997 -7.859 C 2.0618848891576813 -7.858053364015101 1.882047163107806 -7.9314271562434495 1.7489999999999997 -8.063 C 1.613582449469429 -8.205665276100792 1.5405370852945588 -8.396374847591831 1.5459999999999996 -8.593 C 1.5459999999999996 -8.938 1.7099999999999995 -9.18 2.0459999999999994 -9.328 C 3.098244499962119 -9.777317869488522 4.229848557725224 -10.011255246814548 5.373999999999997 -10.015999999999998 C 6.256999999999999 -10.016 7.002999999999998 -9.832 7.607999999999999 -9.469 C 8.222 -9.113 8.674999999999999 -8.649 8.967999999999998 -8.078999999999999 C 9.256999999999998 -7.503999999999999 9.404999999999998 -6.882999999999999 9.404999999999998 -6.2189999999999985 L 9.404999999999998 -0.7659999999999982 C 9.404999999999998 -0.5229999999999982 9.314999999999998 -0.31999999999999823 9.139999999999997 -0.15599999999999825 C 8.971846771781404 0.005039554689196535 8.747827892633595 0.09464710634832013 8.514999999999997 0.09400000000000175 C 8.285894933809054 0.09833382596353621 8.06516822727528 0.007872060990677304 7.904999999999997 -0.15599999999999836 C 7.7395840059950896 -0.31512352488159634 7.648833141612901 -0.5365556339741362 7.654999999999997 -0.765999999999998 L 7.654999999999997 -1.2659999999999982 C 6.696 -0.296 5.488 0.188 4.031 0.188 Z M 4.688 -1.344 C 5.25 -1.344 5.789 -1.477 6.313 -1.75 C 6.821027080826206 -2.013779090013774 7.276254055985428 -2.3686730907522 7.656 -2.7969999999999997 L 7.656 -4.407 L 5.545999999999999 -4.407 C 3.608999999999999 -4.407 2.6409999999999996 -3.898 2.6409999999999996 -2.891 C 2.6409999999999996 -2.43 2.7969999999999997 -2.055 3.1089999999999995 -1.766 C 3.4219999999999997 -1.484 3.9449999999999994 -1.344 4.688 -1.344 Z M 4.688 -1.344" stroke-linecap="round" />
</g>
		<g transform="matrix(1.33 0 0 1.33 4.03 3.25)"  >
<path style="stroke: none; stroke-width: 1; stroke-dasharray: none; stroke-linecap: butt; stroke-dashoffset: 0; stroke-linejoin: miter; stroke-miterlimit: 4; fill: rgb(0,0,0); fill-rule: nonzero; opacity: 1;" vector-effect="non-scaling-stroke"  transform=" translate(-3.66, 5.78)" d="M 4.906 0.188 C 3.0309999999999997 0.188 2.094 -0.6559999999999999 2.094 -2.344 L 2.094 -8.328 L 0.734 -8.328 C 0.6370055116906884 -8.325000555797299 0.5424238414976006 -8.358550280318621 0.46900000000000003 -8.421999999999999 C 0.3961474637763032 -8.490554358106259 0.3561110283582452 -8.587005770704307 0.359 -8.687 C 0.359 -8.812999999999999 0.422 -8.921999999999999 0.5469999999999999 -9.016 L 3.157 -11.578 C 3.27 -11.690999999999999 3.379 -11.75 3.484 -11.75 C 3.5867131197621287 -11.74938358642195 3.68397079787747 -11.703679790315116 3.75 -11.625 C 3.82 -11.551 3.86 -11.461 3.86 -11.359 L 3.86 -9.829 L 6.03 -9.829 C 6.2490000000000006 -9.829 6.425000000000001 -9.754000000000001 6.562 -9.609 C 6.707184943242759 -9.471685027227077 6.786552314708593 -9.278727656232158 6.78 -9.079 C 6.78 -8.867 6.706 -8.691 6.562 -8.547 C 6.4254813702794005 -8.399345691600995 6.230904255431261 -8.319247217631554 6.03 -8.328000000000001 L 3.86 -8.328000000000001 L 3.86 -2.5 C 3.86 -2 3.9739999999999998 -1.6800000000000002 4.204 -1.5470000000000002 C 4.442 -1.4100000000000001 4.744 -1.344 5.109999999999999 -1.344 C 5.359999999999999 -1.344 5.613999999999999 -1.383 5.8759999999999994 -1.469 C 5.925999999999999 -1.477 5.978 -1.489 6.031999999999999 -1.5 C 6.094999999999999 -1.508 6.171999999999999 -1.516 6.2669999999999995 -1.516 C 6.441999999999999 -1.516 6.598999999999999 -1.446 6.734999999999999 -1.312 C 6.879999999999999 -1.187 6.954999999999999 -1.0230000000000001 6.954999999999999 -0.8280000000000001 C 6.954999999999999 -0.5350000000000001 6.804999999999999 -0.31300000000000006 6.5169999999999995 -0.15600000000000003 C 6.0169999999999995 0.06999999999999998 5.476999999999999 0.18799999999999994 4.906999999999999 0.18799999999999994 Z M 4.906 0.188" stroke-linecap="round" />
</g>
		<g transform="matrix(1.33 0 0 1.33 16.14 4.41)"  >
<path style="stroke: none; stroke-width: 1; stroke-dasharray: none; stroke-linecap: butt; stroke-dashoffset: 0; stroke-linejoin: miter; stroke-miterlimit: 4; fill: rgb(0,0,0); fill-rule: nonzero; opacity: 1;" vector-effect="non-scaling-stroke"  transform=" translate(-5.52, 4.91)" d="M 5.922 0.188 C 4.348 0.188 3.1169999999999995 -0.254 2.2339999999999995 -1.141 C 1.36 -2.035 0.922 -3.289 0.922 -4.906 C 0.922 -5.819999999999999 1.086 -6.664 1.4220000000000002 -7.438 C 1.7540000000000002 -8.206999999999999 2.266 -8.828 2.9530000000000003 -9.297 C 3.648 -9.773 4.508 -10.016 5.531000000000001 -10.016 C 6.477 -10.016 7.297000000000001 -9.789 7.984 -9.344 C 8.668738102390694 -8.918865201620648 9.216835395810245 -8.305857082444632 9.562999999999999 -7.578000000000001 C 9.926 -6.835999999999999 10.109 -6.031 10.109 -5.155999999999999 C 10.115380217194083 -4.929612474079176 10.031150632871778 -4.7100396260594914 9.875 -4.5459999999999985 C 9.719 -4.378999999999999 9.504 -4.2959999999999985 9.235 -4.2959999999999985 L 2.702 -4.2959999999999985 C 2.796 -3.3979999999999984 3.124 -2.6959999999999984 3.687 -2.1869999999999985 C 4.257 -1.6869999999999985 5.05 -1.4369999999999985 6.061 -1.4369999999999985 C 6.601 -1.4369999999999985 7.077 -1.4879999999999984 7.483 -1.5939999999999985 C 7.89 -1.6949999999999985 8.283999999999999 -1.8479999999999985 8.671 -2.0469999999999984 C 8.778049809750186 -2.0993717504363403 8.895830791998923 -2.1260779033880883 9.014999999999999 -2.1249999999999982 C 9.222 -2.1249999999999982 9.396999999999998 -2.0509999999999984 9.544999999999998 -1.9059999999999981 C 9.699829995234586 -1.7738143713440353 9.786275368656588 -1.5784846126755971 9.779999999999998 -1.3749999999999984 C 9.779999999999998 -1.0819999999999983 9.611999999999998 -0.8439999999999982 9.279999999999998 -0.6559999999999983 C 8.779999999999998 -0.3749999999999982 8.283999999999997 -0.15999999999999825 7.795999999999998 -0.015999999999998238 C 7.315999999999997 0.11700000000000177 6.689999999999998 0.18800000000000175 5.920999999999998 0.18800000000000175 Z M 8.375 -5.72 C 8.344 -6.353 8.18 -6.88 7.891 -7.298 C 7.622656798660756 -7.702136644554923 7.249762047247584 -8.02595720254764 6.811999999999999 -8.235 C 6.412545349522971 -8.427435050130525 5.975379607886254 -8.52887116361967 5.532 -8.532 C 5.094 -8.532 4.66 -8.431 4.234 -8.235 C 3.816 -8.036 3.461 -7.723999999999999 3.1719999999999997 -7.297999999999999 C 2.8909999999999996 -6.879999999999999 2.7339999999999995 -6.352999999999999 2.703 -5.719999999999999 Z M 8.375 -5.72" stroke-linecap="round" />
</g>
		<g transform="matrix(1.33 0 0 1.33 32.74 1.99)"  >
<path style="stroke: none; stroke-width: 1; stroke-dasharray: none; stroke-linecap: butt; stroke-dashoffset: 0; stroke-linejoin: miter; stroke-miterlimit: 4; fill: rgb(0,0,0); fill-rule: nonzero; opacity: 1;" vector-effect="non-scaling-stroke"  transform=" translate(-7.27, 6.73)" d="M 2.734 0.094 C 2.50524017408272 0.09805672032871242 2.2849283598868055 0.007616730921522624 2.125 -0.1560000000000001 C 1.9595840059950924 -0.31512352488159806 1.8688331416129038 -0.536555633974138 1.875 -0.7659999999999998 L 1.875 -12.656 C 1.875 -12.906 1.957 -13.113000000000001 2.125 -13.281 C 2.2802158323558994 -13.453823216384215 2.502739513597057 -13.550858133122164 2.7349999999999994 -13.547 C 2.985 -13.547 3.191 -13.457 3.359 -13.281 C 3.532757411066384 -13.12014603662343 3.629542160378697 -12.892738260983597 3.625 -12.656 L 3.625 -7.531000000000001 L 10.922 -7.531000000000001 L 10.922 -12.656 C 10.922 -12.906 11.004000000000001 -13.113000000000001 11.172 -13.281 C 11.332320974073225 -13.455513358547703 11.560086470025988 -13.552450353625199 11.797 -13.547 C 12.035 -13.547 12.238000000000001 -13.457 12.407 -13.281 C 12.580388202607997 -13.119967525359966 12.676798899622634 -12.892583805985824 12.672 -12.656 L 12.672 -0.766 C 12.672 -0.523 12.582 -0.32 12.406 -0.15600000000000003 C 12.244965841650203 0.0065822073202659315 12.024816724937365 0.09680725515339605 11.796000000000001 0.09399999999999986 C 11.562569683664199 0.09947557891608907 11.337077117308203 0.009134005856796024 11.172 -0.15600000000000014 C 11.006584005995093 -0.3151235248815981 10.915833141612904 -0.536555633974138 10.922 -0.7659999999999998 L 10.922 -5.89 L 3.625 -5.89 L 3.625 -0.7649999999999997 C 3.625 -0.5219999999999997 3.535 -0.3189999999999997 3.359 -0.1549999999999997 C 3.193288910790817 0.009792704689105647 2.967647826454309 0.10004913842370888 2.734 0.0950000000000003 Z M 2.734 0.094" stroke-linecap="round" />
</g>
		<g transform="matrix(1.33 0 0 1.33 49.88 4.41)"  >
<path style="stroke: none; stroke-width: 1; stroke-dasharray: none; stroke-linecap: butt; stroke-dashoffset: 0; stroke-linejoin: miter; stroke-miterlimit: 4; fill: rgb(0,0,0); fill-rule: nonzero; opacity: 1;" vector-effect="non-scaling-stroke"  transform=" translate(-5.85, 4.91)" d="M 5.86 0.188 C 4.866 0.188 4 -0.02 3.25 -0.438 C 2.514594922184085 -0.8572858021738572 1.9172604638339847 -1.4817244418801565 1.5309999999999993 -2.2350000000000003 C 1.125 -3.017 0.9209999999999999 -3.907 0.9209999999999999 -4.907 C 0.9209999999999999 -5.915 1.125 -6.806 1.531 -7.579000000000001 C 1.9129323260238091 -8.335089942402096 2.511360653386692 -8.960323959821372 3.25 -9.375 C 4 -9.801 4.867 -10.015 5.859999999999999 -10.015 C 6.835999999999999 -10.015 7.694999999999999 -9.801 8.437 -9.375 C 9.18208936002053 -8.96306689285934 9.786470909518318 -8.33708784706826 10.172 -7.577999999999998 C 10.578 -6.805000000000001 10.781999999999998 -5.914000000000001 10.781999999999998 -4.906000000000001 C 10.781999999999998 -3.9060000000000006 10.577999999999998 -3.016000000000001 10.171999999999999 -2.2340000000000004 C 9.7818653369402 -1.478459815771389 9.178613777151101 -0.8539988351482066 8.437 -0.43800000000000017 C 7.696 -0.02 6.837 0.188 5.86 0.188 Z M 5.86 -1.4060000000000001 C 6.3790000000000004 -1.4060000000000001 6.8790000000000004 -1.5230000000000001 7.36 -1.766 C 7.848000000000001 -2.016 8.25 -2.398 8.562000000000001 -2.9219999999999997 C 8.875000000000002 -3.453 9.032000000000002 -4.125 9.032000000000002 -4.936999999999999 C 9.032000000000002 -5.726999999999999 8.875000000000002 -6.382999999999999 8.562000000000001 -6.906999999999999 C 8.250000000000002 -7.436999999999999 7.848000000000001 -7.819999999999999 7.359000000000001 -8.062 C 6.405185283323225 -8.539923183626863 5.281814716676772 -8.539923183626863 4.327999999999997 -8.061999999999998 C 3.848000000000001 -7.819999999999999 3.453000000000001 -7.436999999999999 3.141000000000001 -6.906 C 2.8280000000000007 -6.383 2.671000000000001 -5.726 2.671000000000001 -4.938 C 2.671000000000001 -4.125 2.828000000000001 -3.4529999999999994 3.141000000000001 -2.9219999999999997 C 3.4530000000000007 -2.3979999999999997 3.8480000000000008 -2.0159999999999996 4.328000000000001 -1.7659999999999998 C 4.8050000000000015 -1.5229999999999997 5.316000000000001 -1.4059999999999997 5.859000000000001 -1.4059999999999997 Z M 5.86 -1.4060000000000001" stroke-linecap="round" />
</g>
		<g transform="matrix(1.33 0 0 1.33 65.45 4.47)"  >
<path style="stroke: none; stroke-width: 1; stroke-dasharray: none; stroke-linecap: butt; stroke-dashoffset: 0; stroke-linejoin: miter; stroke-miterlimit: 4; fill: rgb(0,0,0); fill-rule: nonzero; opacity: 1;" vector-effect="non-scaling-stroke"  transform=" translate(-5.81, 4.87)" d="M 4.875 0.188 C 4.165 0.188 3.551 0.01999999999999999 3.0309999999999997 -0.312 C 2.509906635351996 -0.6429741505656843 2.092897692411338 -1.1144057070073252 1.827999999999999 -1.6720000000000004 C 1.5528061650247307 -2.269300687204237 1.4141144663026495 -2.9204001398256247 1.4219999999999982 -3.5779999999999994 L 1.4219999999999997 -9.063 C 1.4181678690817647 -9.294966693089018 1.515223391037526 -9.51717275651405 1.6879999999999997 -9.672 C 1.8553910182936528 -9.834219263105894 2.079910460472945 -9.924027039977611 2.3129999999999997 -9.922 C 2.5509999999999997 -9.922 2.7529999999999997 -9.836 2.9219999999999997 -9.672 C 3.086 -9.504000000000001 3.1719999999999997 -9.301 3.1719999999999997 -9.062000000000001 L 3.1719999999999997 -3.782000000000001 C 3.1719999999999997 -2.2070000000000007 3.8789999999999996 -1.422000000000001 5.297 -1.422000000000001 C 5.941 -1.422000000000001 6.516 -1.586000000000001 7.016 -1.922000000000001 C 7.523 -2.254000000000001 8.004 -2.707000000000001 8.453 -3.282000000000001 L 8.453 -9.062000000000001 C 8.448876012574145 -9.294313551493708 8.545956995958969 -9.516942874293493 8.719 -9.672 C 8.886391018293653 -9.834219263105894 9.110910460472944 -9.924027039977611 9.344 -9.922 C 9.581999999999999 -9.922 9.785 -9.836 9.953999999999999 -9.672 C 10.116999999999999 -9.504000000000001 10.203999999999999 -9.301 10.203999999999999 -9.062000000000001 L 10.203999999999999 -0.7970000000000006 C 10.20750158804707 -0.5591941621121257 10.117764603548522 -0.32946748179584673 9.953999999999999 -0.1570000000000007 C 9.7929658416502 0.0055822073202653755 9.572816724937363 0.0958072551533955 9.344 0.0929999999999993 C 9.110910460472946 0.09502703997760967 8.886391018293653 0.005219263105892907 8.719 -0.15700000000000047 C 8.544593893227091 -0.32365130296324707 8.448097329458916 -0.5558234864656263 8.453 -0.7970000000000004 L 8.453 -1.5780000000000007 C 7.999194757263616 -1.0646310670769972 7.466523028563726 -0.6268140631962886 6.875 -0.28099999999999925 C 6.312 0.030999999999999972 5.645 0.18799999999999994 4.875 0.18799999999999994 Z M 4.875 0.188" stroke-linecap="round" />
</g>
		<g transform="matrix(1.33 0 0 1.33 79.53 4.4)"  >
<path style="stroke: none; stroke-width: 1; stroke-dasharray: none; stroke-linecap: butt; stroke-dashoffset: 0; stroke-linejoin: miter; stroke-miterlimit: 4; fill: rgb(0,0,0); fill-rule: nonzero; opacity: 1;" vector-effect="non-scaling-stroke"  transform=" translate(-4.64, 4.91)" d="M 4.703 0.188 C 3.4220000000000006 0.188 2.2500000000000004 -0.09799999999999998 1.1870000000000003 -0.6719999999999999 C 0.9746817106910769 -0.8145547889761231 0.8507373355320582 -1.056397472213233 0.8590000000000002 -1.3119999999999998 C 0.8551621842905636 -1.5122108940335934 0.9348770344079051 -1.7049758952264378 1.079 -1.8439999999999996 C 1.2184528817170646 -1.9974904713799027 1.4176773264372673 -2.0828723762599894 1.625 -2.078 C 1.7438242781599143 -2.0760473357626665 1.8609542626134146 -2.049488792776117 1.9689999999999999 -2 C 2.3750000000000004 -1.8199999999999998 2.7810000000000006 -1.6799999999999997 3.1870000000000003 -1.5779999999999998 C 3.6020000000000003 -1.4729999999999999 4.067 -1.422 4.578 -1.422 C 6.0040000000000004 -1.422 6.718 -1.879 6.718 -2.7969999999999997 C 6.718 -3.086 6.551 -3.312 6.218 -3.469 C 5.895 -3.625 5.3629999999999995 -3.7969999999999997 4.625 -3.984 C 3.863 -4.16 3.2350000000000003 -4.344 2.7350000000000003 -4.531 C 2.2480167647206604 -4.722374908116337 1.8139207006686893 -5.027545126920645 1.4690000000000003 -5.4209999999999985 C 1.113 -5.817 0.937 -6.333 0.937 -6.97 C 0.937 -7.8759999999999994 1.2570000000000001 -8.61 1.907 -9.173 C 2.5620000000000003 -9.735 3.492 -10.017 4.702999999999999 -10.017 C 5.656769066475425 -10.021020424318365 6.603717277834356 -9.856142419694912 7.499999999999998 -9.530000000000001 C 7.66664018911777 -9.483033637302704 7.810776882905974 -9.377593740615273 7.906 -9.232999999999999 C 8 -9.097 8.046 -8.953 8.046 -8.796 C 8.046 -8.596 7.972999999999999 -8.421 7.827999999999999 -8.264999999999999 C 7.688106997980872 -8.111422213847282 7.488697250395382 -8.025752578230115 7.281 -8.03 C 7.195871024902003 -8.033831646986856 7.111708320972731 -8.04965423532556 7.031 -8.077 C 6.3178302098203805 -8.3004565154742 5.575343809621928 -8.416396289268238 4.828000000000003 -8.421 C 4.140999999999999 -8.421 3.5979999999999994 -8.296 3.2029999999999994 -8.046 C 2.8159999999999994 -7.795999999999999 2.6249999999999996 -7.4719999999999995 2.6249999999999996 -7.076999999999999 C 2.6249999999999996 -6.6899999999999995 2.8009999999999997 -6.404999999999999 3.1559999999999997 -6.216999999999999 C 3.5199999999999996 -6.0379999999999985 4.077999999999999 -5.866999999999999 4.827999999999999 -5.701999999999999 C 5.585999999999999 -5.501999999999999 6.202999999999999 -5.311999999999999 6.672 -5.123999999999999 C 7.148 -4.943999999999999 7.561999999999999 -4.6549999999999985 7.906 -4.248999999999999 C 8.25 -3.8509999999999986 8.422 -3.3189999999999986 8.422 -2.6549999999999985 C 8.422 -1.8309999999999986 8.094000000000001 -1.1469999999999985 7.437 -0.6079999999999983 C 6.789000000000001 -0.07799999999999829 5.8790000000000004 0.18800000000000172 4.703 0.18800000000000172 Z M 4.703 0.188" stroke-linecap="round" />
</g>
		<g transform="matrix(1.33 0 0 1.33 93.02 4.41)"  >
<path style="stroke: none; stroke-width: 1; stroke-dasharray: none; stroke-linecap: butt; stroke-dashoffset: 0; stroke-linejoin: miter; stroke-miterlimit: 4; fill: rgb(0,0,0); fill-rule: nonzero; opacity: 1;" vector-effect="non-scaling-stroke"  transform=" translate(-5.52, 4.91)" d="M 5.922 0.188 C 4.348 0.188 3.1169999999999995 -0.254 2.2339999999999995 -1.141 C 1.36 -2.035 0.922 -3.289 0.922 -4.906 C 0.922 -5.819999999999999 1.086 -6.664 1.4220000000000002 -7.438 C 1.7540000000000002 -8.206999999999999 2.266 -8.828 2.9530000000000003 -9.297 C 3.648 -9.773 4.508 -10.016 5.531000000000001 -10.016 C 6.477 -10.016 7.297000000000001 -9.789 7.984 -9.344 C 8.668738102390694 -8.918865201620648 9.216835395810245 -8.305857082444632 9.562999999999999 -7.578000000000001 C 9.926 -6.835999999999999 10.109 -6.031 10.109 -5.155999999999999 C 10.115380217194083 -4.929612474079176 10.031150632871778 -4.7100396260594914 9.875 -4.5459999999999985 C 9.719 -4.378999999999999 9.504 -4.2959999999999985 9.235 -4.2959999999999985 L 2.702 -4.2959999999999985 C 2.796 -3.3979999999999984 3.124 -2.6959999999999984 3.687 -2.1869999999999985 C 4.257 -1.6869999999999985 5.05 -1.4369999999999985 6.061 -1.4369999999999985 C 6.601 -1.4369999999999985 7.077 -1.4879999999999984 7.483 -1.5939999999999985 C 7.89 -1.6949999999999985 8.283999999999999 -1.8479999999999985 8.671 -2.0469999999999984 C 8.778049809750186 -2.0993717504363403 8.895830791998923 -2.1260779033880883 9.014999999999999 -2.1249999999999982 C 9.222 -2.1249999999999982 9.396999999999998 -2.0509999999999984 9.544999999999998 -1.9059999999999981 C 9.699829995234586 -1.7738143713440353 9.786275368656588 -1.5784846126755971 9.779999999999998 -1.3749999999999984 C 9.779999999999998 -1.0819999999999983 9.611999999999998 -0.8439999999999982 9.279999999999998 -0.6559999999999983 C 8.779999999999998 -0.3749999999999982 8.283999999999997 -0.15999999999999825 7.795999999999998 -0.015999999999998238 C 7.315999999999997 0.11700000000000177 6.689999999999998 0.18800000000000175 5.920999999999998 0.18800000000000175 Z M 8.375 -5.72 C 8.344 -6.353 8.18 -6.88 7.891 -7.298 C 7.622656798660756 -7.702136644554923 7.249762047247584 -8.02595720254764 6.811999999999999 -8.235 C 6.412545349522971 -8.427435050130525 5.975379607886254 -8.52887116361967 5.532 -8.532 C 5.094 -8.532 4.66 -8.431 4.234 -8.235 C 3.816 -8.036 3.461 -7.723999999999999 3.1719999999999997 -7.297999999999999 C 2.8909999999999996 -6.879999999999999 2.7339999999999995 -6.352999999999999 2.703 -5.719999999999999 Z M 8.375 -5.72" stroke-linecap="round" />
</g>
</g>
</g>
</svg>
