<?xml version="1.0" encoding="UTF-8"?>
<svg version="1.1" xmlns="http://www.w3.org/2000/svg" width="524" height="104">
<path d="M0 0 C172.92 0 345.84 0 524 0 C524 34.32 524 68.64 524 104 C351.08 104 178.16 104 0 104 C0 69.68 0 35.36 0 0 Z " fill="#FDFDFD" transform="translate(0,0)"/>
<path d="M0 0 C5.54343369 2.98565959 10.16212475 7.54813535 14.73632812 11.81982422 C15.31791687 12.3628418 15.89950562 12.90585937 16.49871826 13.46533203 C23.56837419 20.27371861 28.26240879 26.1131474 28.76696777 36.15765381 C28.82165153 42.48409897 28.31398946 48.88000029 26.98632812 55.06982422 C25.98632812 56.06982422 25.98632812 56.06982422 24.22045898 56.18334961 C23.47159424 56.17811279 22.72272949 56.17287598 21.95117188 56.16748047 C20.85857056 56.16373413 20.85857056 56.16373413 19.74389648 56.15991211 C18.81327393 56.15080811 17.88265137 56.1417041 16.92382812 56.13232422 C12.49976562 56.10138672 12.49976562 56.10138672 7.98632812 56.06982422 C7.65632813 49.46982422 7.32632813 42.86982422 6.98632812 36.06982422 C2.03632812 35.73982422 -2.91367188 35.40982422 -8.01367188 35.06982422 C-8.01367188 41.99982422 -8.01367188 48.92982422 -8.01367188 56.06982422 C-11.12804687 56.09044922 -14.24242188 56.11107422 -17.45117188 56.13232422 C-18.43400146 56.14142822 -19.41683105 56.15053223 -20.42944336 56.15991211 C-21.19844971 56.16240967 -21.96745605 56.16490723 -22.75976562 56.16748047 C-23.5505249 56.17271729 -24.34128418 56.1779541 -25.15600586 56.18334961 C-27.01367188 56.06982422 -27.01367188 56.06982422 -28.01367188 55.06982422 C-30.12761616 45.57522248 -31.94057347 32.99595416 -26.88848877 24.08526611 C-23.5343464 19.29292791 -19.50522346 15.201083 -15.26367188 11.19482422 C-14.65897064 10.61999298 -14.05426941 10.04516174 -13.4312439 9.45291138 C-11.67714881 7.81646883 -9.89824307 6.21848785 -8.09179688 4.64013672 C-7.5435878 4.15827408 -6.99537872 3.67641144 -6.43055725 3.1799469 C-2.6797071 0.09291904 -2.6797071 0.09291904 0 0 Z " fill="#2464F6" transform="translate(77.013671875,24.93017578125)"/>
<path d="M0 0 C0.76207764 0.00555908 1.52415527 0.01111816 2.30932617 0.0168457 C3.08107178 0.02176025 3.85281738 0.0266748 4.64794922 0.03173828 C10.12413399 0.14479874 14.34349835 0.57671812 19.18432617 3.3293457 C22.35618991 6.66386912 24.08010145 8.97442428 24.43432617 13.5793457 C24.15310824 17.7976147 23.63394623 19.8845675 21.18432617 23.3293457 C14.87503856 28.67816434 6.9791968 27.72346838 -0.81567383 27.3293457 C-0.80407227 28.25618164 -0.7924707 29.18301758 -0.78051758 30.13793945 C-0.77149414 31.33547852 -0.7624707 32.53301758 -0.75317383 33.7668457 C-0.74157227 34.96180664 -0.7299707 36.15676758 -0.71801758 37.38793945 C-0.81567383 40.3293457 -0.81567383 40.3293457 -1.81567383 41.3293457 C-4.31567383 41.4543457 -4.31567383 41.4543457 -6.81567383 41.3293457 C-8.88568703 39.25933251 -7.97977078 34.84168646 -7.98364258 31.98950195 C-7.98697098 31.15221054 -7.99029938 30.31491913 -7.99372864 29.45225525 C-7.99880139 27.67764843 -8.00113686 25.90303203 -8.00097656 24.12841797 C-8.0031618 21.40682314 -8.02131016 18.68563428 -8.0402832 15.96411133 C-8.04321725 14.2434096 -8.04520197 12.52270593 -8.04614258 10.80200195 C-8.05332809 9.98425797 -8.06051361 9.16651398 -8.06791687 8.32398987 C-8.03975343 1.39066752 -6.99849552 0.0915808 0 0 Z " fill="#070707" transform="translate(136.815673828125,30.670654296875)"/>
<path d="M0 0 C4.65702344 2.45552145 8.31667974 4.95003921 10 10 C10.59610204 17.30224993 10.37549075 22.89070692 5.5625 28.75 C1.68894746 31.84884203 -1.75486875 32.49926067 -6.6171875 32.37890625 C-12.01372451 31.5207684 -15.79570944 28.61826544 -19 24.3125 C-20.75253941 18.50721319 -21.21656805 12.65357382 -18.375 7.125 C-13.28726147 0.4306072 -8.17054404 -1.34182918 0 0 Z " fill="#0A0A0A" transform="translate(369,41)"/>
<path d="M0 0 C4.875 0.875 4.875 0.875 6 2 C6.07320163 4.5327765 6.09227569 7.03103918 6.0625 9.5625 C6.041875 12.016875 6.02125 14.47125 6 17 C11.94 17 17.88 17 24 17 C23.95875 14.751875 23.9175 12.50375 23.875 10.1875 C23.75 3.375 23.75 3.375 26 0 C30.875 0.875 30.875 0.875 32 2 C32.10103255 4.79993597 32.13970088 7.57468644 32.1328125 10.375 C32.13376923 11.21466309 32.13472595 12.05432617 32.13571167 12.91943359 C32.13639348 14.69824295 32.13453917 16.47705477 32.13037109 18.25585938 C32.12502283 20.98833776 32.13031605 23.72065176 32.13671875 26.453125 C32.13605797 28.1770837 32.13477681 29.90104229 32.1328125 31.625 C32.13483673 32.44790527 32.13686096 33.27081055 32.13894653 34.11865234 C32.11495054 39.88504946 32.11495054 39.88504946 31 41 C28.5 41.125 28.5 41.125 26 41 C25 40 25 40 24.90234375 36.40234375 C24.90808728 34.91402745 24.92110109 33.42573704 24.9375 31.9375 C24.958125 29.318125 24.97875 26.69875 25 24 C18.73 24 12.46 24 6 24 C6.03957157 29.22063275 6.03957157 29.22063275 6.09008789 34.44116211 C6.09723945 36.29433759 6.0502852 38.14749308 6 40 C5 41 5 41 2.5 41.125 C0 41 0 41 -1 40 C-1.10105822 37.21174652 -1.1396984 34.44879127 -1.1328125 31.66015625 C-1.13376923 30.82286484 -1.13472595 29.98557343 -1.13571167 29.12290955 C-1.13639355 27.34829636 -1.13453872 25.57368069 -1.13037109 23.79907227 C-1.1250296 21.0775798 -1.13031235 18.35625288 -1.13671875 15.63476562 C-1.13605784 13.91406213 -1.13477641 12.19335875 -1.1328125 10.47265625 C-1.13483673 9.65491226 -1.13686096 8.83716827 -1.13894653 7.99464417 C-1.11495507 2.22991015 -1.11495507 2.22991015 0 0 Z " fill="#060606" transform="translate(312,31)"/>
<path d="M0 0 C5.41721142 2.55528841 7.62020601 5.69122878 10 11 C10.375 14.3125 10.375 14.3125 10 17 C8 19 8 19 6.02880859 19.22705078 C5.24328613 19.21657715 4.45776367 19.20610352 3.6484375 19.1953125 C2.79765625 19.18886719 1.946875 19.18242188 1.0703125 19.17578125 C-0.26386719 19.15064453 -0.26386719 19.15064453 -1.625 19.125 C-2.5221875 19.11597656 -3.419375 19.10695313 -4.34375 19.09765625 C-6.56276586 19.0740497 -8.78125077 19.0411231 -11 19 C-7.53914581 23.01439305 -7.53914581 23.01439305 -2.625 24.375 C0.93639248 24.00658009 4.46623264 23.57694161 8 23 C8.33 24.65 8.66 26.3 9 28 C3.22512364 31.35992806 -1.28306149 33.17183999 -8 32 C-12.34934093 30.55307359 -14.62062301 28.48638075 -17.4375 24.875 C-19.66352708 20.38439992 -19.77094431 15.89313636 -19 11 C-17.64977959 7.01002284 -15.43651315 4.39590727 -12.3125 1.5625 C-8.02282595 -0.46093115 -4.66151794 -0.81179038 0 0 Z " fill="#090909" transform="translate(296,41)"/>
<path d="M0 0 C4.01475485 2.04387519 6.61496807 4.20158411 9 8 C9.35644531 10.35009766 9.35644531 10.35009766 9.328125 12.9140625 C9.32296875 13.83960938 9.3178125 14.76515625 9.3125 15.71875 C9.291875 16.6778125 9.27125 17.636875 9.25 18.625 C9.24484375 19.59179688 9.2396875 20.55859375 9.234375 21.5546875 C9.15464286 28.69071429 9.15464286 28.69071429 8 31 C3.25 31.125 3.25 31.125 1 30 C-0.0828125 30.4640625 -0.0828125 30.4640625 -1.1875 30.9375 C-5.29019456 32.48740683 -9.04254347 32.59811172 -13.25 31.3125 C-16.60439223 28.79670583 -17.8396623 26.09945851 -18.4375 22 C-17.88324529 18.19939625 -16.73740012 16.66341634 -14 14 C-9.4224942 11.17271701 -4.19735651 11.81834482 1 12 C0.67 11.01 0.34 10.02 0 9 C-3.69092256 7.15453872 -7.87461004 7.74991334 -11.8125 8.625 C-12.8953125 8.810625 -12.8953125 8.810625 -14 9 C-14.66 8.34 -15.32 7.68 -16 7 C-15.9375 5.0625 -15.9375 5.0625 -15 3 C-10.69943095 -0.88438495 -5.4805424 -0.79924577 0 0 Z " fill="#0C0C0C" transform="translate(244,41)"/>
<path d="M0 0 C4.81899576 2.36403566 7.56479358 5.22324894 10 10 C10.375 13.75 10.375 13.75 10 17 C8 19 8 19 6.12060547 19.22705078 C5.37697754 19.21657715 4.63334961 19.20610352 3.8671875 19.1953125 C3.06152344 19.18886719 2.25585938 19.18242188 1.42578125 19.17578125 C0.58402344 19.15902344 -0.25773437 19.14226563 -1.125 19.125 C-2.39923828 19.11146484 -2.39923828 19.11146484 -3.69921875 19.09765625 C-5.79959884 19.07405647 -7.89983444 19.03818483 -10 19 C-9.24849977 22.27773504 -9.24849977 22.27773504 -6 24 C-1.21908604 24.27582196 3.28311193 23.77010418 8 23 C8.33 24.65 8.66 26.3 9 28 C4.33507756 31.83190057 0.16792745 32.3474631 -5.75 32.2890625 C-10.35445332 31.69751815 -14.10407389 28.50559476 -17 25 C-19.09717289 18.70848134 -19.10697555 11.37794747 -16.3125 5.375 C-11.32728825 0.2550528 -7.04287817 -1.10744904 0 0 Z " fill="#0B0B0B" transform="translate(461,41)"/>
<path d="M0 0 C2.5 0.125 2.5 0.125 3.5 1.125 C3.63249264 2.58875483 3.70321995 4.05823029 3.74609375 5.52734375 C3.79540039 6.86249023 3.79540039 6.86249023 3.84570312 8.22460938 C3.90677086 10.11251184 3.96407887 12.00053977 4.01757812 13.88867188 C4.05173828 14.78005859 4.08589844 15.67144531 4.12109375 16.58984375 C4.1461499 17.410896 4.17120605 18.23194824 4.19702148 19.07788086 C4.32513388 21.34744153 4.32513388 21.34744153 6.5 23.125 C9.28727319 23.49174647 11.03716444 23.32530637 13.62109375 22.20703125 C16.68469093 18.81223437 16.13877795 14.91746579 16.1875 10.5 C16.22940614 8.75772044 16.2747885 7.01551982 16.32421875 5.2734375 C16.33541748 4.50177246 16.34661621 3.73010742 16.3581543 2.93505859 C16.5 1.125 16.5 1.125 17.5 0.125 C20 0 20 0 22.5 0.125 C24.33034055 1.95534055 23.63042797 4.85711992 23.6328125 7.3125 C23.63474609 9.19582031 23.63474609 9.19582031 23.63671875 11.1171875 C23.63357666 12.10283691 23.63357666 12.10283691 23.63037109 13.10839844 C23.62502234 15.11661335 23.63031691 17.12460459 23.63671875 19.1328125 C23.63542969 20.38835938 23.63414062 21.64390625 23.6328125 22.9375 C23.63168457 24.09894531 23.63055664 25.26039062 23.62939453 26.45703125 C23.5 29.125 23.5 29.125 22.5 30.125 C20.83394172 30.1700286 19.16621616 30.16374921 17.5 30.125 C13.7236068 29.8268576 13.7236068 29.8268576 11.5 31.125 C4.48028769 31.70038625 4.48028769 31.70038625 0.625 29.4375 C-4.31494237 24.06168036 -3.77625126 18.29759816 -3.6875 11.375 C-3.68685547 10.40433594 -3.68621094 9.43367188 -3.68554688 8.43359375 C-3.63361176 0.18168059 -3.63361176 0.18168059 0 0 Z " fill="#050505" transform="translate(387.5,41.875)"/>
<path d="M0 0 C3.625 1.5 3.625 1.5 6 3 C5.125 6.875 5.125 6.875 4 8 C0.92361996 7.9909385 -2.14109531 7.86674942 -5.21484375 7.7421875 C-6.13394531 7.82726563 -7.05304688 7.91234375 -8 8 C-8.99 9.485 -8.99 9.485 -10 11 C-9.27554687 11.15855469 -8.55109375 11.31710938 -7.8046875 11.48046875 C-1.69126433 12.95584154 2.82971848 14.15345661 7 19 C7.74265666 22.17316938 7.68918886 23.87745754 5.96875 26.6796875 C3.81752233 29.42119106 2.33513164 30.88828945 -1 32 C-5.91905166 32.51645809 -10.39884197 32.85442177 -14.625 30 C-15.40875 29.34 -16.1925 28.68 -17 28 C-16.67 26.35 -16.34 24.7 -16 23 C-11.05 23.33 -6.1 23.66 -1 24 C-1 23.01 -1 22.02 -1 21 C-1.58007812 20.90203125 -2.16015625 20.8040625 -2.7578125 20.703125 C-8.0883894 19.68275054 -11.74793843 18.40164926 -16 15 C-17.56935594 11.86128812 -17.35201103 9.46144178 -17 6 C-11.86696114 -0.21367862 -7.72499584 -0.70871521 0 0 Z " fill="#0B0B0B" transform="translate(433,41)"/>
<path d="M0 0 C4.37465643 1.35216653 6.35757879 3.50956134 9.40234375 6.84765625 C11.31372809 8.92780005 13.28453726 10.73816953 15.4375 12.5625 C18.9896527 15.61317232 22.27154387 18.86337702 25.5390625 22.21484375 C27.26082225 23.8905482 29.01783145 25.31250172 30.9375 26.75 C33.4375 29.0625 33.4375 29.0625 33.8125 31.875 C33.626875 32.9578125 33.626875 32.9578125 33.4375 34.0625 C28.02035117 33.76098893 25.619084 30.67053094 22.125 26.9375 C20.97327816 25.74423374 19.81964065 24.55281338 18.6640625 23.36328125 C18.11008789 22.7904541 17.55611328 22.21762695 16.98535156 21.62744141 C14.50207531 19.11674728 11.84633298 16.83591971 9.14453125 14.56640625 C7.36232563 12.99627086 5.79285663 11.31126318 4.1875 9.5625 C2.82625 8.325 2.82625 8.325 1.4375 7.0625 C-2.39437254 7.25006731 -4.25422877 9.41795081 -6.828125 12.0703125 C-7.63636719 12.89273437 -8.44460937 13.71515625 -9.27734375 14.5625 C-10.11394531 15.42875 -10.95054688 16.295 -11.8125 17.1875 C-21.32840045 26.95735698 -21.32840045 26.95735698 -25.921875 31.2421875 C-26.52999023 31.81437012 -27.13810547 32.38655273 -27.76464844 32.97607422 C-29.5625 34.0625 -29.5625 34.0625 -31.79003906 33.73876953 C-32.66740723 33.40401611 -32.66740723 33.40401611 -33.5625 33.0625 C-33.14768632 28.60591196 -30.05169113 26.17986345 -27 23.25 C-26.45496826 22.71592529 -25.90993652 22.18185059 -25.34838867 21.6315918 C-21.84053808 18.21906605 -18.24358172 14.94119713 -14.4921875 11.796875 C-12.16839539 9.70828452 -10.11789962 7.421174 -8 5.125 C-5.16690372 2.30160611 -3.89661118 1.16214719 0 0 Z " fill="#2B69F6" transform="translate(76.5625,12.9375)"/>
<path d="M0 0 C2.3125 -0.25 2.3125 -0.25 5 0 C7.93650383 3.11955862 9.17206769 6.70753511 10.625 10.6875 C11.8177082 14.63085991 11.8177082 14.63085991 14 18 C14.40992188 16.86820313 14.81984375 15.73640625 15.2421875 14.5703125 C15.78616785 13.088435 16.33045463 11.60666996 16.875 10.125 C17.27912109 9.00544922 17.27912109 9.00544922 17.69140625 7.86328125 C19.7734375 2.2265625 19.7734375 2.2265625 22 0 C24.625 -0.125 24.625 -0.125 27 0 C28.26154928 4.30318675 27.69762907 6.62272104 25.9453125 10.703125 C25.49542969 11.7653125 25.04554688 12.8275 24.58203125 13.921875 C23.86080078 15.56929687 23.86080078 15.56929687 23.125 17.25 C22.65191406 18.36375 22.17882812 19.4775 21.69140625 20.625 C18.18620069 28.81379931 18.18620069 28.81379931 17 30 C14.1875 30.4375 14.1875 30.4375 11 30 C7.26154049 25.29287082 5.01726784 19.94461119 2.6875 14.4375 C2.31560547 13.60025391 1.94371094 12.76300781 1.56054688 11.90039062 C-1.6569705 4.33293356 -1.6569705 4.33293356 0 0 Z " fill="#090909" transform="translate(197,42)"/>
<path d="M0 0 C0 1.98 0 3.96 0 6 C2.64 6 5.28 6 8 6 C8.33 7.65 8.66 9.3 9 11 C6 13 6 13 1 13 C1 18.61 1 24.22 1 30 C3.64 30 6.28 30 9 30 C9 31.65 9 33.3 9 35 C5.33755697 37.34396354 2.27605847 37.52512999 -2 37 C-4.88663574 34.95599493 -6.74672208 33.3926408 -7.39868164 29.80786133 C-7.49212614 27.25023203 -7.4364011 24.74367496 -7.3125 22.1875 C-7.27866211 20.86202148 -7.27866211 20.86202148 -7.24414062 19.50976562 C-7.18547428 17.3391109 -7.09579979 15.1693331 -7 13 C-8.32 12.67 -9.64 12.34 -11 12 C-11 8 -11 8 -9.35546875 5.859375 C-8.64003906 5.16328125 -7.92460937 4.4671875 -7.1875 3.75 C-6.12595703 2.69039062 -6.12595703 2.69039062 -5.04296875 1.609375 C-3 0 -3 0 0 0 Z " fill="#0F0F0F" transform="translate(267,36)"/>
<path d="M0 0 C0.66 0.66 1.32 1.32 2 2 C1.625 4.625 1.625 4.625 1 7 C-3.455 8.485 -3.455 8.485 -8 10 C-8.04898438 11.34835938 -8.09796875 12.69671875 -8.1484375 14.0859375 C-8.22346057 15.84897959 -8.29900859 17.61199939 -8.375 19.375 C-8.42140625 20.70917969 -8.42140625 20.70917969 -8.46875 22.0703125 C-8.52675781 23.34648438 -8.52675781 23.34648438 -8.5859375 24.6484375 C-8.6173584 25.43395996 -8.6487793 26.21948242 -8.68115234 27.02880859 C-9 29 -9 29 -11 31 C-13.625 31.125 -13.625 31.125 -16 31 C-17.3767748 28.2464504 -17.12969689 26.01159591 -17.1328125 22.93359375 C-17.13410156 21.72638672 -17.13539063 20.51917969 -17.13671875 19.27539062 C-17.13091797 17.37563477 -17.13091797 17.37563477 -17.125 15.4375 C-17.12886719 14.16712891 -17.13273438 12.89675781 -17.13671875 11.58789062 C-17.13542969 10.38197266 -17.13414062 9.17605469 -17.1328125 7.93359375 C-17.13168457 6.82040771 -17.13055664 5.70722168 -17.12939453 4.56030273 C-17 2 -17 2 -16 1 C-14.33394172 0.9549714 -12.66621616 0.96125079 -11 1 C-6.98485005 1 -4.04335129 -0.30325135 0 0 Z " fill="#0E0E0E" transform="translate(181,41)"/>
<path d="M0 0 C2.4375 0.1875 2.4375 0.1875 3.4375 1.1875 C3.53735642 3.16333828 3.56830794 5.14273478 3.5703125 7.12109375 C3.57224609 8.9299707 3.57224609 8.9299707 3.57421875 10.77539062 C3.57035156 12.04576172 3.56648437 13.31613281 3.5625 14.625 C3.56636719 15.89150391 3.57023438 17.15800781 3.57421875 18.46289062 C3.57292969 19.67009766 3.57164062 20.87730469 3.5703125 22.12109375 C3.56918457 23.23540771 3.56805664 24.34972168 3.56689453 25.49780273 C3.4375 28.1875 3.4375 28.1875 2.4375 30.1875 C0.0625 30.3125 0.0625 30.3125 -2.5625 30.1875 C-5.24737165 27.50262835 -4.82019449 26.12273019 -4.828125 22.375 C-4.83070313 21.21742187 -4.83328125 20.05984375 -4.8359375 18.8671875 C-4.82820312 17.65289062 -4.82046875 16.43859375 -4.8125 15.1875 C-4.82023438 13.97320312 -4.82796875 12.75890625 -4.8359375 11.5078125 C-4.83335937 10.35023437 -4.83078125 9.19265625 -4.828125 8 C-4.82586914 6.93394531 -4.82361328 5.86789063 -4.82128906 4.76953125 C-4.4624238 1.18900386 -3.60396919 0.26370506 0 0 Z " fill="#121212" transform="translate(189.5625,41.8125)"/>
<path d="M0 0 C2.85801731 1.98818595 4.61901083 3.47604331 5.484375 6.9375 C5.75559772 10.91543322 5.20860122 12.6902588 2.9375 16.0625 C0 18 0 18 -3.625 18 C-6.95925215 17.01207344 -7.98329345 16.67497871 -10 14 C-10.8392962 9.47082499 -10.81875537 5.32260482 -8.375 1.375 C-5.22568648 -0.44828677 -3.58638897 -0.6587245 0 0 Z " fill="#F7F7F7" transform="translate(367,48)"/>
<path d="M0 0 C2.27024968 -0.08097324 4.54132075 -0.13917704 6.8125 -0.1875 C8.07707031 -0.22230469 9.34164062 -0.25710937 10.64453125 -0.29296875 C14 0 14 0 15.91796875 1.32421875 C17.6534406 4.01200728 17.51712074 5.89727555 17 9 C11.64913502 13.19656504 6.5234232 12.21505791 0 12 C0 8.04 0 4.08 0 0 Z " fill="#FBFBFB" transform="translate(136,39)"/>
<path d="M0 0 C6.57692308 0.57692308 6.57692308 0.57692308 8 2 C8.45875252 7.27565392 8.45875252 7.27565392 6.8125 9.875 C4.31963619 11.42229478 2.88032665 11.50405716 0 11 C-1.875 9.3125 -1.875 9.3125 -3 7 C-2.75925978 3.62963689 -2.41201979 2.41201979 0 0 Z " fill="#F1F5FE" transform="translate(74,40)"/>
<path d="M0 0 C3.5625 0.3125 3.5625 0.3125 5.5 1.625 C6.5625 3.3125 6.5625 3.3125 6.5625 6.3125 C2.2725 6.3125 -2.0175 6.3125 -6.4375 6.3125 C-4.97238372 0.45203488 -4.97238372 0.45203488 0 0 Z " fill="#DBDBDB" transform="translate(291.4375,47.6875)"/>
<path d="M0 0 C1.37478516 0.01740234 1.37478516 0.01740234 2.77734375 0.03515625 C3.69644531 0.04417969 4.61554688 0.05320313 5.5625 0.0625 C6.27277344 0.07410156 6.98304688 0.08570313 7.71484375 0.09765625 C7.40234375 1.97265625 7.40234375 1.97265625 6.71484375 4.09765625 C3.27963895 6.38779278 1.72951275 6.27608598 -2.28515625 6.09765625 C-2.66734392 4.44150968 -2.99910727 2.77308601 -3.28515625 1.09765625 C-2.28515625 0.09765625 -2.28515625 0.09765625 0 0 Z " fill="#F6F6F6" transform="translate(237.28515625,59.90234375)"/>
<path d="M0 0 C4.55555556 0.55555556 4.55555556 0.55555556 6 2 C6.125 4.5 6.125 4.5 6 7 C5 8 5 8 1.9375 8.0625 C0.968125 8.041875 -0.00125 8.02125 -1 8 C-1.625 5.125 -1.625 5.125 -2 2 C-1.34 1.34 -0.68 0.68 0 0 Z " fill="#0B0B0B" transform="translate(187,30)"/>
<path d="M0 0 C1.875 1.375 1.875 1.375 3 3 C3 3.66 3 4.32 3 5 C-0.96 5 -4.92 5 -9 5 C-8.67 3.68 -8.34 2.36 -8 1 C-5.20129973 -0.39935013 -3.09501208 -0.25265405 0 0 Z " fill="#F7F7F7" transform="translate(460,48)"/>
</svg>
