<svg xmlns="http://www.w3.org/2000/svg" width="163" height="30" version="1.2" viewBox="0 0 80 16"><defs><clipPath id="a"><path d="M0 9.7h23.867v23.866H0Zm0 0"/></clipPath></defs><g clip-path="url(#a)"><path d="M12.242 13.738a.428.428 0 0 0-.312-.129.428.428 0 0 0-.313.13c-3.07 3.023-6.129 6.062-9.172 9.116a.69.69 0 0 0-.207.5v9.133a1.006 1.006 0 0 0 .344.703 1 1 0 0 0 .738.262h5.762v-6.816a.7.7 0 0 1 .207-.504.702.702 0 0 1 .508-.207h4.176c.195 0 .363.07.5.21.14.137.21.305.21.5v6.817h5.758a1 1 0 0 0 .742-.262.98.98 0 0 0 .243-.32c.058-.121.094-.25.101-.387v-9.172a.66.66 0 0 0-.207-.496Zm-.36 9.098c-.257 0-.507-.05-.741-.148a1.912 1.912 0 0 1-1.051-1.055 1.932 1.932 0 0 1-.145-.742 1.948 1.948 0 0 1 .59-1.368c.184-.18.395-.316.633-.414.238-.097.488-.148.746-.148.254.004.504.055.738.156a1.9 1.9 0 0 1 1.04 1.055c.097.238.144.484.144.742a1.944 1.944 0 0 1-.156.742 1.941 1.941 0 0 1-.422.625 1.952 1.952 0 0 1-1.375.555Zm11.891-2.293a1.1 1.1 0 0 1-.308.75c-.195.21-.438.328-.727.355a.822.822 0 0 1-.558-.312c-.598-.66-4.485-4.395-9.989-9.652a.397.397 0 0 0-.214-.114.345.345 0 0 0-.188.02.46.46 0 0 0-.164.094c-5.504 5.257-9.395 8.992-9.988 9.652a.822.822 0 0 1-.559.312 1.097 1.097 0 0 1-.726-.355 1.1 1.1 0 0 1-.309-.75.906.906 0 0 1 .297-.582c3.515-3.3 7.023-6.606 10.531-9.906.266-.215.566-.332.91-.352.016 0 .078-.004.156 0 .376.012.711.129 1.008.356 3.508 3.304 7.02 6.605 10.528 9.906a.884.884 0 0 1 .3.578Zm0 0" style="stroke:none;fill-rule:nonzero;fill:#0360ff;fill-opacity:1"/></g><g style="fill:#000;fill-opacity:1"><path d="M2.734.52C2.375.52 2.07.395 1.82.145a1.24 1.24 0 0 1-.37-.915v-11.792c0-.356.12-.665.366-.918.25-.258.555-.391.918-.391H7.13c1.289 0 2.351.223 3.184.668.847.453 1.46 1.039 1.832 1.758.367.703.55 1.46.55 2.273 0 .813-.183 1.574-.55 2.277-.372.72-.985 1.305-1.832 1.758-.833.442-1.895.664-3.184.664H3.62v-.422h.422V-.77c0 .364-.129.668-.387.918a1.286 1.286 0 0 1-.922.372Zm0-.844a.479.479 0 0 0 .336-.133.421.421 0 0 0 .13-.313v-4.546h3.929c1.148 0 2.078-.188 2.789-.567.691-.37 1.187-.836 1.48-1.402.301-.582.454-1.211.454-1.887 0-.676-.153-1.305-.454-1.887-.293-.562-.789-1.03-1.48-1.402-.711-.379-1.64-.566-2.79-.566H2.735a.417.417 0 0 0-.312.132.47.47 0 0 0-.133.332V-.77c0 .125.043.235.129.317a.43.43 0 0 0 .316.129Zm4.223-6.649c1.195 0 2.023-.21 2.473-.636.445-.418.668-.938.668-1.563 0-.621-.223-1.144-.668-1.562-.45-.422-1.278-.637-2.473-.637H3.621v-.422h.422v5.242h-.422v-.422Zm0 .844H3.199v-6.086h3.758c1.418 0 2.438.29 3.05.867.622.586.934 1.309.934 2.176 0 .867-.312 1.594-.933 2.176-.613.578-1.633.867-3.051.867Zm0 0" style="stroke:none" transform="translate(28.54 29.796)"/></g><g style="fill:#000;fill-opacity:1"><path d="M2.39.52c-.363 0-.667-.125-.917-.375a1.256 1.256 0 0 1-.371-.915v-8.265c0-.36.12-.664.367-.918.25-.262.558-.39.922-.39.359 0 .668.128.921.382.258.258.383.563.383.926v.828h-.418l-.34-.254c.985-1.32 2.106-1.98 3.364-1.98h.097c.364 0 .665.129.91.379.239.25.356.554.356.91 0 .367-.125.668-.383.906-.25.23-.554.344-.922.344h-.097c-.54 0-1.035.132-1.48.394a3.48 3.48 0 0 0-1.153 1.113l-.352-.234h.418v5.86c0 .363-.129.667-.386.917A1.284 1.284 0 0 1 2.39.52Zm0-.844a.47.47 0 0 0 .333-.133.425.425 0 0 0 .132-.313v-5.984l.067-.105c.383-.582.86-1.04 1.43-1.375a3.722 3.722 0 0 1 1.91-.512h.097a.5.5 0 0 0 .348-.117.371.371 0 0 0 .117-.29.455.455 0 0 0-.125-.324.397.397 0 0 0-.3-.12H6.3c-.977 0-1.871.546-2.688 1.64l-.758 1.02v-2.098a.448.448 0 0 0-.136-.328.446.446 0 0 0-.328-.137.415.415 0 0 0-.313.129.463.463 0 0 0-.133.336V-.77a.433.433 0 0 0 .445.445Zm0 0" style="stroke:none" transform="translate(41.331 29.796)"/></g><g style="fill:#000;fill-opacity:1"><path d="M2.352-11.41c-.387 0-.72-.137-.993-.41a1.348 1.348 0 0 1-.414-.992v-.079c0-.386.137-.714.414-.992.274-.273.606-.41.993-.41h.113c.387 0 .719.137.992.41.277.278.414.606.414.992v.079c0 .386-.137.714-.414.992-.273.273-.605.41-.992.41Zm0-.84h.113a.553.553 0 0 0 .398-.168.54.54 0 0 0 .164-.395v-.078a.54.54 0 0 0-.164-.394.549.549 0 0 0-.398-.164h-.113a.549.549 0 0 0-.399.164.54.54 0 0 0-.164.394v.079a.54.54 0 0 0 .164.394c.113.11.242.168.399.168ZM2.39.52c-.364 0-.668-.125-.918-.375a1.256 1.256 0 0 1-.371-.915v-8.265c0-.36.12-.664.367-.918.25-.262.558-.39.922-.39.37 0 .683.124.933.374.246.246.371.559.371.934V-.77c0 .364-.129.668-.386.918A1.284 1.284 0 0 1 2.39.52Zm0-.844a.47.47 0 0 0 .332-.133.425.425 0 0 0 .132-.313v-8.265a.46.46 0 0 0-.128-.34.463.463 0 0 0-.336-.125.415.415 0 0 0-.313.129.463.463 0 0 0-.133.336V-.77a.433.433 0 0 0 .445.445Zm0 0" style="stroke:none" transform="translate(48.71 29.796)"/></g><g style="fill:#000;fill-opacity:1"><path d="M5.008.52c-.317 0-.61-.094-.875-.282a1.596 1.596 0 0 1-.57-.687L.207-8.47a1.487 1.487 0 0 1-.129-.566c0-.36.125-.664.371-.918.25-.262.555-.39.918-.39.25 0 .485.07.703.21.215.145.375.32.473.535l.004.012 2.95 7.484-.392.157-.39-.157 2.95-7.484.007-.012c.098-.214.254-.39.469-.535.218-.14.453-.21.703-.21.363 0 .672.128.922.39.242.254.367.558.367.918 0 .172-.043.36-.13.566L6.654-.453a1.643 1.643 0 0 1-.575.691 1.479 1.479 0 0 1-.875.282Zm0-.844h.195a.67.67 0 0 0 .395-.13.751.751 0 0 0 .273-.323l3.356-8.016a.665.665 0 0 0 .062-.242.463.463 0 0 0-.133-.336.44.44 0 0 0-.555-.055.444.444 0 0 0-.163.18l-.383-.176.39.156-3.34 8.47-3.34-8.47.391-.156-.383.176a.444.444 0 0 0-.164-.18.43.43 0 0 0-.242-.074.421.421 0 0 0-.312.129.463.463 0 0 0-.133.336c0 .058.023.14.062.242L4.336-.785a.767.767 0 0 0 .281.332.65.65 0 0 0 .39.129Zm0 0" style="stroke:none" transform="translate(53.507 29.796)"/></g><g style="fill:#000;fill-opacity:1"><path d="M4.027.613A4.016 4.016 0 0 1 2.273.227 3.178 3.178 0 0 1 .953-.937 3.238 3.238 0 0 1 .465-2.7c0-1.09.433-1.961 1.297-2.61.824-.62 2.011-.93 3.554-.93h2.332v.419h-.421v-.153c0-.722-.16-1.226-.485-1.515-.336-.301-.894-.453-1.676-.453-.457 0-.863.035-1.214.109-.364.074-.766.184-1.215.332l-.032.008c-.136.035-.253.05-.351.05-.309 0-.574-.109-.797-.331a1.108 1.108 0 0 1-.336-.82c0-.259.067-.489.2-.68.128-.192.316-.336.558-.442a8.89 8.89 0 0 1 3.496-.726c.965 0 1.781.199 2.46.597.68.403 1.185.926 1.509 1.57.32.633.48 1.317.48 2.051V-.77c0 .364-.129.668-.39.918a1.271 1.271 0 0 1-.918.372c-.36 0-.664-.125-.914-.375a1.244 1.244 0 0 1-.375-.915v-.503h.421l.301.296C6.918.082 5.61.613 4.027.613Zm0-.843c1.344 0 2.453-.446 3.32-1.336l.723-.743v1.54c0 .124.043.234.13.316a.418.418 0 0 0 .316.129.479.479 0 0 0 .336-.133.421.421 0 0 0 .128-.313v-5.453a3.65 3.65 0 0 0-.386-1.668c-.254-.5-.649-.906-1.188-1.226-.543-.32-1.222-.48-2.031-.48a8.027 8.027 0 0 0-3.168.66.422.422 0 0 0-.191.14.348.348 0 0 0-.055.203c0 .09.031.164.09.223.058.059.129.09.203.09.031 0 .078-.012.148-.028l.102.41L2.37-8.3c.48-.156.914-.277 1.313-.36a7.016 7.016 0 0 1 1.382-.124c.997 0 1.739.223 2.239.668.511.457.765 1.172.765 2.144v.575H5.316c-1.355 0-2.375.253-3.05.765-.637.48-.957 1.125-.957 1.934 0 .496.117.933.355 1.308.242.375.566.66.977.856.421.203.886.305 1.386.305Zm.657-1.54c.496 0 .976-.12 1.441-.367a4.09 4.09 0 0 0 1.207-.933l.316.277h-.421v-1.621h.421v.422H5.551c-1.66 0-2.489.367-2.489 1.101 0 .336.11.606.333.805.234.211.664.316 1.289.316Zm0 .844c-.84 0-1.457-.18-1.856-.531-.406-.367-.61-.844-.61-1.434 0-.336.083-.632.247-.89.164-.254.398-.461.707-.625.547-.285 1.34-.426 2.379-.426h2.52v2.195l-.106.121c-.395.45-.875.825-1.45 1.125-.59.309-1.199.465-1.831.465Zm0 0" style="stroke:none" transform="translate(63.602 29.796)"/></g><g style="fill:#000;fill-opacity:1"><path d="M4.914.613C3.867.613 3.07.367 2.52-.129c-.56-.508-.84-1.25-.84-2.223v-5.972h.422v.422H.73a.74.74 0 0 1-.554-.23.743.743 0 0 1-.23-.56c0-.265.109-.484.335-.66l.258.336-.293-.3 2.617-2.567c.2-.195.407-.293.625-.293.227 0 .414.086.57.254a.792.792 0 0 1 .215.555v1.539h-.421v-.418h2.18c.335 0 .613.11.835.332.223.226.336.504.336.84 0 .316-.11.59-.328.82a1.126 1.126 0 0 1-.844.352h-2.18v-.422h.422v5.82c0 .2.024.356.063.465.023.062.05.105.082.121.172.098.402.148.687.148.215 0 .434-.035.649-.097l.012-.004.007-.004c.055-.012.114-.027.176-.04.086-.019.192-.03.313-.03.293 0 .55.11.773.32.227.219.34.484.34.797 0 .23-.059.437-.18.621a1.276 1.276 0 0 1-.488.426l-.008.004-.011.007a4.22 4.22 0 0 1-1.774.383Zm0-.843c.504 0 .977-.102 1.422-.305l.176.383-.196-.375a.479.479 0 0 0 .176-.141.296.296 0 0 0 .043-.16.246.246 0 0 0-.082-.188.286.286 0 0 0-.191-.086.512.512 0 0 0-.13.012 4.635 4.635 0 0 0-.152.035l-.105-.41.121.403c-.293.09-.594.136-.89.136-.434 0-.801-.086-1.106-.258-.379-.214-.566-.656-.566-1.32v-6.242H6.03a.303.303 0 0 0 .235-.09.333.333 0 0 0 .093-.238.328.328 0 0 0-.086-.242.33.33 0 0 0-.242-.09H3.434v-1.961c0 .008 0 .012.003.015.012.012.028.02.051.02.016 0 .032 0 .04-.004a.26.26 0 0 0-.075.059L.816-8.7l-.02.015c-.007.004-.01.012-.015.016v-.004a.03.03 0 0 0 .008-.02c0-.011-.008-.023-.02-.035-.011-.011-.023-.02-.039-.02h1.793v6.395c0 .723.188 1.254.563 1.598.39.348.996.524 1.828.524Zm0 0" style="stroke:none" transform="translate(74.198 29.796)"/></g><g style="fill:#000;fill-opacity:1"><path d="M5.914.613C4.23.613 2.906.125 1.945-.852.985-1.824.504-3.18.504-4.914c0-.969.18-1.867.535-2.691A4.698 4.698 0 0 1 2.73-9.652c.766-.528 1.7-.79 2.801-.79 1.032 0 1.93.247 2.692.731a4.729 4.729 0 0 1 1.73 1.945c.39.797.582 1.664.582 2.602 0 .36-.117.66-.355.91-.246.254-.563.379-.95.379H2.7v-.422l.417-.047c.09.793.38 1.403.863 1.832.485.43 1.18.645 2.09.645.504 0 .942-.047 1.313-.14.375-.095.742-.231 1.097-.411a1.17 1.17 0 0 1 .536-.121c.316 0 .59.105.824.32.246.227.37.508.37.852 0 .445-.237.804-.714 1.078-.531.3-1.055.523-1.574.676-.527.152-1.195.226-2.008.226Zm0-.843c.73 0 1.32-.063 1.774-.196a6.281 6.281 0 0 0 1.386-.594c.196-.113.293-.226.293-.347a.303.303 0 0 0-.094-.23.377.377 0 0 0-.414-.067 6.479 6.479 0 0 1-1.27.473 6.128 6.128 0 0 1-1.519.168c-1.12 0-2.004-.286-2.652-.86-.645-.57-1.023-1.36-1.14-2.367l-.051-.469H9.23c.149 0 .262-.039.34-.12a.448.448 0 0 0 .125-.325c0-.809-.168-1.55-.5-2.234-.324-.668-.8-1.2-1.425-1.602-.625-.398-1.372-.598-2.239-.598-.93 0-1.703.215-2.324.641A3.863 3.863 0 0 0 1.813-7.27c-.313.72-.465 1.504-.465 2.356 0 1.504.398 2.66 1.195 3.473.8.808 1.922 1.21 3.371 1.21Zm2.047-5.465c-.035-.555-.176-1.008-.418-1.371a2.255 2.255 0 0 0-.902-.79 2.6 2.6 0 0 0-1.11-.257c-.375 0-.746.086-1.113.258a2.21 2.21 0 0 0-.887.785c-.242.363-.379.82-.414 1.375L2.7-5.723v-.422h5.684v.422Zm.867.394H2.25l.027-.449c.043-.703.227-1.3.551-1.785a3.02 3.02 0 0 1 1.23-1.082c.481-.227.973-.34 1.473-.34.496 0 .989.113 1.469.34.492.23.906.59 1.238 1.078.332.488.52 1.086.563 1.789Zm0 0" style="stroke:none" transform="translate(81.423 29.796)"/></g><g style="fill:#000;fill-opacity:1"><path d="M2.734.52C2.375.52 2.07.395 1.82.145a1.24 1.24 0 0 1-.37-.915v-11.89c0-.356.12-.66.366-.918.25-.258.555-.387.918-.387.364 0 .672.125.926.383.254.254.383.562.383.922v5.125h-.422v-.418h7.305v.418h-.422v-5.125c0-.356.121-.66.367-.918.25-.258.559-.387.922-.387.36 0 .668.125.922.383.258.254.383.562.383.922V-.77c0 .364-.13.668-.387.918a1.284 1.284 0 0 1-.918.372c-.363 0-.668-.125-.918-.375a1.256 1.256 0 0 1-.371-.915v-5.125h.422v.422H3.62v-.422h.422V-.77c0 .364-.129.668-.387.918a1.286 1.286 0 0 1-.922.372Zm0-.844a.479.479 0 0 0 .336-.133.421.421 0 0 0 .13-.313v-5.546h8.148V-.77a.433.433 0 0 0 .445.445.47.47 0 0 0 .332-.132.425.425 0 0 0 .133-.313v-11.89a.461.461 0 0 0-.137-.328.461.461 0 0 0-.328-.137.419.419 0 0 0-.313.133.454.454 0 0 0-.132.332v5.547H3.199v-5.547a.446.446 0 0 0-.136-.328.448.448 0 0 0-.641-.004.47.47 0 0 0-.133.332V-.77c0 .125.043.235.129.317a.43.43 0 0 0 .316.129Zm0 0" style="stroke:none" transform="translate(92.115 29.796)"/></g><g style="fill:#000;fill-opacity:1"><path d="M5.855.613c-1.062 0-2-.23-2.808-.691a4.748 4.748 0 0 1-1.89-1.973C.722-2.887.503-3.844.503-4.914s.219-2.024.652-2.863a4.77 4.77 0 0 1 1.89-1.973c.81-.46 1.747-.691 2.81-.691 1.05 0 1.98.23 2.792.691a4.79 4.79 0 0 1 1.899 1.973c.441.836.664 1.793.664 2.863 0 1.074-.223 2.027-.664 2.867A4.803 4.803 0 0 1 8.648-.078c-.812.46-1.742.691-2.793.691Zm0-.843c.903 0 1.696-.192 2.375-.579A3.98 3.98 0 0 0 9.8-2.44c.38-.715.567-1.54.567-2.473 0-.93-.187-1.754-.566-2.469a3.957 3.957 0 0 0-1.57-1.633c-.68-.386-1.473-.582-2.376-.582-.914 0-1.71.196-2.39.582a3.92 3.92 0 0 0-1.559 1.63c-.375.714-.558 1.538-.558 2.472 0 .934.183 1.758.558 2.476a3.92 3.92 0 0 0 1.559 1.63c.68.386 1.476.578 2.39.578Zm0-1.598c.461 0 .903-.106 1.325-.32.41-.207.75-.54 1.023-.997.274-.46.41-1.054.41-1.789 0-.718-.136-1.308-.41-1.765-.273-.457-.613-.785-1.02-.985a2.969 2.969 0 0 0-2.672 0c-.406.2-.741.528-1.007.98-.27.462-.402 1.052-.402 1.77 0 .735.132 1.332.402 1.793.266.454.605.786 1.012.993.421.214.87.32 1.34.32Zm0 .844c-.605 0-1.18-.137-1.718-.414-.559-.282-1.012-.72-1.36-1.317-.347-.594-.52-1.332-.52-2.219 0-.87.173-1.605.52-2.195.352-.601.805-1.039 1.364-1.312a3.837 3.837 0 0 1 1.714-.399c.594 0 1.16.133 1.7.399.558.273 1.015.71 1.37 1.308.356.594.532 1.328.532 2.2 0 .886-.176 1.628-.531 2.222-.356.594-.813 1.035-1.367 1.313-.54.277-1.11.414-1.704.414Zm0 0" style="stroke:none" transform="translate(106.39 29.796)"/></g><g style="fill:#000;fill-opacity:1"><path d="M4.875.613c-.79 0-1.48-.187-2.066-.566A3.645 3.645 0 0 1 1.46-1.496a4.757 4.757 0 0 1-.457-2.086v-5.473c0-.363.129-.672.39-.922.254-.246.56-.367.919-.367s.664.125.914.375c.25.246.375.555.375.914v5.278c0 .675.14 1.172.421 1.48.27.3.696.45 1.274.45.558 0 1.058-.145 1.496-.43.469-.313.914-.73 1.336-1.262l.328.262h-.422v-5.778c0-.363.133-.672.39-.922.255-.246.563-.367.919-.367.36 0 .668.125.914.375.25.246.375.555.375.914v8.266c0 .355-.121.664-.367.918a1.24 1.24 0 0 1-.922.39c-.36 0-.668-.128-.922-.386a1.248 1.248 0 0 1-.387-.922v-.79h.422l.313.282A6.732 6.732 0 0 1 7.086.078c-.629.356-1.367.535-2.211.535Zm0-.843c.695 0 1.293-.141 1.797-.426a5.92 5.92 0 0 0 1.473-1.207l.734-.813v1.887c0 .125.047.234.137.328.093.09.203.137.328.137s.23-.043.312-.133a.454.454 0 0 0 .133-.332v-8.266a.445.445 0 0 0-.125-.32.445.445 0 0 0-.32-.125.454.454 0 0 0-.332.133.405.405 0 0 0-.133.312v5.926l-.09.117c-.476.598-.988 1.078-1.535 1.438-.578.379-1.23.57-1.957.57-.828 0-1.465-.242-1.902-.726-.426-.473-.637-1.157-.637-2.047v-5.278a.433.433 0 0 0-.446-.445.463.463 0 0 0-.335.133.415.415 0 0 0-.13.312v5.473c0 .629.126 1.203.372 1.723.242.507.59.906 1.043 1.195.453.289.988.434 1.613.434Zm0 0" style="stroke:none" transform="translate(118.104 29.796)"/></g><g style="fill:#000;fill-opacity:1"><path d="M4.703.613C3.343.613 2.11.31.993-.305l-.04-.023a1.134 1.134 0 0 1-.508-.98c0-.317.11-.59.325-.825.222-.246.507-.37.847-.37.176 0 .348.038.52.112a7.22 7.22 0 0 0 1.164.403c.379.093.804.14 1.285.14.629 0 1.09-.09 1.375-.273.226-.149.34-.371.34-.672a.242.242 0 0 0-.04-.144.577.577 0 0 0-.206-.149c-.305-.144-.817-.309-1.535-.496a14.348 14.348 0 0 1-1.926-.57 3.737 3.737 0 0 1-1.434-.989C.734-5.613.523-6.223.523-6.977.523-8 .895-8.84 1.641-9.488c.726-.637 1.746-.953 3.062-.953 1.04 0 2.016.171 2.938.507l-.145.395.113-.402c.278.078.496.23.649.457a1.182 1.182 0 0 1-.121 1.511c-.23.239-.516.36-.856.36-.097 0-.215-.016-.351-.051l-.024-.008A6.952 6.952 0 0 0 4.836-8c-.613 0-1.078.105-1.402.313-.262.167-.391.37-.391.617 0 .11.023.203.066.273.051.074.13.14.239.195.328.165.855.329 1.578.489h.015c.774.199 1.407.394 1.899.586.539.21 1.004.543 1.39.996.407.476.61 1.101.61 1.87 0 .958-.375 1.743-1.125 2.368-.727.605-1.73.906-3.012.906Zm0-.843c1.078 0 1.902-.235 2.473-.711C7.723-1.395 8-1.97 8-2.661c0-.562-.137-1.003-.41-1.323a2.665 2.665 0 0 0-1.059-.758 15.395 15.395 0 0 0-1.8-.551l.105-.41-.09.41c-.793-.172-1.383-.36-1.773-.555a1.408 1.408 0 0 1-.575-.496c-.132-.21-.199-.453-.199-.726 0-.555.262-.996.781-1.328.461-.297 1.079-.442 1.856-.442.762 0 1.535.121 2.32.363l-.125.403.102-.406a.82.82 0 0 0 .148.023.31.31 0 0 0 .246-.102.337.337 0 0 0 .035-.453.332.332 0 0 0-.183-.12l-.031-.009a7.571 7.571 0 0 0-2.645-.457c-1.105 0-1.941.25-2.508.746-.554.48-.828 1.106-.828 1.875 0 .536.14.961.418 1.27.309.344.68.598 1.113.766.477.187 1.086.367 1.832.546.77.2 1.332.38 1.684.547.227.106.402.246.527.414.137.188.204.403.204.641 0 .61-.243 1.07-.727 1.379-.426.273-1.04.41-1.832.41a6.022 6.022 0 0 1-1.488-.168 8.58 8.58 0 0 1-1.305-.445.416.416 0 0 0-.176-.043.295.295 0 0 0-.226.094.36.36 0 0 0-.102.257c0 .121.05.22.149.29l-.243.343.203-.367c.989.543 2.09.813 3.305.813Zm0 0" style="stroke:none" transform="translate(129.837 29.796)"/></g><g style="fill:#000;fill-opacity:1"><path d="M5.914.613C4.23.613 2.906.125 1.945-.852.985-1.824.504-3.18.504-4.914c0-.969.18-1.867.535-2.691A4.698 4.698 0 0 1 2.73-9.652c.766-.528 1.7-.79 2.801-.79 1.032 0 1.93.247 2.692.731a4.729 4.729 0 0 1 1.73 1.945c.39.797.582 1.664.582 2.602 0 .36-.117.66-.355.91-.246.254-.563.379-.95.379H2.7v-.422l.417-.047c.09.793.38 1.403.863 1.832.485.43 1.18.645 2.09.645.504 0 .942-.047 1.313-.14.375-.095.742-.231 1.097-.411a1.17 1.17 0 0 1 .536-.121c.316 0 .59.105.824.32.246.227.37.508.37.852 0 .445-.237.804-.714 1.078-.531.3-1.055.523-1.574.676-.527.152-1.195.226-2.008.226Zm0-.843c.73 0 1.32-.063 1.774-.196a6.281 6.281 0 0 0 1.386-.594c.196-.113.293-.226.293-.347a.303.303 0 0 0-.094-.23.377.377 0 0 0-.414-.067 6.479 6.479 0 0 1-1.27.473 6.128 6.128 0 0 1-1.519.168c-1.12 0-2.004-.286-2.652-.86-.645-.57-1.023-1.36-1.14-2.367l-.051-.469H9.23c.149 0 .262-.039.34-.12a.448.448 0 0 0 .125-.325c0-.809-.168-1.55-.5-2.234-.324-.668-.8-1.2-1.425-1.602-.625-.398-1.372-.598-2.239-.598-.93 0-1.703.215-2.324.641A3.863 3.863 0 0 0 1.813-7.27c-.313.72-.465 1.504-.465 2.356 0 1.504.398 2.66 1.195 3.473.8.808 1.922 1.21 3.371 1.21Zm2.047-5.465c-.035-.555-.176-1.008-.418-1.371a2.255 2.255 0 0 0-.902-.79 2.6 2.6 0 0 0-1.11-.257c-.375 0-.746.086-1.113.258a2.21 2.21 0 0 0-.887.785c-.242.363-.379.82-.414 1.375L2.7-5.723v-.422h5.684v.422Zm.867.394H2.25l.027-.449c.043-.703.227-1.3.551-1.785a3.02 3.02 0 0 1 1.23-1.082c.481-.227.973-.34 1.473-.34.496 0 .989.113 1.469.34.492.23.906.59 1.238 1.078.332.488.52 1.086.563 1.789Zm0 0" style="stroke:none" transform="translate(139.084 29.796)"/></g><g style="fill:#000;fill-opacity:1"><path d="M2.734.094a.831.831 0 0 1-.609-.25.816.816 0 0 1-.25-.61v-11.796c0-.239.082-.446.25-.626a.802.802 0 0 1 .61-.265h4.39c1.219 0 2.21.21 2.984.625.77.406 1.32.933 1.657 1.578.332.648.5 1.34.5 2.078 0 .75-.168 1.45-.5 2.094-.336.637-.887 1.164-1.657 1.578-.773.406-1.765.61-2.984.61h-3.5v4.124c0 .243-.09.446-.266.61a.86.86 0 0 1-.625.25Zm4.22-6.64c1.312 0 2.234-.25 2.765-.75.531-.5.797-1.126.797-1.876 0-.738-.266-1.36-.797-1.86-.531-.507-1.453-.765-2.766-.765H3.625v5.25Zm0 0" style="stroke:none" transform="translate(28.54 29.796)"/></g><g style="fill:#000;fill-opacity:1"><path d="M2.39.094a.854.854 0 0 1-.624-.25.816.816 0 0 1-.25-.61V-9.03c0-.25.082-.457.25-.625a.823.823 0 0 1 .625-.266c.238 0 .445.09.625.266a.83.83 0 0 1 .265.625v.828c.895-1.207 1.899-1.813 3.016-1.813h.094c.25 0 .453.086.609.25.164.168.25.371.25.61 0 .25-.086.453-.25.61-.168.148-.383.218-.64.218h-.094c-.618 0-1.184.152-1.704.453a3.873 3.873 0 0 0-1.28 1.25v5.86c0 .242-.09.445-.266.609a.9.9 0 0 1-.625.25Zm0 0" style="stroke:none" transform="translate(41.331 29.796)"/></g><g style="fill:#000;fill-opacity:1"><path d="M2.344-11.828a.963.963 0 0 1-.688-.281.98.98 0 0 1-.281-.704v-.078c0-.27.094-.5.281-.687a.947.947 0 0 1 .688-.297h.125c.27 0 .5.102.687.297a.922.922 0 0 1 .297.687v.079a.963.963 0 0 1-.297.703.937.937 0 0 1-.687.28ZM2.39.094a.854.854 0 0 1-.625-.25.816.816 0 0 1-.25-.61V-9.03c0-.25.082-.457.25-.625a.823.823 0 0 1 .625-.266c.257 0 .472.086.64.25.164.168.25.383.25.64v8.266c0 .243-.09.446-.265.61a.9.9 0 0 1-.625.25Zm0 0" style="stroke:none" transform="translate(48.71 29.796)"/></g><g style="fill:#000;fill-opacity:1"><path d="M5.016.094A1.144 1.144 0 0 1 3.953-.61L.593-8.625A1.112 1.112 0 0 1 .5-9.031c0-.25.082-.457.25-.625a.823.823 0 0 1 .625-.266c.164 0 .32.047.469.14.144.095.25.216.312.36L5.11-1.953l2.938-7.469a.875.875 0 0 1 .328-.36c.145-.093.3-.14.469-.14.238 0 .441.09.61.266a.86.86 0 0 1 .25.625c0 .117-.032.25-.095.406L6.266-.609c-.094.199-.243.367-.438.5a1.066 1.066 0 0 1-.625.203Zm0 0" style="stroke:none" transform="translate(53.507 29.796)"/></g><g style="fill:#000;fill-opacity:1"><path d="M4.031.188a3.635 3.635 0 0 1-1.578-.344 2.7 2.7 0 0 1-1.14-1C1.03-1.602.89-2.117.89-2.703c0-.945.375-1.703 1.125-2.266.75-.562 1.847-.843 3.296-.843h2.344v-.157c0-.851-.215-1.46-.64-1.828-.418-.375-1.07-.562-1.954-.562-.492 0-.921.043-1.296.125-.375.074-.797.183-1.266.328a.932.932 0 0 1-.25.047.706.706 0 0 1-.5-.204.74.74 0 0 1-.203-.53c0-.345.164-.587.5-.735a8.565 8.565 0 0 1 3.328-.688c.883 0 1.629.184 2.234.547.614.356 1.067.82 1.36 1.39.289.575.437 1.196.437 1.86v5.453c0 .243-.09.446-.265.61a.9.9 0 0 1-.625.25.831.831 0 0 1-.61-.25.816.816 0 0 1-.25-.61v-.5C6.696-.296 5.488.188 4.031.188Zm.657-1.532c.562 0 1.101-.133 1.625-.406a4.672 4.672 0 0 0 1.343-1.047v-1.61h-2.11c-1.937 0-2.905.509-2.905 1.516 0 .461.156.836.468 1.125.313.282.836.422 1.579.422Zm0 0" style="stroke:none" transform="translate(63.602 29.796)"/></g><g style="fill:#000;fill-opacity:1"><path d="M4.906.188c-1.875 0-2.812-.844-2.812-2.532v-5.984H.734a.387.387 0 0 1-.265-.094.35.35 0 0 1-.11-.265c0-.126.063-.235.188-.329l2.61-2.562c.113-.113.222-.172.327-.172a.35.35 0 0 1 .266.125c.07.074.11.164.11.266v1.53H6.03c.219 0 .395.075.532.22a.698.698 0 0 1 .218.53c0 .212-.074.388-.218.532a.684.684 0 0 1-.532.219H3.86V-2.5c0 .5.114.82.344.953.238.137.54.203.906.203.25 0 .504-.039.766-.125.05-.008.102-.02.156-.031.063-.008.14-.016.235-.016.175 0 .332.07.468.204.145.125.22.289.22.484 0 .293-.15.515-.438.672-.5.226-1.04.344-1.61.344Zm0 0" style="stroke:none" transform="translate(74.198 29.796)"/></g><g style="fill:#000;fill-opacity:1"><path d="M5.922.188c-1.574 0-2.805-.442-3.688-1.329C1.36-2.035.922-3.289.922-4.906c0-.914.164-1.758.5-2.532.332-.769.844-1.39 1.531-1.859.695-.476 1.555-.719 2.578-.719.946 0 1.766.227 2.453.672a4.204 4.204 0 0 1 1.579 1.766c.363.742.546 1.547.546 2.422a.85.85 0 0 1-.234.61c-.156.167-.371.25-.64.25H2.702c.094.898.422 1.6.985 2.109.57.5 1.363.75 2.374.75.54 0 1.016-.051 1.422-.157.407-.101.801-.254 1.188-.453a.767.767 0 0 1 .344-.078c.207 0 .382.074.53.219a.671.671 0 0 1 .235.531c0 .293-.168.531-.5.719-.5.281-.996.496-1.484.64-.48.133-1.106.204-1.875.204ZM8.375-5.72c-.031-.633-.195-1.16-.484-1.578a2.683 2.683 0 0 0-1.079-.937 2.998 2.998 0 0 0-1.28-.297c-.438 0-.872.101-1.298.297-.418.199-.773.511-1.062.937-.281.418-.438.945-.469 1.578Zm0 0" style="stroke:none" transform="translate(81.423 29.796)"/></g><g style="fill:#000;fill-opacity:1"><path d="M2.734.094a.831.831 0 0 1-.609-.25.816.816 0 0 1-.25-.61v-11.89c0-.25.082-.457.25-.625a.802.802 0 0 1 .61-.266c.25 0 .456.09.624.266a.83.83 0 0 1 .266.625v5.125h7.297v-5.125c0-.25.082-.457.25-.625a.823.823 0 0 1 .625-.266c.238 0 .441.09.61.266a.83.83 0 0 1 .265.625v11.89c0 .243-.09.446-.266.61a.844.844 0 0 1-.61.25.854.854 0 0 1-.624-.25.816.816 0 0 1-.25-.61V-5.89H3.625v5.125c0 .243-.09.446-.266.61a.86.86 0 0 1-.625.25Zm0 0" style="stroke:none" transform="translate(92.115 29.796)"/></g><g style="fill:#000;fill-opacity:1"><path d="M5.86.188C4.866.188 4-.02 3.25-.438a4.357 4.357 0 0 1-1.719-1.797c-.406-.782-.61-1.672-.61-2.672 0-1.008.204-1.899.61-2.672A4.265 4.265 0 0 1 3.25-9.375c.75-.426 1.617-.64 2.61-.64.976 0 1.835.214 2.577.64a4.255 4.255 0 0 1 1.735 1.797c.406.773.61 1.664.61 2.672 0 1-.204 1.89-.61 2.672A4.345 4.345 0 0 1 8.437-.438C7.696-.02 6.837.188 5.86.188Zm0-1.594c.519 0 1.019-.117 1.5-.36.488-.25.89-.632 1.202-1.156.313-.531.47-1.203.47-2.015 0-.79-.157-1.446-.47-1.97-.312-.53-.714-.913-1.203-1.155a3.383 3.383 0 0 0-3.031 0c-.48.242-.875.625-1.187 1.156-.313.523-.47 1.18-.47 1.968 0 .813.157 1.485.47 2.016.312.524.707.906 1.187 1.156.477.243.988.36 1.531.36Zm0 0" style="stroke:none" transform="translate(106.39 29.796)"/></g><g style="fill:#000;fill-opacity:1"><path d="M4.875.188c-.71 0-1.324-.168-1.844-.5a3.277 3.277 0 0 1-1.203-1.36 4.428 4.428 0 0 1-.406-1.906v-5.485a.8.8 0 0 1 .266-.609.887.887 0 0 1 .625-.25c.238 0 .44.086.609.25.164.168.25.371.25.61v5.28c0 1.575.707 2.36 2.125 2.36.644 0 1.219-.164 1.719-.5.507-.332.988-.785 1.437-1.36v-5.78a.8.8 0 0 1 .266-.61.887.887 0 0 1 .625-.25c.238 0 .441.086.61.25.163.168.25.371.25.61v8.265a.91.91 0 0 1-.25.64.844.844 0 0 1-.61.25.887.887 0 0 1-.625-.25.861.861 0 0 1-.266-.64v-.781A6.453 6.453 0 0 1 6.875-.281c-.563.312-1.23.469-2 .469Zm0 0" style="stroke:none" transform="translate(118.104 29.796)"/></g><g style="fill:#000;fill-opacity:1"><path d="M4.703.188c-1.281 0-2.453-.286-3.516-.86a.742.742 0 0 1-.328-.64.72.72 0 0 1 .22-.532.715.715 0 0 1 .546-.234.86.86 0 0 1 .344.078c.406.18.812.32 1.218.422.415.105.88.156 1.391.156 1.426 0 2.14-.457 2.14-1.375 0-.289-.167-.515-.5-.672-.323-.156-.855-.328-1.593-.515-.762-.176-1.39-.36-1.89-.547a3.278 3.278 0 0 1-1.266-.89C1.113-5.817.937-6.333.937-6.97c0-.906.32-1.64.97-2.203.655-.562 1.585-.844 2.796-.844A8.08 8.08 0 0 1 7.5-9.53a.72.72 0 0 1 .406.297c.094.136.14.28.14.437 0 .2-.073.375-.218.531a.72.72 0 0 1-.547.235.906.906 0 0 1-.25-.047 7.523 7.523 0 0 0-2.203-.344c-.687 0-1.23.125-1.625.375-.387.25-.578.574-.578.969 0 .387.176.672.531.86.364.179.922.35 1.672.515.758.2 1.375.39 1.844.578.476.18.89.469 1.234.875.344.398.516.93.516 1.594 0 .824-.328 1.508-.985 2.047-.648.53-1.558.796-2.734.796Zm0 0" style="stroke:none" transform="translate(129.837 29.796)"/></g><g style="fill:#000;fill-opacity:1"><path d="M5.922.188c-1.574 0-2.805-.442-3.688-1.329C1.36-2.035.922-3.289.922-4.906c0-.914.164-1.758.5-2.532.332-.769.844-1.39 1.531-1.859.695-.476 1.555-.719 2.578-.719.946 0 1.766.227 2.453.672a4.204 4.204 0 0 1 1.579 1.766c.363.742.546 1.547.546 2.422a.85.85 0 0 1-.234.61c-.156.167-.371.25-.64.25H2.702c.094.898.422 1.6.985 2.109.57.5 1.363.75 2.374.75.54 0 1.016-.051 1.422-.157.407-.101.801-.254 1.188-.453a.767.767 0 0 1 .344-.078c.207 0 .382.074.53.219a.671.671 0 0 1 .235.531c0 .293-.168.531-.5.719-.5.281-.996.496-1.484.64-.48.133-1.106.204-1.875.204ZM8.375-5.72c-.031-.633-.195-1.16-.484-1.578a2.683 2.683 0 0 0-1.079-.937 2.998 2.998 0 0 0-1.28-.297c-.438 0-.872.101-1.298.297-.418.199-.773.511-1.062.937-.281.418-.438.945-.469 1.578Zm0 0" style="stroke:none" transform="translate(139.084 29.796)"/></g></svg>
