<?xml version="1.0" encoding="UTF-8"?>
<svg width="202px" height="33px" viewBox="0 0 202 33" version="1.1" xmlns="http://www.w3.org/2000/svg" xmlns:xlink="http://www.w3.org/1999/xlink">
    <title>Untitled 24</title>
    <desc>Created with Sketch.</desc>
    <defs>
        <polygon id="path-1" points="0 0.932292 31.8229173 0.932292 31.8229173 32.755208 0 32.755208"></polygon>
    </defs>
    <g id="Page-1" stroke="none" stroke-width="1" fill="none" fill-rule="evenodd">
        <g id="Untitled-design-(1)">
            <g id="Clipped">
                <mask id="mask-2" fill="white">
                    <use xlink:href="#path-1"></use>
                </mask>
                <g id="Path"></g>
                <path d="M16.3229173,6.317708 C16.2083333,6.20312533 16.067708,6.14583333 15.9062507,6.14583333 C15.744792,6.14583333 15.6041667,6.20312533 15.489584,6.317708 C11.3958333,10.3489587 7.317708,14.4010413 3.260416,18.4739587 C3.07812533,18.6614587 2.98437467,18.880208 2.98437467,19.1406253 L2.98437467,31.317708 C3,31.494792 3.04166667,31.6666667 3.119792,31.8333333 C3.19791733,31.994792 3.307292,32.135416 3.442708,32.255208 C3.57812533,32.380208 3.72916667,32.4687493 3.90104133,32.5312507 C4.07291733,32.5885413 4.244792,32.614584 4.42708267,32.6041667 L12.1093747,32.6041667 L12.1093747,23.5156253 C12.1093747,23.255208 12.2031253,23.0312507 12.385416,22.8437493 C12.5729173,22.6614587 12.7968747,22.567708 13.0625,22.567708 L18.630208,22.567708 C18.8906253,22.567708 19.114584,22.6614587 19.2968747,22.8489587 C19.4843747,23.0312507 19.5781253,23.255208 19.5781253,23.5156253 L19.5781253,32.6041667 L27.255208,32.6041667 C27.4375,32.614584 27.614584,32.5885413 27.7864587,32.5312507 C27.9583333,32.4687493 28.1093747,32.380208 28.244792,32.255208 C28.380208,32.135416 28.489584,31.994792 28.567708,31.8281253 C28.6458333,31.6666667 28.692708,31.494792 28.7031253,31.3125 L28.7031253,19.0833333 C28.7031253,18.8229173 28.614584,18.6041667 28.4270827,18.4218747 L16.3229173,6.317708 Z M15.8437493,18.4479173 C15.5,18.4479173 15.1666667,18.380208 14.8541667,18.25 C14.5364587,18.119792 14.255208,17.932292 14.010416,17.6875 C13.7708333,17.442708 13.5833333,17.1614587 13.4531253,16.8437493 C13.3229173,16.5260413 13.260416,16.1979173 13.260416,15.8541667 C13.2656253,15.510416 13.3385413,15.182292 13.4739587,14.864584 C13.614584,14.5520827 13.8020827,14.2708333 14.0468747,14.0312507 C14.2916667,13.7916667 14.5729173,13.6093747 14.8906253,13.4791667 C15.2083333,13.3489587 15.5416667,13.2812507 15.885416,13.2812507 C16.2239587,13.2864587 16.557292,13.3541667 16.869792,13.489584 C17.1875,13.619792 17.4635413,13.8125 17.7031253,14.0520827 C17.942708,14.2968747 18.130208,14.5781253 18.255208,14.8958333 C18.385416,15.2135413 18.4479173,15.5416667 18.4479173,15.885416 C18.442708,16.2291667 18.375,16.557292 18.239584,16.875 C18.1093747,17.1875 17.9166667,17.4687493 17.6770827,17.7083333 C17.432292,17.9479173 17.1510413,18.130208 16.8333333,18.260416 C16.5156253,18.3906253 16.1875,18.4531253 15.8437493,18.4479173 Z M31.6979173,15.3906253 C31.6875,15.7760413 31.5520827,16.1093747 31.2864587,16.3906253 C31.0260413,16.6718747 30.7031253,16.8281253 30.317708,16.864584 C30.0156253,16.8281253 29.7656253,16.6875 29.5729173,16.4479173 C28.7760413,15.567708 23.5937493,10.5885413 16.255208,3.57812533 C16.1770827,3.5 16.0833333,3.44791733 15.9687493,3.42708267 C15.885416,3.41145867 15.8020827,3.42187467 15.7187493,3.45312533 C15.6406253,3.47916667 15.5625,3.52083333 15.5,3.57812533 C8.16145867,10.5885413 2.97395867,15.567708 2.182292,16.4479173 C1.989584,16.6875 1.739584,16.8281253 1.4375,16.864584 C1.05208267,16.8281253 0.729166667,16.6718747 0.468749333,16.3906253 C0.203125333,16.1093747 0.0677082667,15.7760413 0.0572917333,15.3906253 C0.09375,15.0833333 0.223958667,14.8229173 0.453125333,14.614584 C5.14062533,10.2135413 9.817708,5.807292 14.494792,1.40625067 C14.8489587,1.119792 15.25,0.963541333 15.7083333,0.9375 C15.7291667,0.9375 15.8125,0.932292 15.9166667,0.9375 C16.4166667,0.953125333 16.864584,1.10937467 17.260416,1.41145867 C21.9375,5.817708 26.619792,10.2187493 31.2968747,14.619792 C31.5312507,14.8281253 31.6614587,15.0833333 31.6979173,15.3906253 Z" id="Shape" fill="#0360FF" fill-rule="nonzero" mask="url(#mask-2)"></path>
            </g>
            <g id="Group" transform="translate(38.666667, 9.000000)" fill="#000000" fill-rule="nonzero">
                <g transform="translate(0.718924, 0.061367)" id="Shape">
                    <path d="M2.3125,19.3593747 C1.83333333,19.3593747 1.42708267,19.192708 1.09374933,18.8593747 C0.760416,18.5260413 0.598958667,18.119792 0.598958667,17.6406253 L0.598958667,1.91666667 C0.598958667,1.442708 0.760416,1.03125067 1.08854133,0.692708 C1.42187467,0.348958667 1.82812533,0.171874667 2.3125,0.171874667 L8.17187467,0.171874667 C9.89062533,0.171874667 11.307292,0.468749333 12.4166667,1.0625 C13.5468747,1.66666667 14.364584,2.44791733 14.8593747,3.40625067 C15.3489587,4.34374933 15.5937493,5.35416667 15.5937493,6.4375 C15.5937493,7.52083333 15.3489587,8.53645867 14.8593747,9.47395867 C14.364584,10.432292 13.5468747,11.2135413 12.4166667,11.817708 C11.307292,12.4062507 9.89062533,12.7031253 8.17187467,12.7031253 L3.494792,12.7031253 L3.494792,12.1406253 L4.057292,12.1406253 L4.057292,17.6406253 C4.057292,18.125 3.885416,18.5312507 3.54166667,18.864584 C3.19791733,19.192708 2.79166667,19.3593747 2.3125,19.3593747 Z M2.3125,18.2343747 C2.489584,18.2343747 2.635416,18.1718747 2.760416,18.057292 C2.875,17.942708 2.932292,17.807292 2.932292,17.6406253 L2.932292,11.5781253 L8.17187467,11.5781253 C9.70312533,11.5781253 10.942708,11.3281253 11.8906253,10.8229173 C12.8125,10.3281253 13.4739587,9.70833333 13.864584,8.95312533 C14.2656253,8.17708267 14.4687493,7.33854133 14.4687493,6.4375 C14.4687493,5.53645867 14.2656253,4.69791733 13.864584,3.92187467 C13.4739587,3.17187467 12.8125,2.54687467 11.8906253,2.05208267 C10.942708,1.54687467 9.70312533,1.29687467 8.17187467,1.29687467 L2.3125,1.29687467 C2.15104133,1.29687467 2.010416,1.35416667 1.89583333,1.47395867 C1.78125067,1.59374933 1.71874933,1.744792 1.71874933,1.91666667 L1.71874933,17.6406253 C1.71874933,17.807292 1.77604133,17.9531253 1.89062533,18.0625 C2.005208,18.1770827 2.14583333,18.2343747 2.3125,18.2343747 Z M7.942708,9.369792 C9.53645867,9.369792 10.6406253,9.08854133 11.239584,8.52083333 C11.8333333,7.96354133 12.130208,7.27083333 12.130208,6.4375 C12.130208,5.60937467 11.8333333,4.91145867 11.239584,4.35416667 C10.6406253,3.79166667 9.53645867,3.505208 7.942708,3.505208 L3.494792,3.505208 L3.494792,2.942708 L4.057292,2.942708 L4.057292,9.932292 L3.494792,9.932292 L3.494792,9.369792 L7.942708,9.369792 Z M7.942708,10.494792 L2.932292,10.494792 L2.932292,2.380208 L7.942708,2.380208 C9.83333333,2.380208 11.192708,2.76562533 12.010416,3.53645867 C12.8385413,4.317708 13.255208,5.28125067 13.255208,6.4375 C13.255208,7.59374933 12.8385413,8.5625 12.010416,9.33854133 C11.192708,10.1093747 9.83333333,10.494792 7.942708,10.494792 Z"></path>
                </g>
            </g>
            <g id="Group" transform="translate(56.000000, 13.000000)" fill="#000000" fill-rule="nonzero">
                <g transform="translate(0.441888, 0.061367)" id="Shape">
                    <path d="M1.85416667,15.3593747 C1.369792,15.3593747 0.963541333,15.192708 0.630208,14.8593747 C0.302082667,14.5260413 0.135416,14.119792 0.135416,13.6406253 L0.135416,2.619792 C0.135416,2.14062533 0.296874667,1.73437467 0.625,1.39583333 C0.958333333,1.04687467 1.369792,0.875 1.85416667,0.875 C2.33333333,0.875 2.744792,1.04687467 3.08333333,1.385416 C3.42708267,1.72916667 3.59374933,2.135416 3.59374933,2.619792 L3.59374933,3.72395867 L3.03645867,3.72395867 L2.58333333,3.385416 C3.89583333,1.625 5.39062533,0.744792 7.067708,0.744792 L7.19791733,0.744792 C7.682292,0.744792 8.08333333,0.916666667 8.41145867,1.25 C8.72916667,1.58333333 8.885416,1.989584 8.885416,2.46354133 C8.885416,2.95312533 8.71874933,3.35416667 8.375,3.67187467 C8.04166667,3.97916667 7.635416,4.130208 7.14583333,4.130208 L7.01562533,4.130208 C6.29687467,4.130208 5.635416,4.307292 5.04166667,4.65625067 C4.432292,5.01562533 3.91666667,5.510416 3.505208,6.14062533 L3.03645867,5.82812533 L3.59374933,5.82812533 L3.59374933,13.6406253 C3.59374933,14.125 3.42187467,14.5312507 3.07812533,14.864584 C2.73437467,15.192708 2.32812533,15.3593747 1.85416667,15.3593747 Z M1.85416667,14.2343747 C2.02604133,14.2343747 2.17708267,14.1718747 2.29687467,14.057292 C2.41145867,13.942708 2.47395867,13.807292 2.47395867,13.6406253 L2.47395867,5.66145867 L2.5625,5.52083333 C3.07291733,4.744792 3.70833333,4.135416 4.46874933,3.6875 C5.244792,3.23437467 6.09374933,3.005208 7.01562533,3.005208 L7.14583333,3.005208 C7.33854133,3.005208 7.494792,2.95312533 7.60937467,2.84895867 C7.71354133,2.755208 7.76562533,2.625 7.76562533,2.46354133 C7.76562533,2.29166667 7.70833333,2.14583333 7.59895867,2.03125067 C7.494792,1.92187467 7.35937467,1.869792 7.19791733,1.869792 L7.067708,1.869792 C5.76562533,1.869792 4.57291733,2.59895867 3.48437467,4.057292 L2.47395867,5.41666667 L2.47395867,2.619792 C2.47395867,2.44791733 2.41145867,2.30208267 2.29166667,2.182292 C2.16666667,2.057292 2.02083333,2 1.85416667,2 C1.6875,2 1.54687467,2.057292 1.4375,2.17187467 C1.317708,2.29687467 1.260416,2.442708 1.260416,2.619792 L1.260416,13.6406253 C1.260416,13.807292 1.3125,13.9531253 1.42708267,14.0625 C1.54166667,14.1770827 1.682292,14.2343747 1.85416667,14.2343747 Z"></path>
                </g>
            </g>
            <g id="Group" transform="translate(65.000000, 7.666667)" fill="#000000" fill-rule="nonzero">
                <g transform="translate(0.946760, 0.061367)" id="Shape">
                    <path d="M2.135416,4.78645867 C1.619792,4.78645867 1.17708267,4.60416667 0.8125,4.239584 C0.442708,3.869792 0.260416,3.432292 0.260416,2.91666667 L0.260416,2.8125 C0.260416,2.29687467 0.442708,1.85937467 0.8125,1.489584 C1.17708267,1.125 1.619792,0.942708 2.135416,0.942708 L2.28645867,0.942708 C2.80208267,0.942708 3.244792,1.125 3.60937467,1.489584 C3.97916667,1.85937467 4.16145867,2.29687467 4.16145867,2.8125 L4.16145867,2.91666667 C4.16145867,3.432292 3.97916667,3.869792 3.60937467,4.239584 C3.244792,4.60416667 2.80208267,4.78645867 2.28645867,4.78645867 L2.135416,4.78645867 Z M2.135416,3.66666667 L2.28645867,3.66666667 C2.494792,3.66666667 2.66666667,3.58854133 2.817708,3.442708 C2.96354133,3.29687467 3.03645867,3.119792 3.03645867,2.91666667 L3.03645867,2.8125 C3.03645867,2.60937467 2.96354133,2.432292 2.817708,2.28645867 C2.66666667,2.14062533 2.494792,2.067708 2.28645867,2.067708 L2.135416,2.067708 C1.92708267,2.067708 1.755208,2.14062533 1.60416667,2.28645867 C1.45833333,2.432292 1.385416,2.60937467 1.385416,2.8125 L1.385416,2.91666667 C1.385416,3.119792 1.45833333,3.29687467 1.60416667,3.442708 C1.755208,3.58854133 1.92708267,3.66666667 2.135416,3.66666667 Z M2.1875,20.692708 C1.70312533,20.692708 1.29687467,20.5260413 0.963541333,20.192708 C0.635416,19.8593747 0.468749333,19.4531253 0.468749333,18.9739587 L0.468749333,7.95312533 C0.468749333,7.47395867 0.630208,7.067708 0.958333333,6.72916667 C1.29166667,6.380208 1.70312533,6.20833333 2.1875,6.20833333 C2.682292,6.20833333 3.09895867,6.375 3.432292,6.70833333 C3.760416,7.03645867 3.92708267,7.45312533 3.92708267,7.95312533 L3.92708267,18.9739587 C3.92708267,19.4583333 3.755208,19.864584 3.41145867,20.1979173 C3.067708,20.5260413 2.66145867,20.692708 2.1875,20.692708 Z M2.1875,19.567708 C2.35937467,19.567708 2.510416,19.505208 2.630208,19.3906253 C2.744792,19.2760413 2.807292,19.1406253 2.807292,18.9739587 L2.807292,7.95312533 C2.807292,7.76562533 2.75,7.614584 2.635416,7.5 C2.52083333,7.39062533 2.375,7.33333333 2.1875,7.33333333 C2.02083333,7.33333333 1.880208,7.39062533 1.77083333,7.505208 C1.65104133,7.630208 1.59374933,7.77604133 1.59374933,7.95312533 L1.59374933,18.9739587 C1.59374933,19.1406253 1.64583333,19.2864587 1.760416,19.3958333 C1.875,19.510416 2.01562533,19.567708 2.1875,19.567708 Z"></path>
                </g>
            </g>
            <g id="Group" transform="translate(70.666667, 13.000000)" fill="#000000" fill-rule="nonzero">
                <g transform="translate(0.676211, 0.061367)" id="Shape">
                    <path d="M6.67708267,15.3593747 C6.255208,15.3593747 5.864584,15.2343747 5.510416,14.9843747 C5.16666667,14.7447917 4.91145867,14.442708 4.75,14.067708 L0.276041333,3.375 C0.161458667,3.09895867 0.104166667,2.84895867 0.104166667,2.619792 C0.104166667,2.14062533 0.270833333,1.73437467 0.598958667,1.39583333 C0.932292,1.04687467 1.33854133,0.875 1.82291733,0.875 C2.15625067,0.875 2.46874933,0.968749333 2.760416,1.15625067 C3.04687467,1.34895867 3.260416,1.58333333 3.39062533,1.869792 L3.39583333,1.885416 L7.32812533,11.864584 L6.807292,12.0729173 L6.28645867,11.864584 L10.2187493,1.885416 L10.2291667,1.869792 C10.3593747,1.58333333 10.567708,1.34895867 10.8541667,1.15625067 C11.1458333,0.968749333 11.4583333,0.875 11.7916667,0.875 C12.2760413,0.875 12.6875,1.04687467 13.0208333,1.39583333 C13.3437493,1.73437467 13.510416,2.14062533 13.510416,2.619792 C13.510416,2.84895867 13.4531253,3.09895867 13.3385413,3.375 L8.869792,14.0625 C8.70312533,14.4375 8.44791733,14.7447917 8.10416667,14.9843747 C7.75,15.2343747 7.364584,15.3593747 6.9375,15.3593747 L6.67708267,15.3593747 Z M6.67708267,14.2343747 L6.9375,14.2343747 C7.125,14.2343747 7.30208267,14.1770827 7.46354133,14.0625 C7.630208,13.9479173 7.755208,13.8020827 7.82812533,13.630208 L12.3020827,2.942708 C12.3593747,2.807292 12.385416,2.69791733 12.385416,2.619792 C12.385416,2.442708 12.3281253,2.29687467 12.2083333,2.17187467 C12.0989587,2.057292 11.9583333,2 11.7916667,2 C11.682292,2 11.5729173,2.03125067 11.4687493,2.09895867 C11.364584,2.16666667 11.2916667,2.25 11.25,2.33854133 L10.739584,2.10416667 L11.260416,2.3125 L6.807292,13.6041667 L2.35416667,2.3125 L2.875,2.10416667 L2.364584,2.33854133 C2.32291733,2.25 2.25,2.16666667 2.14583333,2.09895867 C2.04166667,2.03125067 1.9375,2 1.82291733,2 C1.65625067,2 1.52083333,2.057292 1.40625067,2.17187467 C1.28645867,2.29687467 1.22916667,2.442708 1.22916667,2.619792 C1.22916667,2.69791733 1.260416,2.807292 1.3125,2.942708 L5.78125067,13.619792 C5.85937467,13.7968747 5.98437467,13.9479173 6.15625067,14.0625 C6.3125,14.1770827 6.489584,14.2343747 6.67708267,14.2343747 Z"></path>
                </g>
            </g>
            <g id="Group" transform="translate(84.000000, 13.000000)" fill="#000000" fill-rule="nonzero">
                <g transform="translate(0.802968, 0.061367)" id="Shape">
                    <path d="M5.369792,15.4843747 C4.53125067,15.4843747 3.75,15.3125 3.03125067,14.9687493 C2.29166667,14.6145833 1.70833333,14.0937493 1.27083333,13.4166667 C0.838541333,12.7291667 0.619792,11.9479173 0.619792,11.067708 C0.619792,9.614584 1.19791733,8.45312533 2.34895867,7.58854133 C3.44791733,6.760416 5.03125067,6.34895867 7.08854133,6.34895867 L10.1979173,6.34895867 L10.1979173,6.90625067 L9.635416,6.90625067 L9.635416,6.70312533 C9.635416,5.739584 9.42187467,5.067708 8.989584,4.682292 C8.54166667,4.28125067 7.79687467,4.07812533 6.755208,4.07812533 C6.14583333,4.07812533 5.60416667,4.125 5.135416,4.22395867 C4.65104133,4.32291733 4.114584,4.46874933 3.51562533,4.66666667 L3.47395867,4.67708267 C3.29166667,4.72395867 3.135416,4.744792 3.005208,4.744792 C2.59374933,4.744792 2.239584,4.59895867 1.942708,4.30208267 C1.64062533,4 1.494792,3.64062533 1.494792,3.20833333 C1.494792,2.864584 1.58333333,2.557292 1.760416,2.30208267 C1.932292,2.04687467 2.182292,1.85416667 2.505208,1.71354133 C4.03125067,1.067708 5.58333333,0.744792 7.16666667,0.744792 C8.45312533,0.744792 9.54166667,1.010416 10.4479173,1.54166667 C11.3541667,2.07812533 12.0260413,2.77604133 12.4583333,3.635416 C12.885416,4.47916667 13.0989587,5.39062533 13.0989587,6.369792 L13.0989587,13.6406253 C13.0989587,14.125 12.9270827,14.5312507 12.5781253,14.864584 C12.239584,15.192708 11.8333333,15.3593747 11.3541667,15.3593747 C10.875,15.3593747 10.4687493,15.192708 10.135416,14.8593747 C9.80208267,14.5260413 9.635416,14.119792 9.635416,13.6406253 L9.635416,12.9687493 L10.1979173,12.9687493 L10.5989587,13.364584 C9.22395867,14.7760416 7.47916667,15.4843747 5.369792,15.4843747 Z M5.369792,14.3593747 C7.16145867,14.3593747 8.64062533,13.7656253 9.79687467,12.5781253 L10.760416,11.5885413 L10.760416,13.6406253 C10.760416,13.807292 10.817708,13.9531253 10.932292,14.0625 C11.0416667,14.1770827 11.182292,14.2343747 11.3541667,14.2343747 C11.5312507,14.2343747 11.6770827,14.1718747 11.8020827,14.057292 C11.9166667,13.942708 11.9739587,13.807292 11.9739587,13.6406253 L11.9739587,6.369792 C11.9739587,5.567708 11.8020827,4.82812533 11.4583333,4.14583333 C11.119792,3.47916667 10.5937493,2.9375 9.875,2.510416 C9.15104133,2.08333333 8.244792,1.869792 7.16666667,1.869792 C5.73437467,1.869792 4.32812533,2.16145867 2.942708,2.75 C2.82291733,2.80208267 2.73437467,2.864584 2.6875,2.9375 C2.64062533,3.005208 2.614584,3.09374933 2.614584,3.20833333 C2.614584,3.32812533 2.65625067,3.42708267 2.73437467,3.505208 C2.8125,3.58333333 2.90625067,3.625 3.005208,3.625 C3.04687467,3.625 3.10937467,3.60937467 3.20312533,3.58854133 L3.33854133,4.135416 L3.16145867,3.59895867 C3.80208267,3.39062533 4.380208,3.22916667 4.91145867,3.119792 C5.45312533,3.010416 6.067708,2.95312533 6.755208,2.95312533 C8.08333333,2.95312533 9.07291733,3.25 9.739584,3.84374933 C10.4218747,4.45312533 10.760416,5.40625067 10.760416,6.70312533 L10.760416,7.46874933 L7.08854133,7.46874933 C5.28125067,7.46874933 3.92187467,7.807292 3.02083333,8.489584 C2.17187467,9.130208 1.744792,9.989584 1.744792,11.067708 C1.744792,11.7291667 1.90104133,12.3125 2.21874933,12.8125 C2.54166667,13.3125 2.97395867,13.692708 3.52083333,13.9531253 C4.08333333,14.2239587 4.70312533,14.3593747 5.369792,14.3593747 Z M6.244792,12.307292 C6.90625067,12.307292 7.54687467,12.1458333 8.16666667,11.817708 C8.807292,11.4843747 9.34374933,11.067708 9.77604133,10.5729173 L10.1979173,10.942708 L9.635416,10.942708 L9.635416,8.78125067 L10.1979173,8.78125067 L10.1979173,9.34374933 L7.40104133,9.34374933 C5.1875,9.34374933 4.08333333,9.83333333 4.08333333,10.8125 C4.08333333,11.260416 4.22916667,11.619792 4.52604133,11.885416 C4.83854133,12.1666667 5.41145867,12.307292 6.244792,12.307292 Z M6.244792,13.432292 C5.125,13.432292 4.30208267,13.192708 3.77083333,12.7239587 C3.22916667,12.2343747 2.95833333,11.5989587 2.95833333,10.8125 C2.95833333,10.364584 3.067708,9.96874933 3.28645867,9.625 C3.505208,9.28645867 3.817708,9.010416 4.22916667,8.79166667 C4.95833333,8.41145867 6.01562533,8.22395867 7.40104133,8.22395867 L10.760416,8.22395867 L10.760416,11.1510413 L10.619792,11.3125 C10.0937493,11.9114587 9.45312533,12.4114587 8.6875,12.8125 C7.90104133,13.2239587 7.08854133,13.432292 6.244792,13.432292 Z"></path>
                </g>
            </g>
            <g id="Group" transform="translate(98.333333, 11.333333)" fill="#000000" fill-rule="nonzero">
                <g transform="translate(0.264243, 0.061367)" id="Shape">
                    <path d="M6.885416,17.1510413 C5.489584,17.1510413 4.42708267,16.8229173 3.692708,16.1614587 C2.94791733,15.4843747 2.57291733,14.494792 2.57291733,13.1979173 L2.57291733,5.23437467 L3.135416,5.23437467 L3.135416,5.79687467 L1.307292,5.79687467 C1.01562533,5.79687467 0.770833333,5.69791733 0.567708,5.489584 C0.359374933,5.28645867 0.260416667,5.04166667 0.260416667,4.744792 C0.260416667,4.39062533 0.40625,4.09895867 0.708333333,3.864584 L1.05208267,4.3125 L0.661458667,3.91145867 L4.15104133,0.489584 C4.41666667,0.229166667 4.692708,0.0989586667 4.98437467,0.0989586667 C5.28645867,0.0989586667 5.53645867,0.213541333 5.744792,0.4375 C5.9375,0.645833333 6.03125067,0.895833333 6.03125067,1.17708267 L6.03125067,3.22916667 L5.46874933,3.22916667 L5.46874933,2.67187467 L8.375,2.67187467 C8.82291733,2.67187467 9.192708,2.817708 9.489584,3.114584 C9.78645867,3.41666667 9.9375,3.78645867 9.9375,4.23437467 C9.9375,4.65625067 9.79166667,5.02083333 9.5,5.32812533 C9.19791733,5.64062533 8.82291733,5.79687467 8.375,5.79687467 L5.46874933,5.79687467 L5.46874933,5.23437467 L6.03125067,5.23437467 L6.03125067,12.994792 C6.03125067,13.260416 6.0625,13.4687493 6.114584,13.614584 C6.14583333,13.6979173 6.182292,13.755208 6.22395867,13.7760413 C6.45312533,13.9062507 6.76041667,13.9739587 7.14062533,13.9739587 C7.42708267,13.9739587 7.71874933,13.9270827 8.005208,13.8437493 L8.02083333,13.8385413 L8.03125067,13.8333333 C8.10416667,13.817708 8.182292,13.7968747 8.26562533,13.7812507 C8.380208,13.755208 8.52083333,13.739584 8.682292,13.739584 C9.07291733,13.739584 9.41666667,13.885416 9.71354133,14.1666667 C10.0156253,14.4583333 10.1666667,14.8125 10.1666667,15.2291667 C10.1666667,15.5364587 10.0885413,15.8125 9.92708267,16.057292 C9.77604133,16.2864584 9.557292,16.4791667 9.27604133,16.625 L9.26562533,16.630208 L9.25,16.6406253 C8.510416,16.9791667 7.71874933,17.1510413 6.885416,17.1510413 Z M6.885416,16.0260413 C7.557292,16.0260413 8.1875,15.8906253 8.78125067,15.619792 L9.01562533,16.130208 L8.755208,15.630208 C8.864584,15.5729173 8.942708,15.510416 8.989584,15.442708 C9.02604133,15.385416 9.04687467,15.3125 9.04687467,15.2291667 C9.04687467,15.130208 9.010416,15.0468747 8.9375,14.9791667 C8.85937467,14.9062507 8.77083333,14.864584 8.682292,14.864584 C8.60416667,14.864584 8.54687467,14.869792 8.510416,14.880208 C8.4375,14.8958333 8.369792,14.9114587 8.307292,14.9270827 L8.16666667,14.380208 L8.32812533,14.9166667 C7.9375,15.0364587 7.53645867,15.0989587 7.14062533,15.0989587 C6.5625,15.0989587 6.07291733,14.9843747 5.66666667,14.755208 C5.16145867,14.4687493 4.91145867,13.880208 4.91145867,12.994792 L4.91145867,4.67187467 L8.375,4.67187467 C8.505208,4.67187467 8.60937467,4.635416 8.6875,4.55208267 C8.77083333,4.46354133 8.8125,4.35937467 8.8125,4.23437467 C8.8125,4.09895867 8.77604133,3.989584 8.69791733,3.91145867 C8.619792,3.83333333 8.510416,3.79166667 8.375,3.79166667 L4.91145867,3.79166667 L4.91145867,1.17708267 C4.91145867,1.1875 4.91145867,1.192708 4.91666667,1.19791733 C4.932292,1.21354133 4.95312533,1.22395867 4.98437467,1.22395867 C5.005208,1.22395867 5.02604133,1.22395867 5.03645867,1.21874933 C5.010416,1.22916667 4.97916667,1.255208 4.9375,1.29687467 L1.42187467,4.73437467 L1.39583333,4.755208 C1.385416,4.760416 1.380208,4.77083333 1.375,4.77604133 L1.375,4.77083333 C1.380208,4.76562533 1.385416,4.755208 1.385416,4.744792 C1.385416,4.72916667 1.375,4.71354133 1.35937467,4.69791733 C1.34374933,4.682292 1.32812533,4.67187467 1.307292,4.67187467 L3.69791733,4.67187467 L3.69791733,13.1979173 C3.69791733,14.1614587 3.94791733,14.869792 4.44791733,15.3281253 C4.96874933,15.7916667 5.77604133,16.0260413 6.885416,16.0260413 Z"></path>
                </g>
            </g>
            <g id="Group" transform="translate(108.000000, 13.000000)" fill="#000000" fill-rule="nonzero">
                <g transform="translate(0.563600, 0.061367)" id="Shape">
                    <path d="M7.885416,15.4843747 C5.64062533,15.4843747 3.875,14.8333333 2.59374933,13.5312507 C1.3125,12.2343747 0.671874667,10.4270827 0.671874667,8.114584 C0.671874667,6.82291733 0.911458667,5.625 1.385416,4.52604133 C1.875,3.40104133 2.625,2.489584 3.64062533,1.79687467 C4.66145867,1.09374933 5.90625067,0.744792 7.375,0.744792 C8.75,0.744792 9.94791733,1.07291733 10.9635413,1.71874933 C11.9791667,2.369792 12.744792,3.23437467 13.2708333,4.3125 C13.7916667,5.375 14.0468747,6.53125067 14.0468747,7.78125067 C14.0468747,8.260416 13.8906253,8.66145867 13.5729173,8.994792 C13.244792,9.33333333 12.8229173,9.5 12.307292,9.5 L3.59895867,9.5 L3.59895867,8.9375 L4.15625067,8.875 C4.27604133,9.932292 4.66145867,10.744792 5.307292,11.317708 C5.95312533,11.8906253 6.880208,12.1770827 8.09374933,12.1770827 C8.76562533,12.1770827 9.34895867,12.114584 9.84374933,11.989584 C10.3437493,11.864584 10.8333333,11.682292 11.307292,11.442708 C11.5260413,11.3333333 11.760416,11.2812507 12.0208333,11.2812507 C12.442708,11.2812507 12.807292,11.4218747 13.119792,11.7083333 C13.4479173,12.010416 13.614584,12.385416 13.614584,12.8437493 C13.614584,13.4375 13.2968747,13.9166667 12.6614587,14.2812507 C11.9531253,14.6822917 11.255208,14.9791667 10.5625,15.182292 C9.85937467,15.385416 8.96874933,15.4843747 7.885416,15.4843747 Z M7.885416,14.3593747 C8.85937467,14.3593747 9.64583333,14.2760413 10.25,14.0989587 C10.8593747,13.9270827 11.4739587,13.6614587 12.0989587,13.307292 C12.3593747,13.1562507 12.489584,13.005208 12.489584,12.8437493 C12.489584,12.7187493 12.4479173,12.614584 12.364584,12.5364587 C12.2656253,12.4479173 12.1510413,12.4010413 12.0208333,12.4010413 C11.9375,12.4010413 11.869792,12.4166667 11.8125,12.4479173 C11.260416,12.7187493 10.6979173,12.932292 10.119792,13.0781253 C9.53125067,13.2291667 8.85937467,13.3020827 8.09374933,13.3020827 C6.59895867,13.3020827 5.42187467,12.9218747 4.557292,12.1562507 C3.69791733,11.3958333 3.192708,10.3437493 3.03645867,9 L2.96874933,8.375 L12.307292,8.375 C12.505208,8.375 12.6562507,8.32291733 12.760416,8.21354133 C12.869792,8.09895867 12.9270827,7.95833333 12.9270827,7.78125067 C12.9270827,6.70312533 12.7031253,5.71354133 12.260416,4.80208267 C11.8281253,3.91145867 11.192708,3.20312533 10.3593747,2.66666667 C9.52604133,2.135416 8.53125067,1.869792 7.375,1.869792 C6.135416,1.869792 5.10416667,2.15625067 4.27604133,2.72395867 C3.4375,3.29687467 2.817708,4.04687467 2.41666667,4.97395867 C2,5.932292 1.79687467,6.97916667 1.79687467,8.114584 C1.79687467,10.119792 2.32812533,11.6614587 3.39062533,12.744792 C4.45833333,13.8229173 5.95312533,14.3593747 7.885416,14.3593747 Z M10.614584,7.07291733 C10.567708,6.33333333 10.380208,5.72916667 10.057292,5.244792 C9.72916667,4.76562533 9.32812533,4.41666667 8.85416667,4.192708 C8.364584,3.96354133 7.869792,3.84895867 7.375,3.84895867 C6.875,3.84895867 6.380208,3.96354133 5.89062533,4.192708 C5.42187467,4.41666667 5.02604133,4.76562533 4.70833333,5.239584 C4.385416,5.72395867 4.20312533,6.33333333 4.15625067,7.07291733 L3.59895867,7.03645867 L3.59895867,6.47395867 L11.1770827,6.47395867 L11.1770827,7.03645867 L10.614584,7.07291733 Z M11.7708333,7.59895867 L3,7.59895867 L3.03645867,7 C3.09374933,6.0625 3.33854133,5.26562533 3.77083333,4.619792 C4.20833333,3.96874933 4.755208,3.48437467 5.41145867,3.17708267 C6.05208267,2.875 6.70833333,2.72395867 7.375,2.72395867 C8.03645867,2.72395867 8.692708,2.875 9.33333333,3.17708267 C9.989584,3.48437467 10.5416667,3.96354133 10.9843747,4.614584 C11.4270827,5.26562533 11.6770827,6.0625 11.7343747,7 L11.7708333,7.59895867 Z"></path>
                </g>
            </g>
            <g id="Group" transform="translate(124.000000, 9.000000)" fill="#000000" fill-rule="nonzero">
                <g transform="translate(0.153311, 0.061367)" id="Shape">
                    <path d="M2.3125,19.3593747 C1.83333333,19.3593747 1.42708267,19.192708 1.09374933,18.8593747 C0.760416,18.5260413 0.598958667,18.119792 0.598958667,17.6406253 L0.598958667,1.78645867 C0.598958667,1.3125 0.760416,0.906250667 1.08854133,0.5625 C1.42187467,0.218749333 1.82812533,0.0468746667 2.3125,0.0468746667 C2.79687467,0.0468746667 3.20833333,0.213541333 3.54687467,0.557292 C3.885416,0.895833333 4.057292,1.307292 4.057292,1.78645867 L4.057292,8.619792 L3.494792,8.619792 L3.494792,8.0625 L13.2343747,8.0625 L13.2343747,8.619792 L12.6718747,8.619792 L12.6718747,1.78645867 C12.6718747,1.3125 12.8333333,0.906250667 13.1614587,0.5625 C13.494792,0.218749333 13.9062507,0.0468746667 14.3906253,0.0468746667 C14.869792,0.0468746667 15.2812507,0.213541333 15.619792,0.557292 C15.9635413,0.895833333 16.130208,1.307292 16.130208,1.78645867 L16.130208,17.6406253 C16.130208,18.125 15.9583333,18.5312507 15.614584,18.864584 C15.2708333,19.192708 14.864584,19.3593747 14.3906253,19.3593747 C13.9062507,19.3593747 13.5,19.192708 13.1666667,18.8593747 C12.8385413,18.5260413 12.6718747,18.119792 12.6718747,17.6406253 L12.6718747,10.807292 L13.2343747,10.807292 L13.2343747,11.369792 L3.494792,11.369792 L3.494792,10.807292 L4.057292,10.807292 L4.057292,17.6406253 C4.057292,18.125 3.885416,18.5312507 3.54166667,18.864584 C3.19791733,19.192708 2.79166667,19.3593747 2.3125,19.3593747 Z M2.3125,18.2343747 C2.489584,18.2343747 2.635416,18.1718747 2.760416,18.057292 C2.875,17.942708 2.932292,17.807292 2.932292,17.6406253 L2.932292,10.244792 L13.7968747,10.244792 L13.7968747,17.6406253 C13.7968747,17.807292 13.8489587,17.9531253 13.9635413,18.0625 C14.0781253,18.1770827 14.2187493,18.2343747 14.3906253,18.2343747 C14.5625,18.2343747 14.7135413,18.1718747 14.8333333,18.057292 C14.9479173,17.942708 15.010416,17.807292 15.010416,17.6406253 L15.010416,1.78645867 C15.010416,1.619792 14.9479173,1.47395867 14.8281253,1.34895867 C14.7031253,1.22916667 14.557292,1.16666667 14.3906253,1.16666667 C14.2239587,1.16666667 14.0833333,1.22916667 13.9739587,1.34374933 C13.8541667,1.46354133 13.7968747,1.614584 13.7968747,1.78645867 L13.7968747,9.182292 L2.932292,9.182292 L2.932292,1.78645867 C2.932292,1.619792 2.875,1.47395867 2.75,1.34895867 C2.630208,1.22916667 2.48437467,1.16666667 2.3125,1.16666667 C2.15104133,1.16666667 2.010416,1.22916667 1.89583333,1.34374933 C1.78125067,1.46354133 1.71874933,1.614584 1.71874933,1.78645867 L1.71874933,17.6406253 C1.71874933,17.807292 1.77604133,17.9531253 1.89062533,18.0625 C2.005208,18.1770827 2.14583333,18.2343747 2.3125,18.2343747 Z"></path>
                </g>
            </g>
            <g id="Group" transform="translate(141.333333, 13.000000)" fill="#000000" fill-rule="nonzero">
                <g transform="translate(0.520845, 0.061367)" id="Shape">
                    <path d="M7.807292,15.4843747 C6.39062533,15.4843747 5.14062533,15.1770827 4.0625,14.5625 C2.97395867,13.942708 2.135416,13.067708 1.54166667,11.932292 C0.963541333,10.817708 0.671874667,9.54166667 0.671874667,8.114584 C0.671874667,6.6875 0.963541333,5.41666667 1.54166667,4.29687467 C2.135416,3.16666667 2.97395867,2.28645867 4.0625,1.66666667 C5.14062533,1.05208267 6.39062533,0.744792 7.807292,0.744792 C9.20833333,0.744792 10.4479173,1.05208267 11.5312507,1.66666667 C12.619792,2.28645867 13.4635413,3.16145867 14.0625,4.29687467 C14.6510413,5.41145867 14.9479173,6.6875 14.9479173,8.114584 C14.9479173,9.54687467 14.6510413,10.817708 14.0625,11.9375 C13.4635413,13.067708 12.619792,13.942708 11.5312507,14.5625 C10.4479173,15.1770827 9.20833333,15.4843747 7.807292,15.4843747 Z M7.807292,14.3593747 C9.010416,14.3593747 10.067708,14.1041667 10.9739587,13.5885413 C11.875,13.0781253 12.567708,12.3489587 13.067708,11.4114587 C13.5729173,10.4583333 13.8229173,9.35937467 13.8229173,8.114584 C13.8229173,6.875 13.5729173,5.77604133 13.067708,4.82291733 C12.567708,3.880208 11.875,3.15625067 10.9739587,2.64583333 C10.067708,2.130208 9.010416,1.869792 7.807292,1.869792 C6.58854133,1.869792 5.52604133,2.130208 4.619792,2.64583333 C3.72395867,3.15625067 3.03125067,3.880208 2.54166667,4.817708 C2.04166667,5.77083333 1.79687467,6.869792 1.79687467,8.114584 C1.79687467,9.35937467 2.04166667,10.4583333 2.54166667,11.4166667 C3.03125067,12.3541667 3.72395867,13.0781253 4.619792,13.5885413 C5.52604133,14.1041667 6.58854133,14.3593747 7.807292,14.3593747 Z M7.807292,12.2291667 C8.42187467,12.2291667 9.010416,12.0885413 9.57291733,11.8020827 C10.119792,11.5260413 10.5729173,11.0833333 10.9375,10.4739587 C11.3020827,9.85937467 11.4843747,9.067708 11.4843747,8.08854133 C11.4843747,7.130208 11.3020827,6.34374933 10.9375,5.73437467 C10.5729173,5.125 10.119792,4.6875 9.57812533,4.42187467 C9.01562533,4.14062533 8.42187467,4 7.807292,4 C7.17708267,4 6.57812533,4.14062533 6.01562533,4.42187467 C5.47395867,4.6875 5.02604133,5.125 4.67187467,5.72916667 C4.3125,6.34374933 4.135416,7.130208 4.135416,8.08854133 C4.135416,9.067708 4.3125,9.864584 4.67187467,10.4791667 C5.02604133,11.0833333 5.47916667,11.5260413 6.02083333,11.8020827 C6.58333333,12.0885413 7.182292,12.2291667 7.807292,12.2291667 Z M7.807292,13.3541667 C7,13.3541667 6.23437467,13.1718747 5.51562533,12.8020827 C4.77083333,12.4270827 4.16666667,11.8437493 3.70312533,11.0468747 C3.239584,10.255208 3.010416,9.27083333 3.010416,8.08854133 C3.010416,6.92708267 3.239584,5.94791733 3.70312533,5.16145867 C4.17187467,4.35937467 4.77604133,3.77604133 5.52083333,3.41145867 C6.239584,3.057292 7.005208,2.880208 7.807292,2.880208 C8.59895867,2.880208 9.35416667,3.057292 10.0729173,3.41145867 C10.817708,3.77604133 11.4270827,4.35937467 11.9010413,5.15625067 C12.375,5.94791733 12.6093747,6.92708267 12.6093747,8.08854133 C12.6093747,9.27083333 12.375,10.260416 11.9010413,11.0520827 C11.4270827,11.8437493 10.817708,12.432292 10.0781253,12.8020827 C9.35937467,13.1718747 8.59895867,13.3541667 7.807292,13.3541667 Z"></path>
                </g>
            </g>
            <g id="Group" transform="translate(158.666667, 13.000000)" fill="#000000" fill-rule="nonzero">
                <g transform="translate(0.138679, 0.061367)" id="Shape">
                    <path d="M5.16666667,15.4843747 C4.114584,15.4843747 3.192708,15.2343747 2.41145867,14.7291667 C1.625,14.2239587 1.02604133,13.5416667 0.614584,12.6718747 C0.208333333,11.8281253 0.005208,10.8958333 0.005208,9.89062533 L0.005208,2.59374933 C0.005208,2.10937467 0.177082667,1.69791733 0.526041333,1.364584 C0.864584,1.03645867 1.27083333,0.875 1.75,0.875 C2.22916667,0.875 2.635416,1.04166667 2.96874933,1.375 C3.30208267,1.70312533 3.46874933,2.114584 3.46874933,2.59374933 L3.46874933,9.630208 C3.46874933,10.5312507 3.65625067,11.192708 4.03125067,11.6041667 C4.39062533,12.005208 4.95833333,12.2031253 5.72916667,12.2031253 C6.47395867,12.2031253 7.14062533,12.010416 7.72395867,11.630208 C8.34895867,11.2135413 8.942708,10.6562507 9.505208,9.94791733 L9.942708,10.2968747 L9.380208,10.2968747 L9.380208,2.59374933 C9.380208,2.10937467 9.557292,1.69791733 9.90104133,1.364584 C10.239584,1.03645867 10.6510413,0.875 11.125,0.875 C11.6041667,0.875 12.0156253,1.04166667 12.3437493,1.375 C12.6770827,1.70312533 12.8437493,2.114584 12.8437493,2.59374933 L12.8437493,13.614584 C12.8437493,14.0885413 12.682292,14.5 12.3541667,14.8385413 C12.0208333,15.182292 11.6093747,15.3593747 11.125,15.3593747 C10.6458333,15.3593747 10.2343747,15.1875 9.89583333,14.8437493 C9.55208267,14.505208 9.380208,14.0937493 9.380208,13.614584 L9.380208,12.5625 L9.942708,12.5625 L10.3593747,12.9375 C9.67187467,13.7031253 8.92187467,14.3125 8.114584,14.7708333 C7.27604133,15.244792 6.29166667,15.4843747 5.16666667,15.4843747 Z M5.16666667,14.3593747 C6.09374933,14.3593747 6.89062533,14.1718747 7.5625,13.7916667 C8.260416,13.3958333 8.91666667,12.8593747 9.52604133,12.182292 L10.505208,11.0989587 L10.505208,13.614584 C10.505208,13.7812507 10.567708,13.9270827 10.6875,14.0520827 C10.8125,14.1718747 10.9583333,14.2343747 11.125,14.2343747 C11.2916667,14.2343747 11.432292,14.1770827 11.5416667,14.057292 C11.6614587,13.9375 11.7187493,13.7864587 11.7187493,13.614584 L11.7187493,2.59374933 C11.7187493,2.42187467 11.6614587,2.28125067 11.5520827,2.16666667 C11.4375,2.057292 11.2968747,2 11.125,2 C10.9531253,2 10.8020827,2.057292 10.682292,2.17708267 C10.5625,2.28645867 10.505208,2.42708267 10.505208,2.59374933 L10.505208,10.494792 L10.385416,10.6510413 C9.75,11.4479173 9.067708,12.0885413 8.33854133,12.567708 C7.567708,13.0729173 6.69791733,13.3281253 5.72916667,13.3281253 C4.625,13.3281253 3.77604133,13.005208 3.192708,12.3593747 C2.625,11.7291667 2.34374933,10.817708 2.34374933,9.630208 L2.34374933,2.59374933 C2.34374933,2.42187467 2.28645867,2.28125067 2.17187467,2.16666667 C2.0625,2.057292 1.92187467,2 1.75,2 C1.57291733,2 1.42708267,2.057292 1.30208267,2.17708267 C1.1875,2.28645867 1.130208,2.42708267 1.130208,2.59374933 L1.130208,9.89062533 C1.130208,10.7291667 1.29687467,11.494792 1.625,12.1875 C1.94791733,12.864584 2.41145867,13.3958333 3.01562533,13.7812507 C3.619792,14.1666667 4.33333333,14.3593747 5.16666667,14.3593747 Z"></path>
                </g>
            </g>
            <g id="Group" transform="translate(173.000000, 13.000000)" fill="#000000" fill-rule="nonzero">
                <g transform="translate(0.115527, 0.061367)" id="Shape">
                    <path d="M6.27083333,15.4843747 C4.45833333,15.4843747 2.8125,15.0781253 1.32291733,14.260416 L1.27083333,14.2291667 C0.817708,13.9114587 0.593749333,13.4739587 0.593749333,12.9218747 C0.593749333,12.5 0.739584,12.135416 1.02604133,11.8229173 C1.32291733,11.494792 1.70312533,11.3281253 2.15625067,11.3281253 C2.39062533,11.3281253 2.619792,11.380208 2.84895867,11.4791667 C3.364584,11.7083333 3.885416,11.885416 4.40104133,12.0156253 C4.90625067,12.1406253 5.47395867,12.2031253 6.114584,12.2031253 C6.95312533,12.2031253 7.567708,12.0833333 7.94791733,11.8385413 C8.25,11.6406253 8.40104133,11.3437493 8.40104133,10.942708 C8.40104133,10.864584 8.385416,10.8020827 8.34895867,10.75 C8.29687467,10.682292 8.20312533,10.614584 8.07291733,10.5520827 C7.66666667,10.3593747 6.98437467,10.1406253 6.02604133,9.89062533 C4.994792,9.65104133 4.14062533,9.39583333 3.45833333,9.130208 C2.71354133,8.83854133 2.07812533,8.40104133 1.54687467,7.8125 C0.979166667,7.182292 0.697917333,6.369792 0.697917333,5.364584 C0.697917333,4 1.192708,2.880208 2.1875,2.01562533 C3.15625067,1.16666667 4.51562533,0.744792 6.27083333,0.744792 C7.65625067,0.744792 8.95833333,0.973958667 10.1875,1.42187467 L9.994792,1.94791733 L10.1458333,1.41145867 C10.5156253,1.51562533 10.807292,1.71874933 11.010416,2.02083333 C11.2031253,2.30208267 11.3020827,2.60416667 11.3020827,2.92708267 C11.3020827,3.34895867 11.1510413,3.71874933 10.8489587,4.03645867 C10.5416667,4.35416667 10.1614587,4.51562533 9.70833333,4.51562533 C9.57812533,4.51562533 9.42187467,4.494792 9.239584,4.44791733 L9.20833333,4.4375 C8.27083333,4.14583333 7.34895867,4 6.44791733,4 C5.630208,4 5.010416,4.14062533 4.57812533,4.41666667 C4.22916667,4.64062533 4.057292,4.91145867 4.057292,5.239584 C4.057292,5.385416 4.08854133,5.510416 4.14583333,5.60416667 C4.21354133,5.70312533 4.317708,5.79166667 4.46354133,5.864584 C4.90104133,6.08333333 5.60416667,6.30208267 6.567708,6.51562533 L6.58854133,6.51562533 C7.619792,6.78125067 8.46354133,7.04166667 9.119792,7.29687467 C9.83854133,7.57812533 10.4583333,8.02083333 10.9739587,8.625 C11.5156253,9.260416 11.7864587,10.0937493 11.7864587,11.119792 C11.7864587,12.3958333 11.2864587,13.442708 10.2864587,14.2760413 C9.317708,15.0833333 7.97916667,15.4843747 6.27083333,15.4843747 Z M6.27083333,14.3593747 C7.70833333,14.3593747 8.807292,14.0468747 9.567708,13.4114587 C10.2968747,12.807292 10.6666667,12.0416667 10.6666667,11.119792 C10.6666667,10.369792 10.4843747,9.78125067 10.119792,9.35416667 C9.72395867,8.89583333 9.255208,8.557292 8.70833333,8.34374933 C8.09895867,8.10416667 7.29687467,7.85937467 6.307292,7.60937467 L6.44791733,7.0625 L6.32812533,7.60937467 C5.27083333,7.380208 4.48437467,7.130208 3.96354133,6.869792 C3.630208,6.70312533 3.375,6.48437467 3.19791733,6.20833333 C3.02083333,5.92708267 2.932292,5.60416667 2.932292,5.239584 C2.932292,4.5 3.28125067,3.91145867 3.97395867,3.46874933 C4.58854133,3.07291733 5.41145867,2.880208 6.44791733,2.880208 C7.46354133,2.880208 8.494792,3.04166667 9.54166667,3.364584 L9.375,3.90104133 L9.510416,3.35937467 C9.60416667,3.380208 9.67187467,3.39062533 9.70833333,3.39062533 C9.84374933,3.39062533 9.95312533,3.34895867 10.0364587,3.255208 C10.130208,3.16145867 10.1770827,3.05208267 10.1770827,2.92708267 C10.1770827,2.83854133 10.1458333,2.744792 10.0833333,2.65104133 C10.0312507,2.57812533 9.94791733,2.52083333 9.83854133,2.489584 L9.79687467,2.47916667 C8.69791733,2.07291733 7.52083333,1.869792 6.27083333,1.869792 C4.79687467,1.869792 3.682292,2.20312533 2.92708267,2.864584 C2.1875,3.505208 1.82291733,4.33854133 1.82291733,5.364584 C1.82291733,6.07812533 2.010416,6.64583333 2.380208,7.057292 C2.79166667,7.51562533 3.28645867,7.85416667 3.864584,8.07812533 C4.5,8.32812533 5.3125,8.567708 6.307292,8.807292 C7.33333333,9.07291733 8.08333333,9.3125 8.55208267,9.53645867 C8.85416667,9.67708267 9.08854133,9.864584 9.255208,10.0885413 C9.4375,10.3385413 9.52604133,10.625 9.52604133,10.942708 C9.52604133,11.755208 9.20312533,12.369792 8.557292,12.7812507 C7.989584,13.1458333 7.17187467,13.3281253 6.114584,13.3281253 C5.385416,13.3281253 4.71874933,13.255208 4.130208,13.1041667 C3.55208267,12.9583333 2.96874933,12.760416 2.39062533,12.510416 C2.3125,12.4739587 2.23437467,12.4531253 2.15625067,12.4531253 C2.03125067,12.4531253 1.932292,12.494792 1.85416667,12.5781253 C1.760416,12.6770827 1.71874933,12.7916667 1.71874933,12.9218747 C1.71874933,13.0833333 1.78645867,13.2135413 1.91666667,13.307292 L1.59374933,13.7656253 L1.864584,13.2760413 C3.182292,14 4.65104133,14.3593747 6.27083333,14.3593747 Z"></path>
                </g>
            </g>
            <g id="Group" transform="translate(185.333333, 13.000000)" fill="#000000" fill-rule="nonzero">
                <g transform="translate(0.112055, 0.061367)" id="Shape">
                    <path d="M7.885416,15.4843747 C5.64062533,15.4843747 3.875,14.8333333 2.59374933,13.5312507 C1.3125,12.2343747 0.671874667,10.4270827 0.671874667,8.114584 C0.671874667,6.82291733 0.911458667,5.625 1.385416,4.52604133 C1.875,3.40104133 2.625,2.489584 3.64062533,1.79687467 C4.66145867,1.09374933 5.90625067,0.744792 7.375,0.744792 C8.75,0.744792 9.94791733,1.07291733 10.9635413,1.71874933 C11.9791667,2.369792 12.744792,3.23437467 13.2708333,4.3125 C13.7916667,5.375 14.0468747,6.53125067 14.0468747,7.78125067 C14.0468747,8.260416 13.8906253,8.66145867 13.5729173,8.994792 C13.244792,9.33333333 12.8229173,9.5 12.307292,9.5 L3.59895867,9.5 L3.59895867,8.9375 L4.15625067,8.875 C4.27604133,9.932292 4.66145867,10.744792 5.307292,11.317708 C5.95312533,11.8906253 6.880208,12.1770827 8.09374933,12.1770827 C8.76562533,12.1770827 9.34895867,12.114584 9.84374933,11.989584 C10.3437493,11.864584 10.8333333,11.682292 11.307292,11.442708 C11.5260413,11.3333333 11.760416,11.2812507 12.0208333,11.2812507 C12.442708,11.2812507 12.807292,11.4218747 13.119792,11.7083333 C13.4479173,12.010416 13.614584,12.385416 13.614584,12.8437493 C13.614584,13.4375 13.2968747,13.9166667 12.6614587,14.2812507 C11.9531253,14.6822917 11.255208,14.9791667 10.5625,15.182292 C9.85937467,15.385416 8.96874933,15.4843747 7.885416,15.4843747 Z M7.885416,14.3593747 C8.85937467,14.3593747 9.64583333,14.2760413 10.25,14.0989587 C10.8593747,13.9270827 11.4739587,13.6614587 12.0989587,13.307292 C12.3593747,13.1562507 12.489584,13.005208 12.489584,12.8437493 C12.489584,12.7187493 12.4479173,12.614584 12.364584,12.5364587 C12.2656253,12.4479173 12.1510413,12.4010413 12.0208333,12.4010413 C11.9375,12.4010413 11.869792,12.4166667 11.8125,12.4479173 C11.260416,12.7187493 10.6979173,12.932292 10.119792,13.0781253 C9.53125067,13.2291667 8.85937467,13.3020827 8.09374933,13.3020827 C6.59895867,13.3020827 5.42187467,12.9218747 4.557292,12.1562507 C3.69791733,11.3958333 3.192708,10.3437493 3.03645867,9 L2.96874933,8.375 L12.307292,8.375 C12.505208,8.375 12.6562507,8.32291733 12.760416,8.21354133 C12.869792,8.09895867 12.9270827,7.95833333 12.9270827,7.78125067 C12.9270827,6.70312533 12.7031253,5.71354133 12.260416,4.80208267 C11.8281253,3.91145867 11.192708,3.20312533 10.3593747,2.66666667 C9.52604133,2.135416 8.53125067,1.869792 7.375,1.869792 C6.135416,1.869792 5.10416667,2.15625067 4.27604133,2.72395867 C3.4375,3.29687467 2.817708,4.04687467 2.41666667,4.97395867 C2,5.932292 1.79687467,6.97916667 1.79687467,8.114584 C1.79687467,10.119792 2.32812533,11.6614587 3.39062533,12.744792 C4.45833333,13.8229173 5.95312533,14.3593747 7.885416,14.3593747 Z M10.614584,7.07291733 C10.567708,6.33333333 10.380208,5.72916667 10.057292,5.244792 C9.72916667,4.76562533 9.32812533,4.41666667 8.85416667,4.192708 C8.364584,3.96354133 7.869792,3.84895867 7.375,3.84895867 C6.875,3.84895867 6.380208,3.96354133 5.89062533,4.192708 C5.42187467,4.41666667 5.02604133,4.76562533 4.70833333,5.239584 C4.385416,5.72395867 4.20312533,6.33333333 4.15625067,7.07291733 L3.59895867,7.03645867 L3.59895867,6.47395867 L11.1770827,6.47395867 L11.1770827,7.03645867 L10.614584,7.07291733 Z M11.7708333,7.59895867 L3,7.59895867 L3.03645867,7 C3.09374933,6.0625 3.33854133,5.26562533 3.77083333,4.619792 C4.20833333,3.96874933 4.755208,3.48437467 5.41145867,3.17708267 C6.05208267,2.875 6.70833333,2.72395867 7.375,2.72395867 C8.03645867,2.72395867 8.692708,2.875 9.33333333,3.17708267 C9.989584,3.48437467 10.5416667,3.96354133 10.9843747,4.614584 C11.4270827,5.26562533 11.6770827,6.0625 11.7343747,7 L11.7708333,7.59895867 Z"></path>
                </g>
            </g>
            <g id="Group" transform="translate(39.666667, 9.000000)" fill="#000000" fill-rule="nonzero">
                <g transform="translate(0.718924, 0.061367)" id="Shape">
                    <path d="M1.3125,18.7916667 C0.989584,18.7916667 0.718749333,18.6770833 0.5,18.4583333 C0.276041333,18.239584 0.166666667,17.9687493 0.166666667,17.6458333 L0.166666667,1.91666667 C0.166666667,1.59895867 0.276041333,1.32291733 0.5,1.08333333 C0.718749333,0.848958667 0.989584,0.729166667 1.3125,0.729166667 L7.16666667,0.729166667 C8.79166667,0.729166667 10.114584,1.010416 11.1458333,1.5625 C12.1718747,2.10416667 12.9062507,2.807292 13.3541667,3.66666667 C13.7968747,4.53125067 14.0208333,5.45312533 14.0208333,6.4375 C14.0208333,7.4375 13.7968747,8.369792 13.3541667,9.22916667 C12.9062507,10.0781253 12.1718747,10.7812507 11.1458333,11.3333333 C10.114584,11.875 8.79166667,12.1458333 7.16666667,12.1458333 L2.5,12.1458333 L2.5,17.6458333 C2.5,17.9687493 2.380208,18.239584 2.14583333,18.4583333 C1.92187467,18.6770833 1.64583333,18.7916667 1.3125,18.7916667 Z M6.9375,9.9375 C8.6875,9.9375 9.91666667,9.60416667 10.625,8.9375 C11.3333333,8.27083333 11.6875,7.4375 11.6875,6.4375 C11.6875,5.45312533 11.3333333,4.625 10.625,3.95833333 C9.91666667,3.28125067 8.6875,2.9375 6.9375,2.9375 L2.5,2.9375 L2.5,9.9375 L6.9375,9.9375 Z"></path>
                </g>
            </g>
            <g id="Group" transform="translate(56.000000, 14.000000)" fill="#000000" fill-rule="nonzero">
                <g transform="translate(0.441888, 0.061367)" id="Path">
                    <path d="M1.85416667,13.7916667 C1.52083333,13.7916667 1.239584,13.6770833 1.02083333,13.4583333 C0.796874667,13.239584 0.6875,12.9687493 0.6875,12.6458333 L0.6875,1.625 C0.6875,1.29166667 0.796874667,1.01562533 1.02083333,0.791666667 C1.239584,0.557292 1.52083333,0.4375 1.85416667,0.4375 C2.17187467,0.4375 2.44791733,0.557292 2.6875,0.791666667 C2.92187467,1.01562533 3.04166667,1.29166667 3.04166667,1.625 L3.04166667,2.72916667 C4.23437467,1.119792 5.57291733,0.3125 7.0625,0.3125 L7.1875,0.3125 C7.52083333,0.3125 7.79166667,0.427082667 8,0.645833333 C8.21874933,0.869792 8.33333333,1.14062533 8.33333333,1.45833333 C8.33333333,1.79166667 8.21874933,2.0625 8,2.27083333 C7.77604133,2.46874933 7.489584,2.5625 7.14583333,2.5625 L7.02083333,2.5625 C6.19791733,2.5625 5.442708,2.76562533 4.75,3.16666667 C4.067708,3.57291733 3.5,4.125 3.04166667,4.83333333 L3.04166667,12.6458333 C3.04166667,12.9687493 2.92187467,13.239584 2.6875,13.4583333 C2.44791733,13.6770833 2.17187467,13.7916667 1.85416667,13.7916667 Z"></path>
                </g>
            </g>
            <g id="Group" transform="translate(65.333333, 9.000000)" fill="#000000" fill-rule="nonzero">
                <g transform="translate(0.946760, 0.061367)" id="Shape">
                    <path d="M1.79166667,2.89583333 C1.442708,2.89583333 1.135416,2.77083333 0.875,2.52083333 C0.625,2.260416 0.5,1.94791733 0.5,1.58333333 L0.5,1.47916667 C0.5,1.119792 0.625,0.8125 0.875,0.5625 C1.135416,0.302082667 1.442708,0.166666667 1.79166667,0.166666667 L1.95833333,0.166666667 C2.317708,0.166666667 2.625,0.302082667 2.875,0.5625 C3.135416,0.8125 3.27083333,1.119792 3.27083333,1.47916667 L3.27083333,1.58333333 C3.27083333,1.94791733 3.135416,2.260416 2.875,2.52083333 C2.625,2.77083333 2.317708,2.89583333 1.95833333,2.89583333 L1.79166667,2.89583333 Z M1.85416667,18.7916667 C1.52083333,18.7916667 1.239584,18.6770833 1.02083333,18.4583333 C0.796874667,18.239584 0.6875,17.9687493 0.6875,17.6458333 L0.6875,6.625 C0.6875,6.29166667 0.796874667,6.01562533 1.02083333,5.79166667 C1.239584,5.557292 1.52083333,5.4375 1.85416667,5.4375 C2.19791733,5.4375 2.48437467,5.55208267 2.70833333,5.77083333 C2.92708267,5.994792 3.04166667,6.28125067 3.04166667,6.625 L3.04166667,17.6458333 C3.04166667,17.9687493 2.92187467,18.239584 2.6875,18.4583333 C2.44791733,18.6770833 2.17187467,18.7916667 1.85416667,18.7916667 Z"></path>
                </g>
            </g>
            <g id="Group" transform="translate(70.666667, 14.333333)" fill="#000000" fill-rule="nonzero">
                <g transform="translate(0.676211, 0.061367)" id="Path">
                    <path d="M6.6875,13.4583333 C6.364584,13.4583333 6.07291733,13.3645833 5.8125,13.1875 C5.5625,13.010416 5.380208,12.7864587 5.27083333,12.5208333 L0.791666667,1.83333333 C0.708333333,1.625 0.666666667,1.44791733 0.666666667,1.29166667 C0.666666667,0.958333333 0.776041333,0.682292 1,0.458333333 C1.21874933,0.223958667 1.5,0.104166667 1.83333333,0.104166667 C2.05208267,0.104166667 2.260416,0.166666667 2.45833333,0.291666667 C2.65104133,0.416666667 2.79166667,0.578125333 2.875,0.770833333 L6.8125,10.7291667 L10.7291667,0.770833333 C10.8229173,0.578125333 10.9687493,0.416666667 11.1666667,0.291666667 C11.3593747,0.166666667 11.567708,0.104166667 11.7916667,0.104166667 C12.1093747,0.104166667 12.380208,0.223958667 12.6041667,0.458333333 C12.8229173,0.682292 12.9375,0.958333333 12.9375,1.29166667 C12.9375,1.44791733 12.8958333,1.625 12.8125,1.83333333 L8.35416667,12.5208333 C8.22916667,12.7864587 8.03125067,13.010416 7.77083333,13.1875 C7.52083333,13.3645833 7.239584,13.4583333 6.9375,13.4583333 L6.6875,13.4583333 Z"></path>
                </g>
            </g>
            <g id="Group" transform="translate(85.000000, 14.000000)" fill="#000000" fill-rule="nonzero">
                <g transform="translate(0.802968, 0.061367)" id="Shape">
                    <path d="M4.375,13.9166667 C3.60937467,13.9166667 2.90625067,13.7604167 2.27083333,13.4583333 C1.630208,13.1562507 1.125,12.7083333 0.75,12.125 C0.375,11.5312507 0.1875,10.8437493 0.1875,10.0625 C0.1875,8.80208267 0.6875,7.79166667 1.6875,7.04166667 C2.6875,6.29166667 4.15104133,5.91666667 6.08333333,5.91666667 L9.20833333,5.91666667 L9.20833333,5.70833333 C9.20833333,4.57291733 8.92187467,3.760416 8.35416667,3.27083333 C7.79687467,2.77083333 6.92708267,2.52083333 5.75,2.52083333 C5.09374933,2.52083333 4.52083333,2.57812533 4.02083333,2.6875 C3.52083333,2.78645867 2.95833333,2.932292 2.33333333,3.125 C2.192708,3.16666667 2.08333333,3.1875 2,3.1875 C1.75,3.1875 1.52604133,3.09895867 1.33333333,2.91666667 C1.15104133,2.72395867 1.0625,2.489584 1.0625,2.20833333 C1.0625,1.75 1.28125067,1.42708267 1.72916667,1.22916667 C3.1875,0.619792 4.66666667,0.3125 6.16666667,0.3125 C7.34374933,0.3125 8.33854133,0.557292 9.14583333,1.04166667 C9.96354133,1.51562533 10.567708,2.135416 10.9583333,2.89583333 C11.3437493,3.66145867 11.5416667,4.489584 11.5416667,5.375 L11.5416667,12.6458333 C11.5416667,12.9687493 11.4218747,13.239584 11.1875,13.4583333 C10.9479173,13.6770833 10.6718747,13.7916667 10.3541667,13.7916667 C10.0312507,13.7916667 9.760416,13.6770833 9.54166667,13.4583333 C9.317708,13.239584 9.20833333,12.9687493 9.20833333,12.6458333 L9.20833333,11.9791667 C7.92708267,13.2708333 6.317708,13.9166667 4.375,13.9166667 Z M5.25,11.875 C6,11.875 6.71874933,11.6979173 7.41666667,11.3333333 C8.125,10.9583333 8.71874933,10.494792 9.20833333,9.9375 L9.20833333,7.79166667 L6.39583333,7.79166667 C3.8125,7.79166667 2.52083333,8.46874933 2.52083333,9.8125 C2.52083333,10.4270827 2.72916667,10.9270827 3.14583333,11.3125 C3.5625,11.6875 4.260416,11.875 5.25,11.875 Z"></path>
                </g>
            </g>
            <g id="Group" transform="translate(98.666667, 11.666667)" fill="#000000" fill-rule="nonzero">
                <g transform="translate(0.264243, 0.061367)" id="Path">
                    <path d="M6.54166667,16.25 C4.04166667,16.25 2.79166667,15.125 2.79166667,12.875 L2.79166667,4.89583333 L0.979166667,4.89583333 C0.838541333,4.89583333 0.718749333,4.85416667 0.625,4.77083333 C0.526041333,4.67708267 0.479166667,4.557292 0.479166667,4.41666667 C0.479166667,4.25 0.5625,4.10416667 0.729166667,3.97916667 L4.20833333,0.5625 C4.35937467,0.411458667 4.505208,0.333333333 4.64583333,0.333333333 C4.78125067,0.333333333 4.90104133,0.390625333 5,0.5 C5.09374933,0.598958667 5.14583333,0.718749333 5.14583333,0.854166667 L5.14583333,2.89583333 L8.04166667,2.89583333 C8.33333333,2.89583333 8.567708,2.994792 8.75,3.1875 C8.942708,3.369792 9.04166667,3.60416667 9.04166667,3.89583333 C9.04166667,4.17708267 8.942708,4.41145867 8.75,4.60416667 C8.567708,4.80208267 8.33333333,4.89583333 8.04166667,4.89583333 L5.14583333,4.89583333 L5.14583333,12.6666667 C5.14583333,13.3333333 5.29687467,13.760416 5.60416667,13.9375 C5.92187467,14.119792 6.32291733,14.2083333 6.8125,14.2083333 C7.14583333,14.2083333 7.48437467,14.1562507 7.83333333,14.0416667 C7.90104133,14.0312507 7.96874933,14.0156253 8.04166667,14 C8.125,13.989584 8.22916667,13.9791667 8.35416667,13.9791667 C8.58854133,13.9791667 8.79687467,14.0729173 8.97916667,14.25 C9.17187467,14.4166667 9.27083333,14.635416 9.27083333,14.8958333 C9.27083333,15.2864587 9.07291733,15.5833333 8.6875,15.7916667 C8.02083333,16.09375 7.30208267,16.25 6.54166667,16.25 Z"></path>
                </g>
            </g>
            <g id="Group" transform="translate(109.000000, 14.000000)" fill="#000000" fill-rule="nonzero">
                <g transform="translate(0.563600, 0.061367)" id="Shape">
                    <path d="M6.89583333,13.9166667 C4.79687467,13.9166667 3.15625067,13.3281253 1.97916667,12.1458333 C0.8125,10.9531253 0.229166667,9.28125067 0.229166667,7.125 C0.229166667,5.90625067 0.447917333,4.78125067 0.895833333,3.75 C1.33854133,2.72395867 2.02083333,1.89583333 2.9375,1.27083333 C3.864584,0.635416 5.010416,0.3125 6.375,0.3125 C7.635416,0.3125 8.72916667,0.614584 9.64583333,1.20833333 C10.5729173,1.79166667 11.2760413,2.57812533 11.75,3.5625 C12.2343747,4.55208267 12.4791667,5.625 12.4791667,6.79166667 C12.4791667,7.114584 12.375,7.385416 12.1666667,7.60416667 C11.9583333,7.82812533 11.6718747,7.9375 11.3125,7.9375 L2.60416667,7.9375 C2.72916667,9.135416 3.16666667,10.0729173 3.91666667,10.75 C4.67708267,11.4166667 5.73437467,11.75 7.08333333,11.75 C7.80208267,11.75 8.4375,11.682292 8.97916667,11.5416667 C9.52083333,11.4062507 10.0468747,11.2031253 10.5625,10.9375 C10.6979173,10.869792 10.8541667,10.8333333 11.0208333,10.8333333 C11.2968747,10.8333333 11.5312507,10.932292 11.7291667,11.125 C11.9375,11.307292 12.0416667,11.5416667 12.0416667,11.8333333 C12.0416667,12.2239587 11.817708,12.5416667 11.375,12.7916667 C10.7083333,13.1666667 10.0468747,13.4531253 9.39583333,13.6458333 C8.755208,13.8229173 7.92187467,13.9166667 6.89583333,13.9166667 Z M10.1666667,6.04166667 C10.125,5.19791733 9.90625067,4.494792 9.52083333,3.9375 C9.130208,3.369792 8.65104133,2.95312533 8.08333333,2.6875 C7.52604133,2.42708267 6.95833333,2.29166667 6.375,2.29166667 C5.79166667,2.29166667 5.21354133,2.42708267 4.64583333,2.6875 C4.08854133,2.95312533 3.614584,3.369792 3.22916667,3.9375 C2.85416667,4.494792 2.64583333,5.19791733 2.60416667,6.04166667 L10.1666667,6.04166667 Z"></path>
                </g>
            </g>
            <g id="Group" transform="translate(125.000000, 9.000000)" fill="#000000" fill-rule="nonzero">
                <g transform="translate(0.153311, 0.061367)" id="Path">
                    <path d="M1.3125,18.7916667 C0.989584,18.7916667 0.718749333,18.6770833 0.5,18.4583333 C0.276041333,18.239584 0.166666667,17.9687493 0.166666667,17.6458333 L0.166666667,1.79166667 C0.166666667,1.45833333 0.276041333,1.182292 0.5,0.958333333 C0.718749333,0.723958667 0.989584,0.604166667 1.3125,0.604166667 C1.64583333,0.604166667 1.92187467,0.723958667 2.14583333,0.958333333 C2.380208,1.182292 2.5,1.45833333 2.5,1.79166667 L2.5,8.625 L12.2291667,8.625 L12.2291667,1.79166667 C12.2291667,1.45833333 12.3385413,1.182292 12.5625,0.958333333 C12.7812507,0.723958667 13.0625,0.604166667 13.3958333,0.604166667 C13.7135413,0.604166667 13.9843747,0.723958667 14.2083333,0.958333333 C14.442708,1.182292 14.5625,1.45833333 14.5625,1.79166667 L14.5625,17.6458333 C14.5625,17.9687493 14.442708,18.239584 14.2083333,18.4583333 C13.9843747,18.6770833 13.7135413,18.7916667 13.3958333,18.7916667 C13.0625,18.7916667 12.7812507,18.6770833 12.5625,18.4583333 C12.3385413,18.239584 12.2291667,17.9687493 12.2291667,17.6458333 L12.2291667,10.8125 L2.5,10.8125 L2.5,17.6458333 C2.5,17.9687493 2.380208,18.239584 2.14583333,18.4583333 C1.92187467,18.6770833 1.64583333,18.7916667 1.3125,18.7916667 Z"></path>
                </g>
            </g>
            <g id="Group" transform="translate(142.333333, 14.000000)" fill="#000000" fill-rule="nonzero">
                <g transform="translate(0.520845, 0.061367)" id="Shape">
                    <path d="M6.8125,13.9166667 C5.489584,13.9166667 4.33333333,13.6406251 3.33333333,13.0833333 C2.34374933,12.5156253 1.58333333,11.7187493 1.04166667,10.6875 C0.5,9.64583333 0.229166667,8.45833333 0.229166667,7.125 C0.229166667,5.78125067 0.5,4.59374933 1.04166667,3.5625 C1.58333333,2.52083333 2.34374933,1.72395867 3.33333333,1.16666667 C4.33333333,0.598958667 5.489584,0.3125 6.8125,0.3125 C8.114584,0.3125 9.260416,0.598958667 10.25,1.16666667 C11.25,1.72395867 12.0208333,2.52083333 12.5625,3.5625 C13.1041667,4.59374933 13.375,5.78125067 13.375,7.125 C13.375,8.45833333 13.1041667,9.64583333 12.5625,10.6875 C12.0208333,11.7187493 11.25,12.5156253 10.25,13.0833333 C9.260416,13.6406251 8.114584,13.9166667 6.8125,13.9166667 Z M6.8125,11.7916667 C7.505208,11.7916667 8.17187467,11.635416 8.8125,11.3125 C9.46354133,10.9791667 10,10.4687493 10.4166667,9.77083333 C10.8333333,9.0625 11.0416667,8.16666667 11.0416667,7.08333333 C11.0416667,6.03125067 10.8333333,5.15625067 10.4166667,4.45833333 C10,3.75 9.46354133,3.239584 8.8125,2.91666667 C8.17187467,2.59895867 7.505208,2.4375 6.8125,2.4375 C6.08854133,2.4375 5.40625067,2.59895867 4.77083333,2.91666667 C4.130208,3.239584 3.60416667,3.75 3.1875,4.45833333 C2.77083333,5.15625067 2.5625,6.03125067 2.5625,7.08333333 C2.5625,8.16666667 2.77083333,9.0625 3.1875,9.77083333 C3.60416667,10.4687493 4.130208,10.9791667 4.77083333,11.3125 C5.40625067,11.635416 6.08854133,11.7916667 6.8125,11.7916667 Z"></path>
                </g>
            </g>
            <g id="Group" transform="translate(158.666667, 14.333333)" fill="#000000" fill-rule="nonzero">
                <g transform="translate(0.138679, 0.061367)" id="Path">
                    <path d="M5.16666667,13.5833333 C4.21874933,13.5833333 3.40104133,13.3593749 2.70833333,12.9166667 C2.010416,12.4739587 1.47916667,11.869792 1.10416667,11.1041667 C0.739584,10.3281253 0.5625,9.47916667 0.5625,8.5625 L0.5625,1.25 C0.5625,0.932292 0.677082667,0.661458667 0.916666667,0.4375 C1.15104133,0.218749333 1.42708267,0.104166667 1.75,0.104166667 C2.067708,0.104166667 2.33854133,0.218749333 2.5625,0.4375 C2.78125067,0.661458667 2.89583333,0.932292 2.89583333,1.25 L2.89583333,8.29166667 C2.89583333,10.3906253 3.83854133,11.4375 5.72916667,11.4375 C6.58854133,11.4375 7.35416667,11.2187493 8.02083333,10.7708333 C8.69791733,10.3281253 9.33854133,9.72395867 9.9375,8.95833333 L9.9375,1.25 C9.9375,0.932292 10.0520827,0.661458667 10.2916667,0.4375 C10.5260413,0.218749333 10.8020827,0.104166667 11.125,0.104166667 C11.442708,0.104166667 11.7135413,0.218749333 11.9375,0.4375 C12.1562507,0.661458667 12.2708333,0.932292 12.2708333,1.25 L12.2708333,12.2708333 C12.2708333,12.6041667 12.1562507,12.8906253 11.9375,13.125 C11.7135413,13.34375 11.442708,13.4583333 11.125,13.4583333 C10.8020827,13.4583333 10.5260413,13.34375 10.2916667,13.125 C10.0520827,12.8906253 9.9375,12.6041667 9.9375,12.2708333 L9.9375,11.2291667 C9.28125067,11.9531253 8.58333333,12.5312507 7.83333333,12.9583333 C7.08333333,13.375 6.192708,13.5833333 5.16666667,13.5833333 Z"></path>
                </g>
            </g>
            <g id="Group" transform="translate(174.000000, 14.000000)" fill="#000000" fill-rule="nonzero">
                <g transform="translate(0.115527, 0.061367)" id="Path">
                    <path d="M5.27083333,13.9166667 C3.5625,13.9166667 2,13.5364584 0.583333333,12.7708333 C0.291666667,12.5625 0.145833333,12.2812507 0.145833333,11.9166667 C0.145833333,11.6406253 0.239584,11.4062507 0.4375,11.2083333 C0.630208,11 0.875,10.8958333 1.16666667,10.8958333 C1.317708,10.8958333 1.46874933,10.932292 1.625,11 C2.16666667,11.239584 2.70833333,11.4270827 3.25,11.5625 C3.80208267,11.7031253 4.42187467,11.7708333 5.10416667,11.7708333 C7.005208,11.7708333 7.95833333,11.1614587 7.95833333,9.9375 C7.95833333,9.55208267 7.73437467,9.25 7.29166667,9.04166667 C6.85937467,8.83333333 6.15104133,8.60416667 5.16666667,8.35416667 C4.15104133,8.119792 3.3125,7.875 2.64583333,7.625 C1.989584,7.364584 1.42708267,6.96874933 0.958333333,6.4375 C0.484374667,5.91145867 0.25,5.22395867 0.25,4.375 C0.25,3.16666667 0.677082667,2.1875 1.54166667,1.4375 C2.41666667,0.6875 3.65625067,0.3125 5.27083333,0.3125 C6.58854133,0.3125 7.83333333,0.531250667 9,0.958333333 C9.23437467,1.03125067 9.41666667,1.16145867 9.54166667,1.35416667 C9.66666667,1.53645867 9.72916667,1.72916667 9.72916667,1.9375 C9.72916667,2.20312533 9.630208,2.4375 9.4375,2.64583333 C9.239584,2.85416667 9,2.95833333 8.70833333,2.95833333 C8.625,2.95833333 8.510416,2.9375 8.375,2.89583333 C7.385416,2.59374933 6.40625067,2.4375 5.4375,2.4375 C4.52083333,2.4375 3.79687467,2.60416667 3.27083333,2.9375 C2.755208,3.27083333 2.5,3.70312533 2.5,4.22916667 C2.5,4.744792 2.73437467,5.125 3.20833333,5.375 C3.692708,5.614584 4.4375,5.84374933 5.4375,6.0625 C6.44791733,6.32812533 7.27083333,6.58333333 7.89583333,6.83333333 C8.53125067,7.07291733 9.08333333,7.45833333 9.54166667,8 C10,8.53125067 10.2291667,9.239584 10.2291667,10.125 C10.2291667,11.2239587 9.79166667,12.135416 8.91666667,12.8541667 C8.05208267,13.5625 6.83854133,13.9166667 5.27083333,13.9166667 Z"></path>
                </g>
            </g>
            <g id="Group" transform="translate(186.333333, 14.000000)" fill="#000000" fill-rule="nonzero">
                <g transform="translate(0.112055, 0.061367)" id="Shape">
                    <path d="M6.89583333,13.9166667 C4.79687467,13.9166667 3.15625067,13.3281253 1.97916667,12.1458333 C0.8125,10.9531253 0.229166667,9.28125067 0.229166667,7.125 C0.229166667,5.90625067 0.447917333,4.78125067 0.895833333,3.75 C1.33854133,2.72395867 2.02083333,1.89583333 2.9375,1.27083333 C3.864584,0.635416 5.010416,0.3125 6.375,0.3125 C7.635416,0.3125 8.72916667,0.614584 9.64583333,1.20833333 C10.5729173,1.79166667 11.2760413,2.57812533 11.75,3.5625 C12.2343747,4.55208267 12.4791667,5.625 12.4791667,6.79166667 C12.4791667,7.114584 12.375,7.385416 12.1666667,7.60416667 C11.9583333,7.82812533 11.6718747,7.9375 11.3125,7.9375 L2.60416667,7.9375 C2.72916667,9.135416 3.16666667,10.0729173 3.91666667,10.75 C4.67708267,11.4166667 5.73437467,11.75 7.08333333,11.75 C7.80208267,11.75 8.4375,11.682292 8.97916667,11.5416667 C9.52083333,11.4062507 10.0468747,11.2031253 10.5625,10.9375 C10.6979173,10.869792 10.8541667,10.8333333 11.0208333,10.8333333 C11.2968747,10.8333333 11.5312507,10.932292 11.7291667,11.125 C11.9375,11.307292 12.0416667,11.5416667 12.0416667,11.8333333 C12.0416667,12.2239587 11.817708,12.5416667 11.375,12.7916667 C10.7083333,13.1666667 10.0468747,13.4531253 9.39583333,13.6458333 C8.755208,13.8229173 7.92187467,13.9166667 6.89583333,13.9166667 Z M10.1666667,6.04166667 C10.125,5.19791733 9.90625067,4.494792 9.52083333,3.9375 C9.130208,3.369792 8.65104133,2.95312533 8.08333333,2.6875 C7.52604133,2.42708267 6.95833333,2.29166667 6.375,2.29166667 C5.79166667,2.29166667 5.21354133,2.42708267 4.64583333,2.6875 C4.08854133,2.95312533 3.614584,3.369792 3.22916667,3.9375 C2.85416667,4.494792 2.64583333,5.19791733 2.60416667,6.04166667 L10.1666667,6.04166667 Z"></path>
                </g>
            </g>
        </g>
    </g>
</svg>
